M48
; DRILL file {KiCad 8.0.8} date 2025-02-04T18:57:17-0500
; FORMAT={-:-/ absolute / inch / decimal}
; #@! TF.CreationDate,2025-02-04T18:57:17-05:00
; #@! TF.GenerationSoftware,Kicad,Pcbnew,8.0.8
; #@! TF.FileFunction,Plated,1,2,PTH
FMAT,2
INCH
; #@! TA.AperFunction,Plated,PTH,ViaDrill
T1C0.0157
; #@! TA.AperFunction,Plated,PTH,ComponentDrill
T2C0.0374
; #@! TA.AperFunction,Plated,PTH,ComponentDrill
T3C0.0394
%
G90
G05
T1
X1.2Y-1.3
X1.2Y-1.4
X1.3513Y-1.9014
X1.4502Y-1.5453
X1.5Y-1.8
T2
X1.4Y-2.1539
X1.4Y-2.2524
X1.4Y-2.3508
X1.4Y-2.4492
X1.4Y-2.5476
X1.4Y-2.6461
T3
X1.3Y-2.9
X1.4Y-2.9
X1.6Y-1.2
X1.6Y-1.3
X1.6Y-1.4
X1.6Y-1.5
X1.6Y-1.6
X1.6Y-1.7
X1.6Y-1.8
X1.6Y-1.9
X1.6Y-2.0
X1.6Y-2.1
X1.6Y-2.2
X1.6Y-2.3
X1.6Y-2.4
X1.6Y-2.5
X1.6Y-2.6
X1.6Y-2.7
X1.6Y-2.8
X1.6Y-2.9
X1.6Y-3.0
X1.6Y-3.1
X1.7Y-1.2
X1.7Y-1.3
X1.7Y-1.4
X1.7Y-1.5
X1.7Y-1.6
X1.7Y-1.7
X1.7Y-1.8
X1.7Y-1.9
X1.7Y-2.0
X1.7Y-2.1
X1.7Y-2.2
X1.7Y-2.3
X1.7Y-2.4
X1.7Y-2.5
X1.7Y-2.6
X1.7Y-2.7
X1.7Y-2.8
X1.7Y-2.9
X1.7Y-3.0
X1.7Y-3.1
M30
