M48
; DRILL file {KiCad 7.0.10} date Sat 20 Jan 2024 08:37:17 PM EST
; FORMAT={-:-/ absolute / inch / decimal}
; #@! TF.CreationDate,2024-01-20T20:37:17-05:00
; #@! TF.GenerationSoftware,Kicad,Pcbnew,7.0.10
; #@! TF.FileFunction,Plated,1,2,PTH
FMAT,2
INCH
; #@! TA.AperFunction,Plated,PTH,ViaDrill
T1C0.0157
; #@! TA.AperFunction,Plated,PTH,ComponentDrill
T2C0.0394
%
G90
G05
T1
X1.3023Y-1.9429
X1.3513Y-1.9014
X1.4Y-2.0
X1.4502Y-1.5453
X1.5Y-1.8
X1.5388Y-1.546
T2
X1.2502Y-1.1722
X1.2722Y-2.3
X1.2722Y-2.4
X1.2722Y-2.5
X1.2722Y-2.6
X1.2722Y-2.7498
X1.2722Y-2.8498
X1.3502Y-1.1722
X1.6Y-1.2
X1.6Y-1.3
X1.6Y-1.4
X1.6Y-1.5
X1.6Y-1.6
X1.6Y-1.7
X1.6Y-1.8
X1.6Y-1.9
X1.6Y-2.0
X1.6Y-2.1
X1.6Y-2.2
X1.6Y-2.3
X1.6Y-2.4
X1.6Y-2.5
X1.6Y-2.6
X1.6Y-2.7
X1.6Y-2.8
X1.6Y-2.9
X1.6Y-3.0
X1.6Y-3.1
X1.7Y-1.2
X1.7Y-1.3
X1.7Y-1.4
X1.7Y-1.5
X1.7Y-1.6
X1.7Y-1.7
X1.7Y-1.8
X1.7Y-1.9
X1.7Y-2.0
X1.7Y-2.1
X1.7Y-2.2
X1.7Y-2.3
X1.7Y-2.4
X1.7Y-2.5
X1.7Y-2.6
X1.7Y-2.7
X1.7Y-2.8
X1.7Y-2.9
X1.7Y-3.0
X1.7Y-3.1
M30
