%TF.GenerationSoftware,KiCad,Pcbnew,8.0.8*%
%TF.CreationDate,2025-02-04T18:57:15-05:00*%
%TF.ProjectId,zuul,7a75756c-2e6b-4696-9361-645f70636258,rev?*%
%TF.SameCoordinates,Original*%
%TF.FileFunction,Copper,L1,Top*%
%TF.FilePolarity,Positive*%
%FSLAX46Y46*%
G04 Gerber Fmt 4.6, Leading zero omitted, Abs format (unit mm)*
G04 Created by KiCad (PCBNEW 8.0.8) date 2025-02-04 18:57:15*
%MOMM*%
%LPD*%
G01*
G04 APERTURE LIST*
G04 Aperture macros list*
%AMRoundRect*
0 Rectangle with rounded corners*
0 $1 Rounding radius*
0 $2 $3 $4 $5 $6 $7 $8 $9 X,Y pos of 4 corners*
0 Add a 4 corners polygon primitive as box body*
4,1,4,$2,$3,$4,$5,$6,$7,$8,$9,$2,$3,0*
0 Add four circle primitives for the rounded corners*
1,1,$1+$1,$2,$3*
1,1,$1+$1,$4,$5*
1,1,$1+$1,$6,$7*
1,1,$1+$1,$8,$9*
0 Add four rect primitives between the rounded corners*
20,1,$1+$1,$2,$3,$4,$5,0*
20,1,$1+$1,$4,$5,$6,$7,0*
20,1,$1+$1,$6,$7,$8,$9,0*
20,1,$1+$1,$8,$9,$2,$3,0*%
G04 Aperture macros list end*
%TA.AperFunction,SMDPad,CuDef*%
%ADD10RoundRect,0.140000X0.170000X-0.140000X0.170000X0.140000X-0.170000X0.140000X-0.170000X-0.140000X0*%
%TD*%
%TA.AperFunction,SMDPad,CuDef*%
%ADD11RoundRect,0.250000X0.475000X-0.250000X0.475000X0.250000X-0.475000X0.250000X-0.475000X-0.250000X0*%
%TD*%
%TA.AperFunction,SMDPad,CuDef*%
%ADD12R,0.650000X1.525000*%
%TD*%
%TA.AperFunction,SMDPad,CuDef*%
%ADD13R,3.400000X2.710000*%
%TD*%
%TA.AperFunction,SMDPad,CuDef*%
%ADD14RoundRect,0.250000X-0.312500X-0.625000X0.312500X-0.625000X0.312500X0.625000X-0.312500X0.625000X0*%
%TD*%
%TA.AperFunction,SMDPad,CuDef*%
%ADD15RoundRect,0.250000X-0.475000X0.250000X-0.475000X-0.250000X0.475000X-0.250000X0.475000X0.250000X0*%
%TD*%
%TA.AperFunction,ComponentPad*%
%ADD16R,1.700000X1.700000*%
%TD*%
%TA.AperFunction,ComponentPad*%
%ADD17O,1.700000X1.700000*%
%TD*%
%TA.AperFunction,ComponentPad*%
%ADD18RoundRect,0.250000X0.725000X-0.600000X0.725000X0.600000X-0.725000X0.600000X-0.725000X-0.600000X0*%
%TD*%
%TA.AperFunction,ComponentPad*%
%ADD19O,1.950000X1.700000*%
%TD*%
%TA.AperFunction,ViaPad*%
%ADD20C,0.800000*%
%TD*%
%TA.AperFunction,Conductor*%
%ADD21C,0.250000*%
%TD*%
G04 APERTURE END LIST*
D10*
%TO.P,C1,1*%
%TO.N,VCC*%
X38087853Y-38074861D03*
%TO.P,C1,2*%
%TO.N,GND*%
X38087853Y-37114861D03*
%TD*%
D11*
%TO.P,C2,1*%
%TO.N,VCC*%
X38100000Y-33970000D03*
%TO.P,C2,2*%
%TO.N,GND*%
X38100000Y-32070000D03*
%TD*%
D12*
%TO.P,IC1,1,GND*%
%TO.N,GND*%
X31750000Y-45892000D03*
%TO.P,IC1,2,IN2*%
%TO.N,/MOTOR_FORWARD*%
X33020000Y-45892000D03*
%TO.P,IC1,3,IN1*%
%TO.N,/MOTOR_BACKWARD*%
X34290000Y-45892000D03*
%TO.P,IC1,4,VREF*%
%TO.N,+3V3*%
X35560000Y-45892000D03*
%TO.P,IC1,5,VM*%
%TO.N,VCC*%
X35560000Y-40468000D03*
%TO.P,IC1,6,OUT1*%
%TO.N,/MOTOR_F_OUT*%
X34290000Y-40468000D03*
%TO.P,IC1,7,ISEN*%
%TO.N,Net-(IC1-ISEN)*%
X33020000Y-40468000D03*
%TO.P,IC1,8,OUT2*%
%TO.N,/MOTOR_R_OUT*%
X31750000Y-40468000D03*
D13*
%TO.P,IC1,9,THERMAL_PAD*%
%TO.N,GND*%
X33655000Y-43180000D03*
%TD*%
D14*
%TO.P,R1,1*%
%TO.N,Net-(IC1-ISEN)*%
X33014084Y-36563709D03*
%TO.P,R1,2*%
%TO.N,GND*%
X35939084Y-36563709D03*
%TD*%
D15*
%TO.P,C3,1*%
%TO.N,VCC*%
X38100000Y-39690000D03*
%TO.P,C3,2*%
%TO.N,GND*%
X38100000Y-41590000D03*
%TD*%
D16*
%TO.P,J2,1,Pin_1*%
%TO.N,/MOTOR_F_OUT*%
X33020000Y-73660000D03*
D17*
%TO.P,J2,2,Pin_2*%
%TO.N,/MOTOR_R_OUT*%
X35560000Y-73660000D03*
%TD*%
D18*
%TO.P,J5,1,Pin_1*%
%TO.N,VCC*%
X35560000Y-67210000D03*
D19*
%TO.P,J5,2,Pin_2*%
%TO.N,GND*%
X35560000Y-64710000D03*
%TO.P,J5,3,Pin_3*%
%TO.N,/LED_GPIO*%
X35560000Y-62210000D03*
%TO.P,J5,4,Pin_4*%
%TO.N,/BEEPER*%
X35560000Y-59710000D03*
%TO.P,J5,5,Pin_5*%
%TO.N,/RXD*%
X35560000Y-57210000D03*
%TO.P,J5,6,Pin_6*%
%TO.N,/TXD*%
X35560000Y-54710000D03*
%TD*%
D16*
%TO.P,J1,1,3V3*%
%TO.N,+3V3*%
X40640000Y-30480000D03*
D17*
%TO.P,J1,2,5V*%
%TO.N,VCC*%
X43180000Y-30480000D03*
%TO.P,J1,3,SDA/GPIO2*%
%TO.N,unconnected-(J1-SDA{slash}GPIO2-Pad3)*%
X40640000Y-33020000D03*
%TO.P,J1,4,5V*%
%TO.N,VCC*%
X43180000Y-33020000D03*
%TO.P,J1,5,SCL/GPIO3*%
%TO.N,unconnected-(J1-SCL{slash}GPIO3-Pad5)*%
X40640000Y-35560000D03*
%TO.P,J1,6,GND*%
%TO.N,unconnected-(J1-GND-Pad6)*%
X43180000Y-35560000D03*
%TO.P,J1,7,GCLK0/GPIO4*%
%TO.N,unconnected-(J1-GCLK0{slash}GPIO4-Pad7)*%
X40640000Y-38100000D03*
%TO.P,J1,8,GPIO14/TXD*%
%TO.N,/TXD*%
X43180000Y-38100000D03*
%TO.P,J1,9,GND*%
%TO.N,unconnected-(J1-GND-Pad9)*%
X40640000Y-40640000D03*
%TO.P,J1,10,GPIO15/RXD*%
%TO.N,/RXD*%
X43180000Y-40640000D03*
%TO.P,J1,11,GPIO17*%
%TO.N,unconnected-(J1-GPIO17-Pad11)*%
X40640000Y-43180000D03*
%TO.P,J1,12,GPIO18/PWM0*%
%TO.N,/BEEPER*%
X43180000Y-43180000D03*
%TO.P,J1,13,GPIO27*%
%TO.N,/MOTOR_BACKWARD*%
X40640000Y-45720000D03*
%TO.P,J1,14,GND*%
%TO.N,unconnected-(J1-GND-Pad14)*%
X43180000Y-45720000D03*
%TO.P,J1,15,GPIO22*%
%TO.N,/MOTOR_FORWARD*%
X40640000Y-48260000D03*
%TO.P,J1,16,GPIO23*%
%TO.N,unconnected-(J1-GPIO23-Pad16)*%
X43180000Y-48260000D03*
%TO.P,J1,17,3V3*%
%TO.N,+3V3*%
X40640000Y-50800000D03*
%TO.P,J1,18,GPIO24*%
%TO.N,unconnected-(J1-GPIO24-Pad18)*%
X43180000Y-50800000D03*
%TO.P,J1,19,MOSI0/GPIO10*%
%TO.N,unconnected-(J1-MOSI0{slash}GPIO10-Pad19)*%
X40640000Y-53340000D03*
%TO.P,J1,20,GND*%
%TO.N,GND*%
X43180000Y-53340000D03*
%TO.P,J1,21,MISO0/GPIO9*%
%TO.N,unconnected-(J1-MISO0{slash}GPIO9-Pad21)*%
X40640000Y-55880000D03*
%TO.P,J1,22,GPIO25*%
%TO.N,unconnected-(J1-GPIO25-Pad22)*%
X43180000Y-55880000D03*
%TO.P,J1,23,SCLK0/GPIO11*%
%TO.N,unconnected-(J1-SCLK0{slash}GPIO11-Pad23)*%
X40640000Y-58420000D03*
%TO.P,J1,24,~{CE0}/GPIO8*%
%TO.N,unconnected-(J1-~{CE0}{slash}GPIO8-Pad24)*%
X43180000Y-58420000D03*
%TO.P,J1,25,GND*%
%TO.N,unconnected-(J1-GND-Pad25)*%
X40640000Y-60960000D03*
%TO.P,J1,26,~{CE1}/GPIO7*%
%TO.N,unconnected-(J1-~{CE1}{slash}GPIO7-Pad26)*%
X43180000Y-60960000D03*
%TO.P,J1,27,ID_SD/GPIO0*%
%TO.N,unconnected-(J1-ID_SD{slash}GPIO0-Pad27)*%
X40640000Y-63500000D03*
%TO.P,J1,28,ID_SC/GPIO1*%
%TO.N,unconnected-(J1-ID_SC{slash}GPIO1-Pad28)*%
X43180000Y-63500000D03*
%TO.P,J1,29,GCLK1/GPIO5*%
%TO.N,unconnected-(J1-GCLK1{slash}GPIO5-Pad29)*%
X40640000Y-66040000D03*
%TO.P,J1,30,GND*%
%TO.N,unconnected-(J1-GND-Pad30)*%
X43180000Y-66040000D03*
%TO.P,J1,31,GCLK2/GPIO6*%
%TO.N,/LED_GPIO*%
X40640000Y-68580000D03*
%TO.P,J1,32,PWM0/GPIO12*%
%TO.N,unconnected-(J1-PWM0{slash}GPIO12-Pad32)*%
X43180000Y-68580000D03*
%TO.P,J1,33,PWM1/GPIO13*%
%TO.N,unconnected-(J1-PWM1{slash}GPIO13-Pad33)*%
X40640000Y-71120000D03*
%TO.P,J1,34,GND*%
%TO.N,unconnected-(J1-GND-Pad34)*%
X43180000Y-71120000D03*
%TO.P,J1,35,GPIO19/MISO1*%
%TO.N,unconnected-(J1-GPIO19{slash}MISO1-Pad35)*%
X40640000Y-73660000D03*
%TO.P,J1,36,GPIO16*%
%TO.N,unconnected-(J1-GPIO16-Pad36)*%
X43180000Y-73660000D03*
%TO.P,J1,37,GPIO26*%
%TO.N,unconnected-(J1-GPIO26-Pad37)*%
X40640000Y-76200000D03*
%TO.P,J1,38,GPIO20/MOSI1*%
%TO.N,unconnected-(J1-GPIO20{slash}MOSI1-Pad38)*%
X43180000Y-76200000D03*
%TO.P,J1,39,GND*%
%TO.N,unconnected-(J1-GND-Pad39)*%
X40640000Y-78740000D03*
%TO.P,J1,40,GPIO21/SCLK1*%
%TO.N,unconnected-(J1-GPIO21{slash}SCLK1-Pad40)*%
X43180000Y-78740000D03*
%TD*%
D20*
%TO.N,/MOTOR_BACKWARD*%
X38100000Y-45720000D03*
X34322476Y-48295587D03*
%TO.N,VCC*%
X36834519Y-39251178D03*
%TO.N,/MOTOR_F_OUT*%
X30480000Y-33020000D03*
%TO.N,/MOTOR_R_OUT*%
X30480000Y-35560000D03*
%TD*%
D21*
%TO.N,/LED_GPIO*%
X41031701Y-62230000D02*
X40640000Y-62230000D01*
X40640000Y-62230000D02*
X40620000Y-62210000D01*
X41815000Y-63013299D02*
X41031701Y-62230000D01*
X41815000Y-67405000D02*
X41815000Y-63013299D01*
X40640000Y-68580000D02*
X41815000Y-67405000D01*
X40620000Y-62210000D02*
X35560000Y-62210000D01*
%TO.N,GND*%
X41815000Y-54705000D02*
X39275000Y-54705000D01*
X43180000Y-53340000D02*
X41815000Y-54705000D01*
%TO.N,/MOTOR_FORWARD*%
X40640000Y-48260000D02*
X38100000Y-50800000D01*
X38100000Y-50800000D02*
X35560000Y-50800000D01*
X33020000Y-48260000D02*
X35560000Y-50800000D01*
X33020000Y-45892000D02*
X33020000Y-48260000D01*
%TO.N,/MOTOR_BACKWARD*%
X34290000Y-48263111D02*
X34322476Y-48295587D01*
X34290000Y-45892000D02*
X34290000Y-48263111D01*
X38100000Y-45720000D02*
X40640000Y-45720000D01*
%TO.N,VCC*%
X38100000Y-39690000D02*
X37273341Y-39690000D01*
X36834519Y-39251178D02*
X36834519Y-39193481D01*
X38087853Y-39677853D02*
X38100000Y-39690000D01*
X39275000Y-29305000D02*
X39275000Y-32795000D01*
X42005000Y-29305000D02*
X39275000Y-29305000D01*
X39275000Y-32795000D02*
X38100000Y-33970000D01*
X38087853Y-38074861D02*
X38087853Y-39677853D01*
X36753000Y-39275000D02*
X36776822Y-39251178D01*
X36834519Y-39193481D02*
X35560000Y-40468000D01*
X43180000Y-30480000D02*
X42005000Y-29305000D01*
X37273341Y-39690000D02*
X36834519Y-39251178D01*
X36776822Y-39251178D02*
X36834519Y-39251178D01*
%TO.N,/MOTOR_F_OUT*%
X34290000Y-34290000D02*
X33020000Y-33020000D01*
X34295000Y-40463000D02*
X34290000Y-40468000D01*
X33020000Y-33020000D02*
X30480000Y-33020000D01*
X34290000Y-40468000D02*
X34290000Y-34290000D01*
%TO.N,Net-(IC1-ISEN)*%
X33020000Y-36569625D02*
X33020000Y-40468000D01*
X33014084Y-36563709D02*
X33020000Y-36569625D01*
%TO.N,/MOTOR_R_OUT*%
X31750000Y-36437418D02*
X30872582Y-35560000D01*
X30872582Y-35560000D02*
X30480000Y-35560000D01*
X31750000Y-40468000D02*
X31750000Y-36437418D01*
X31755000Y-40463000D02*
X31750000Y-40468000D01*
%TO.N,+3V3*%
X36753000Y-47085000D02*
X35560000Y-45892000D01*
X41126701Y-47085000D02*
X36753000Y-47085000D01*
X41815000Y-49625000D02*
X41815000Y-47773299D01*
X40640000Y-50800000D02*
X41815000Y-49625000D01*
X41815000Y-47773299D02*
X42005000Y-47583299D01*
X42005000Y-47583299D02*
X42005000Y-31845000D01*
X41815000Y-47773299D02*
X41126701Y-47085000D01*
X42005000Y-31845000D02*
X40640000Y-30480000D01*
%TD*%
%TA.AperFunction,Conductor*%
%TO.N,GND*%
G36*
X41995160Y-54006110D02*
G01*
X42011879Y-54025405D01*
X42141890Y-54211078D01*
X42308917Y-54378105D01*
X42494595Y-54508119D01*
X42538219Y-54562696D01*
X42545412Y-54632195D01*
X42513890Y-54694549D01*
X42494595Y-54711269D01*
X42308594Y-54841508D01*
X42141505Y-55008597D01*
X42011575Y-55194158D01*
X41956998Y-55237783D01*
X41887500Y-55244977D01*
X41825145Y-55213454D01*
X41808425Y-55194158D01*
X41678494Y-55008597D01*
X41511402Y-54841506D01*
X41511396Y-54841501D01*
X41325842Y-54711575D01*
X41282217Y-54656998D01*
X41275023Y-54587500D01*
X41306546Y-54525145D01*
X41325842Y-54508425D01*
X41489600Y-54393760D01*
X41511401Y-54378495D01*
X41678495Y-54211401D01*
X41808730Y-54025405D01*
X41863307Y-53981781D01*
X41932805Y-53974587D01*
X41995160Y-54006110D01*
G37*
%TD.AperFunction*%
%TA.AperFunction,Conductor*%
G36*
X45663039Y-25419685D02*
G01*
X45708794Y-25472489D01*
X45720000Y-25524000D01*
X45720000Y-81156000D01*
X45700315Y-81223039D01*
X45647511Y-81268794D01*
X45596000Y-81280000D01*
X28064000Y-81280000D01*
X27996961Y-81260315D01*
X27951206Y-81207511D01*
X27940000Y-81156000D01*
X27940000Y-72762135D01*
X31669500Y-72762135D01*
X31669500Y-74557870D01*
X31669501Y-74557876D01*
X31675908Y-74617483D01*
X31726202Y-74752328D01*
X31726206Y-74752335D01*
X31812452Y-74867544D01*
X31812455Y-74867547D01*
X31927664Y-74953793D01*
X31927671Y-74953797D01*
X32062517Y-75004091D01*
X32062516Y-75004091D01*
X32069444Y-75004835D01*
X32122127Y-75010500D01*
X33917872Y-75010499D01*
X33977483Y-75004091D01*
X34112331Y-74953796D01*
X34227546Y-74867546D01*
X34313796Y-74752331D01*
X34362810Y-74620916D01*
X34404681Y-74564984D01*
X34470145Y-74540566D01*
X34538418Y-74555417D01*
X34566673Y-74576569D01*
X34688599Y-74698495D01*
X34785384Y-74766265D01*
X34882165Y-74834032D01*
X34882167Y-74834033D01*
X34882170Y-74834035D01*
X35096337Y-74933903D01*
X35324592Y-74995063D01*
X35501034Y-75010500D01*
X35559999Y-75015659D01*
X35560000Y-75015659D01*
X35560001Y-75015659D01*
X35618966Y-75010500D01*
X35795408Y-74995063D01*
X36023663Y-74933903D01*
X36237830Y-74834035D01*
X36431401Y-74698495D01*
X36598495Y-74531401D01*
X36734035Y-74337830D01*
X36833903Y-74123663D01*
X36895063Y-73895408D01*
X36915659Y-73660000D01*
X36895063Y-73424592D01*
X36833903Y-73196337D01*
X36734035Y-72982171D01*
X36728425Y-72974158D01*
X36598494Y-72788597D01*
X36431402Y-72621506D01*
X36431395Y-72621501D01*
X36237834Y-72485967D01*
X36237830Y-72485965D01*
X36237828Y-72485964D01*
X36023663Y-72386097D01*
X36023659Y-72386096D01*
X36023655Y-72386094D01*
X35795413Y-72324938D01*
X35795403Y-72324936D01*
X35560001Y-72304341D01*
X35559999Y-72304341D01*
X35324596Y-72324936D01*
X35324586Y-72324938D01*
X35096344Y-72386094D01*
X35096335Y-72386098D01*
X34882171Y-72485964D01*
X34882169Y-72485965D01*
X34688600Y-72621503D01*
X34566673Y-72743430D01*
X34505350Y-72776914D01*
X34435658Y-72771930D01*
X34379725Y-72730058D01*
X34362810Y-72699081D01*
X34313797Y-72567671D01*
X34313793Y-72567664D01*
X34227547Y-72452455D01*
X34227544Y-72452452D01*
X34112335Y-72366206D01*
X34112328Y-72366202D01*
X33977482Y-72315908D01*
X33977483Y-72315908D01*
X33917883Y-72309501D01*
X33917881Y-72309500D01*
X33917873Y-72309500D01*
X33917864Y-72309500D01*
X32122129Y-72309500D01*
X32122123Y-72309501D01*
X32062516Y-72315908D01*
X31927671Y-72366202D01*
X31927664Y-72366206D01*
X31812455Y-72452452D01*
X31812452Y-72452455D01*
X31726206Y-72567664D01*
X31726202Y-72567671D01*
X31675908Y-72702517D01*
X31669501Y-72762116D01*
X31669500Y-72762135D01*
X27940000Y-72762135D01*
X27940000Y-46702344D01*
X30925000Y-46702344D01*
X30931401Y-46761872D01*
X30931403Y-46761879D01*
X30981645Y-46896586D01*
X30981649Y-46896593D01*
X31067809Y-47011687D01*
X31067812Y-47011690D01*
X31182906Y-47097850D01*
X31182913Y-47097854D01*
X31317620Y-47148096D01*
X31317627Y-47148098D01*
X31377155Y-47154499D01*
X31377172Y-47154500D01*
X31500000Y-47154500D01*
X31500000Y-46142000D01*
X30925000Y-46142000D01*
X30925000Y-46702344D01*
X27940000Y-46702344D01*
X27940000Y-33020000D01*
X29574540Y-33020000D01*
X29594326Y-33208256D01*
X29594327Y-33208259D01*
X29652818Y-33388277D01*
X29652821Y-33388284D01*
X29747467Y-33552216D01*
X29853513Y-33669992D01*
X29874129Y-33692888D01*
X30027265Y-33804148D01*
X30027270Y-33804151D01*
X30200192Y-33881142D01*
X30200197Y-33881144D01*
X30385354Y-33920500D01*
X30385355Y-33920500D01*
X30574644Y-33920500D01*
X30574646Y-33920500D01*
X30759803Y-33881144D01*
X30932730Y-33804151D01*
X31085871Y-33692888D01*
X31088788Y-33689647D01*
X31091600Y-33686526D01*
X31151087Y-33649879D01*
X31183748Y-33645500D01*
X32709548Y-33645500D01*
X32776587Y-33665185D01*
X32797229Y-33681819D01*
X33628181Y-34512771D01*
X33661666Y-34574094D01*
X33664500Y-34600452D01*
X33664500Y-35088332D01*
X33644815Y-35155371D01*
X33592011Y-35201126D01*
X33522853Y-35211070D01*
X33501498Y-35206039D01*
X33479378Y-35198709D01*
X33479379Y-35198709D01*
X33376594Y-35188209D01*
X32651582Y-35188209D01*
X32651564Y-35188210D01*
X32548787Y-35198709D01*
X32548784Y-35198710D01*
X32382252Y-35253894D01*
X32382247Y-35253896D01*
X32232926Y-35345998D01*
X32108872Y-35470052D01*
X32108869Y-35470056D01*
X32022713Y-35609737D01*
X31970765Y-35656462D01*
X31901803Y-35667683D01*
X31837721Y-35639840D01*
X31829494Y-35632321D01*
X31365510Y-35168338D01*
X31365507Y-35168334D01*
X31365507Y-35168335D01*
X31358440Y-35161268D01*
X31358440Y-35161267D01*
X31271315Y-35074142D01*
X31271314Y-35074141D01*
X31271313Y-35074140D01*
X31240942Y-35053847D01*
X31217905Y-35031692D01*
X31216882Y-35032614D01*
X31085870Y-34887111D01*
X30932734Y-34775851D01*
X30932729Y-34775848D01*
X30759807Y-34698857D01*
X30759802Y-34698855D01*
X30614001Y-34667865D01*
X30574646Y-34659500D01*
X30385354Y-34659500D01*
X30352897Y-34666398D01*
X30200197Y-34698855D01*
X30200192Y-34698857D01*
X30027270Y-34775848D01*
X30027265Y-34775851D01*
X29874129Y-34887111D01*
X29747466Y-35027785D01*
X29652821Y-35191715D01*
X29652818Y-35191722D01*
X29602691Y-35345998D01*
X29594326Y-35371744D01*
X29574540Y-35560000D01*
X29594326Y-35748256D01*
X29594327Y-35748259D01*
X29652818Y-35928277D01*
X29652821Y-35928284D01*
X29747467Y-36092216D01*
X29874129Y-36232888D01*
X30027265Y-36344148D01*
X30027270Y-36344151D01*
X30200192Y-36421142D01*
X30200197Y-36421144D01*
X30385354Y-36460500D01*
X30385355Y-36460500D01*
X30574644Y-36460500D01*
X30574646Y-36460500D01*
X30702723Y-36433276D01*
X30766160Y-36419793D01*
X30766713Y-36422395D01*
X30824726Y-36420702D01*
X30880958Y-36452967D01*
X31088181Y-36660189D01*
X31121666Y-36721512D01*
X31124500Y-36747870D01*
X31124500Y-39243179D01*
X31104815Y-39310218D01*
X31074813Y-39342444D01*
X31067459Y-39347949D01*
X31067451Y-39347957D01*
X30981206Y-39463164D01*
X30981202Y-39463171D01*
X30930908Y-39598017D01*
X30924501Y-39657616D01*
X30924500Y-39657635D01*
X30924500Y-41278370D01*
X30924501Y-41278376D01*
X30930908Y-41337983D01*
X30981202Y-41472828D01*
X30981206Y-41472835D01*
X31067452Y-41588044D01*
X31067455Y-41588047D01*
X31182664Y-41674293D01*
X31182671Y-41674297D01*
X31317517Y-41724591D01*
X31317516Y-41724591D01*
X31344255Y-41727466D01*
X31408807Y-41754204D01*
X31448655Y-41811596D01*
X31455000Y-41850755D01*
X31455000Y-42930000D01*
X35855000Y-42930000D01*
X35855000Y-41889986D01*
X36875001Y-41889986D01*
X36885494Y-41992697D01*
X36940641Y-42159119D01*
X36940643Y-42159124D01*
X37032684Y-42308345D01*
X37156654Y-42432315D01*
X37305875Y-42524356D01*
X37305880Y-42524358D01*
X37472302Y-42579505D01*
X37472309Y-42579506D01*
X37575019Y-42589999D01*
X37849999Y-42589999D01*
X38350000Y-42589999D01*
X38624972Y-42589999D01*
X38624986Y-42589998D01*
X38727697Y-42579505D01*
X38894119Y-42524358D01*
X38894124Y-42524356D01*
X39043345Y-42432315D01*
X39167315Y-42308345D01*
X39259356Y-42159124D01*
X39259358Y-42159119D01*
X39314505Y-41992697D01*
X39314506Y-41992690D01*
X39324999Y-41889986D01*
X39325000Y-41889973D01*
X39325000Y-41840000D01*
X38350000Y-41840000D01*
X38350000Y-42589999D01*
X37849999Y-42589999D01*
X37850000Y-42589998D01*
X37850000Y-41840000D01*
X36875001Y-41840000D01*
X36875001Y-41889986D01*
X35855000Y-41889986D01*
X35855000Y-41850755D01*
X35874685Y-41783716D01*
X35927489Y-41737961D01*
X35965747Y-41727465D01*
X35992483Y-41724591D01*
X36127328Y-41674297D01*
X36127327Y-41674297D01*
X36127331Y-41674296D01*
X36242546Y-41588046D01*
X36328796Y-41472831D01*
X36379091Y-41337983D01*
X36385500Y-41278373D01*
X36385499Y-40578451D01*
X36405183Y-40511413D01*
X36421818Y-40490771D01*
X36508003Y-40404586D01*
X36720000Y-40192588D01*
X36781322Y-40159105D01*
X36851014Y-40164089D01*
X36876569Y-40177168D01*
X36886988Y-40184130D01*
X36887895Y-40184736D01*
X36932698Y-40238351D01*
X36936703Y-40248824D01*
X36940186Y-40259334D01*
X37032288Y-40408656D01*
X37156344Y-40532712D01*
X37159628Y-40534737D01*
X37159653Y-40534753D01*
X37161445Y-40536746D01*
X37162011Y-40537193D01*
X37161934Y-40537289D01*
X37206379Y-40586699D01*
X37217603Y-40655661D01*
X37189761Y-40719744D01*
X37159665Y-40745826D01*
X37156660Y-40747679D01*
X37156655Y-40747683D01*
X37032684Y-40871654D01*
X36940643Y-41020875D01*
X36940641Y-41020880D01*
X36885494Y-41187302D01*
X36885493Y-41187309D01*
X36875000Y-41290013D01*
X36875000Y-41340000D01*
X39335350Y-41340000D01*
X39373866Y-41318967D01*
X39443558Y-41323950D01*
X39499493Y-41365820D01*
X39501802Y-41369010D01*
X39601501Y-41511396D01*
X39601506Y-41511402D01*
X39768597Y-41678493D01*
X39768603Y-41678498D01*
X39954158Y-41808425D01*
X39997783Y-41863002D01*
X40004977Y-41932500D01*
X39973454Y-41994855D01*
X39954158Y-42011575D01*
X39768597Y-42141505D01*
X39601505Y-42308597D01*
X39465965Y-42502169D01*
X39465964Y-42502171D01*
X39366098Y-42716335D01*
X39366094Y-42716344D01*
X39304938Y-42944586D01*
X39304936Y-42944596D01*
X39284341Y-43179999D01*
X39284341Y-43180000D01*
X39304936Y-43415403D01*
X39304938Y-43415413D01*
X39366094Y-43643655D01*
X39366096Y-43643659D01*
X39366097Y-43643663D01*
X39465965Y-43857830D01*
X39465967Y-43857834D01*
X39601501Y-44051395D01*
X39601506Y-44051402D01*
X39768597Y-44218493D01*
X39768603Y-44218498D01*
X39954158Y-44348425D01*
X39997783Y-44403002D01*
X40004977Y-44472500D01*
X39973454Y-44534855D01*
X39954158Y-44551575D01*
X39768597Y-44681505D01*
X39601505Y-44848597D01*
X39466348Y-45041623D01*
X39411771Y-45085248D01*
X39364773Y-45094500D01*
X38803748Y-45094500D01*
X38736709Y-45074815D01*
X38711600Y-45053474D01*
X38705873Y-45047114D01*
X38705869Y-45047110D01*
X38552734Y-44935851D01*
X38552729Y-44935848D01*
X38379807Y-44858857D01*
X38379802Y-44858855D01*
X38234001Y-44827865D01*
X38194646Y-44819500D01*
X38005354Y-44819500D01*
X37972897Y-44826398D01*
X37820197Y-44858855D01*
X37820192Y-44858857D01*
X37647270Y-44935848D01*
X37647265Y-44935851D01*
X37494129Y-45047111D01*
X37367466Y-45187785D01*
X37272821Y-45351715D01*
X37272818Y-45351722D01*
X37229645Y-45484596D01*
X37214326Y-45531744D01*
X37194540Y-45720000D01*
X37214326Y-45908256D01*
X37214327Y-45908259D01*
X37272818Y-46088277D01*
X37272821Y-46088284D01*
X37367467Y-46252216D01*
X37367748Y-46252528D01*
X37367854Y-46252748D01*
X37371285Y-46257471D01*
X37370421Y-46258098D01*
X37397978Y-46315519D01*
X37389353Y-46384854D01*
X37344612Y-46438520D01*
X37277959Y-46459478D01*
X37275598Y-46459500D01*
X37063452Y-46459500D01*
X36996413Y-46439815D01*
X36975771Y-46423181D01*
X36421818Y-45869228D01*
X36388333Y-45807905D01*
X36385499Y-45781547D01*
X36385499Y-45081629D01*
X36385498Y-45081623D01*
X36384766Y-45074815D01*
X36379091Y-45022017D01*
X36346952Y-44935849D01*
X36328797Y-44887171D01*
X36328793Y-44887164D01*
X36242547Y-44771955D01*
X36242544Y-44771952D01*
X36127335Y-44685706D01*
X36127328Y-44685702D01*
X35992482Y-44635408D01*
X35992483Y-44635408D01*
X35965745Y-44632534D01*
X35901193Y-44605796D01*
X35861345Y-44548404D01*
X35855000Y-44509245D01*
X35855000Y-43430000D01*
X31455000Y-43430000D01*
X31455000Y-44509749D01*
X31435315Y-44576788D01*
X31382511Y-44622543D01*
X31344258Y-44633038D01*
X31317626Y-44635901D01*
X31317620Y-44635903D01*
X31182913Y-44686145D01*
X31182906Y-44686149D01*
X31067812Y-44772309D01*
X31067809Y-44772312D01*
X30981649Y-44887406D01*
X30981645Y-44887413D01*
X30931403Y-45022120D01*
X30931401Y-45022127D01*
X30925000Y-45081655D01*
X30925000Y-45642000D01*
X31626000Y-45642000D01*
X31693039Y-45661685D01*
X31738794Y-45714489D01*
X31750000Y-45766000D01*
X31750000Y-45892000D01*
X31876000Y-45892000D01*
X31943039Y-45911685D01*
X31988794Y-45964489D01*
X32000000Y-46016000D01*
X32000000Y-47154500D01*
X32122828Y-47154500D01*
X32122844Y-47154499D01*
X32182372Y-47148098D01*
X32182377Y-47148097D01*
X32227164Y-47131392D01*
X32296856Y-47126406D01*
X32358180Y-47159890D01*
X32391666Y-47221213D01*
X32394500Y-47247573D01*
X32394500Y-48321610D01*
X32418536Y-48442450D01*
X32419827Y-48445565D01*
X32419831Y-48445576D01*
X32465685Y-48556280D01*
X32465690Y-48556289D01*
X32499914Y-48607507D01*
X32499915Y-48607509D01*
X32534140Y-48658731D01*
X32534141Y-48658732D01*
X32534142Y-48658733D01*
X32621267Y-48745858D01*
X32621268Y-48745858D01*
X32628335Y-48752925D01*
X32628334Y-48752925D01*
X32628338Y-48752928D01*
X35161262Y-51285854D01*
X35161265Y-51285857D01*
X35212490Y-51320084D01*
X35263714Y-51354311D01*
X35377548Y-51401463D01*
X35498388Y-51425499D01*
X35498392Y-51425500D01*
X35498393Y-51425500D01*
X38161607Y-51425500D01*
X38222029Y-51413481D01*
X38282452Y-51401463D01*
X38282455Y-51401461D01*
X38282458Y-51401461D01*
X38315787Y-51387654D01*
X38315786Y-51387654D01*
X38315792Y-51387652D01*
X38396286Y-51354312D01*
X38447509Y-51320084D01*
X38498733Y-51285858D01*
X38585858Y-51198733D01*
X38585858Y-51198731D01*
X38596066Y-51188524D01*
X38596067Y-51188521D01*
X39072661Y-50711928D01*
X39133983Y-50678444D01*
X39203675Y-50683428D01*
X39259608Y-50725300D01*
X39284025Y-50790764D01*
X39284341Y-50799610D01*
X39284341Y-50800000D01*
X39304936Y-51035403D01*
X39304938Y-51035413D01*
X39366094Y-51263655D01*
X39366096Y-51263659D01*
X39366097Y-51263663D01*
X39441563Y-51425499D01*
X39465965Y-51477830D01*
X39465967Y-51477834D01*
X39574281Y-51632521D01*
X39601501Y-51671396D01*
X39601506Y-51671402D01*
X39768597Y-51838493D01*
X39768603Y-51838498D01*
X39954158Y-51968425D01*
X39997783Y-52023002D01*
X40004977Y-52092500D01*
X39973454Y-52154855D01*
X39954158Y-52171575D01*
X39768597Y-52301505D01*
X39601505Y-52468597D01*
X39465965Y-52662169D01*
X39465964Y-52662171D01*
X39366098Y-52876335D01*
X39366094Y-52876344D01*
X39304938Y-53104586D01*
X39304936Y-53104596D01*
X39284341Y-53339999D01*
X39284341Y-53340000D01*
X39304936Y-53575403D01*
X39304938Y-53575413D01*
X39366094Y-53803655D01*
X39366096Y-53803659D01*
X39366097Y-53803663D01*
X39449155Y-53981781D01*
X39465965Y-54017830D01*
X39465967Y-54017834D01*
X39574281Y-54172521D01*
X39601501Y-54211396D01*
X39601506Y-54211402D01*
X39768597Y-54378493D01*
X39768603Y-54378498D01*
X39954158Y-54508425D01*
X39997783Y-54563002D01*
X40004977Y-54632500D01*
X39973454Y-54694855D01*
X39954158Y-54711575D01*
X39768597Y-54841505D01*
X39601505Y-55008597D01*
X39465965Y-55202169D01*
X39465964Y-55202171D01*
X39366098Y-55416335D01*
X39366094Y-55416344D01*
X39304938Y-55644586D01*
X39304936Y-55644596D01*
X39284341Y-55879999D01*
X39284341Y-55880000D01*
X39304936Y-56115403D01*
X39304938Y-56115413D01*
X39366094Y-56343655D01*
X39366096Y-56343659D01*
X39366097Y-56343663D01*
X39440017Y-56502184D01*
X39465965Y-56557830D01*
X39465967Y-56557834D01*
X39559621Y-56691585D01*
X39601501Y-56751396D01*
X39601506Y-56751402D01*
X39768597Y-56918493D01*
X39768603Y-56918498D01*
X39954158Y-57048425D01*
X39997783Y-57103002D01*
X40004977Y-57172500D01*
X39973454Y-57234855D01*
X39954158Y-57251575D01*
X39768597Y-57381505D01*
X39601505Y-57548597D01*
X39465965Y-57742169D01*
X39465964Y-57742171D01*
X39366098Y-57956335D01*
X39366094Y-57956344D01*
X39304938Y-58184586D01*
X39304936Y-58184596D01*
X39284341Y-58419999D01*
X39284341Y-58420000D01*
X39304936Y-58655403D01*
X39304938Y-58655413D01*
X39366094Y-58883655D01*
X39366096Y-58883659D01*
X39366097Y-58883663D01*
X39446004Y-59055023D01*
X39465965Y-59097830D01*
X39465967Y-59097834D01*
X39531613Y-59191585D01*
X39601501Y-59291396D01*
X39601506Y-59291402D01*
X39768597Y-59458493D01*
X39768603Y-59458498D01*
X39954158Y-59588425D01*
X39997783Y-59643002D01*
X40004977Y-59712500D01*
X39973454Y-59774855D01*
X39954158Y-59791575D01*
X39768597Y-59921505D01*
X39601505Y-60088597D01*
X39465965Y-60282169D01*
X39465964Y-60282171D01*
X39366098Y-60496335D01*
X39366094Y-60496344D01*
X39304938Y-60724586D01*
X39304936Y-60724596D01*
X39284341Y-60959999D01*
X39284341Y-60960000D01*
X39304936Y-61195403D01*
X39304938Y-61195413D01*
X39367368Y-61428407D01*
X39365705Y-61498257D01*
X39326542Y-61556119D01*
X39262314Y-61583623D01*
X39247593Y-61584500D01*
X36957981Y-61584500D01*
X36890942Y-61564815D01*
X36847497Y-61516797D01*
X36840049Y-61502180D01*
X36715109Y-61330213D01*
X36564792Y-61179896D01*
X36564784Y-61179890D01*
X36400204Y-61060316D01*
X36357540Y-61004989D01*
X36351561Y-60935376D01*
X36384166Y-60873580D01*
X36400199Y-60859686D01*
X36564792Y-60740104D01*
X36715104Y-60589792D01*
X36715106Y-60589788D01*
X36715109Y-60589786D01*
X36840048Y-60417820D01*
X36840047Y-60417820D01*
X36840051Y-60417816D01*
X36936557Y-60228412D01*
X37002246Y-60026243D01*
X37035500Y-59816287D01*
X37035500Y-59603713D01*
X37002246Y-59393757D01*
X36936557Y-59191588D01*
X36840051Y-59002184D01*
X36840049Y-59002181D01*
X36840048Y-59002179D01*
X36715109Y-58830213D01*
X36564792Y-58679896D01*
X36531080Y-58655403D01*
X36400204Y-58560316D01*
X36357540Y-58504989D01*
X36351561Y-58435376D01*
X36384166Y-58373580D01*
X36400199Y-58359686D01*
X36564792Y-58240104D01*
X36715104Y-58089792D01*
X36715106Y-58089788D01*
X36715109Y-58089786D01*
X36840048Y-57917820D01*
X36840047Y-57917820D01*
X36840051Y-57917816D01*
X36936557Y-57728412D01*
X37002246Y-57526243D01*
X37035500Y-57316287D01*
X37035500Y-57103713D01*
X37002246Y-56893757D01*
X36936557Y-56691588D01*
X36840051Y-56502184D01*
X36840049Y-56502181D01*
X36840048Y-56502179D01*
X36715109Y-56330213D01*
X36564792Y-56179896D01*
X36564784Y-56179890D01*
X36400204Y-56060316D01*
X36357540Y-56004989D01*
X36351561Y-55935376D01*
X36384166Y-55873580D01*
X36400199Y-55859686D01*
X36564792Y-55740104D01*
X36715104Y-55589792D01*
X36715106Y-55589788D01*
X36715109Y-55589786D01*
X36840048Y-55417820D01*
X36840047Y-55417820D01*
X36840051Y-55417816D01*
X36936557Y-55228412D01*
X37002246Y-55026243D01*
X37035500Y-54816287D01*
X37035500Y-54603713D01*
X37002246Y-54393757D01*
X36936557Y-54191588D01*
X36840051Y-54002184D01*
X36840049Y-54002181D01*
X36840048Y-54002179D01*
X36715109Y-53830213D01*
X36564786Y-53679890D01*
X36392820Y-53554951D01*
X36203414Y-53458444D01*
X36203413Y-53458443D01*
X36203412Y-53458443D01*
X36001243Y-53392754D01*
X36001241Y-53392753D01*
X36001240Y-53392753D01*
X35839957Y-53367208D01*
X35791287Y-53359500D01*
X35328713Y-53359500D01*
X35280042Y-53367208D01*
X35118760Y-53392753D01*
X34916585Y-53458444D01*
X34727179Y-53554951D01*
X34555213Y-53679890D01*
X34404890Y-53830213D01*
X34279951Y-54002179D01*
X34183444Y-54191585D01*
X34117753Y-54393760D01*
X34084500Y-54603713D01*
X34084500Y-54816286D01*
X34117753Y-55026239D01*
X34183444Y-55228414D01*
X34279951Y-55417820D01*
X34404890Y-55589786D01*
X34555209Y-55740105D01*
X34555214Y-55740109D01*
X34719793Y-55859682D01*
X34762459Y-55915011D01*
X34768438Y-55984625D01*
X34735833Y-56046420D01*
X34719793Y-56060318D01*
X34555214Y-56179890D01*
X34555209Y-56179894D01*
X34404890Y-56330213D01*
X34279951Y-56502179D01*
X34183444Y-56691585D01*
X34117753Y-56893760D01*
X34113835Y-56918498D01*
X34084500Y-57103713D01*
X34084500Y-57316287D01*
X34117754Y-57526243D01*
X34125017Y-57548597D01*
X34183444Y-57728414D01*
X34279951Y-57917820D01*
X34404890Y-58089786D01*
X34555209Y-58240105D01*
X34555214Y-58240109D01*
X34719793Y-58359682D01*
X34762459Y-58415011D01*
X34768438Y-58484625D01*
X34735833Y-58546420D01*
X34719793Y-58560318D01*
X34555214Y-58679890D01*
X34555209Y-58679894D01*
X34404890Y-58830213D01*
X34279951Y-59002179D01*
X34183444Y-59191585D01*
X34117753Y-59393760D01*
X34084500Y-59603713D01*
X34084500Y-59816286D01*
X34117753Y-60026239D01*
X34183444Y-60228414D01*
X34279951Y-60417820D01*
X34404890Y-60589786D01*
X34555209Y-60740105D01*
X34555214Y-60740109D01*
X34719793Y-60859682D01*
X34762459Y-60915011D01*
X34768438Y-60984625D01*
X34735833Y-61046420D01*
X34719793Y-61060318D01*
X34555214Y-61179890D01*
X34555209Y-61179894D01*
X34404890Y-61330213D01*
X34279951Y-61502179D01*
X34183444Y-61691585D01*
X34117753Y-61893760D01*
X34101056Y-61999181D01*
X34084500Y-62103713D01*
X34084500Y-62316287D01*
X34094534Y-62379644D01*
X34111989Y-62489849D01*
X34117754Y-62526243D01*
X34122843Y-62541906D01*
X34183444Y-62728414D01*
X34279951Y-62917820D01*
X34404890Y-63089786D01*
X34555209Y-63240105D01*
X34555214Y-63240109D01*
X34720218Y-63359991D01*
X34762884Y-63415320D01*
X34768863Y-63484934D01*
X34736258Y-63546729D01*
X34720218Y-63560627D01*
X34555540Y-63680272D01*
X34555535Y-63680276D01*
X34405276Y-63830535D01*
X34405272Y-63830540D01*
X34280379Y-64002442D01*
X34183904Y-64191782D01*
X34118242Y-64393870D01*
X34118242Y-64393873D01*
X34107769Y-64460000D01*
X35155854Y-64460000D01*
X35117370Y-64526657D01*
X35085000Y-64647465D01*
X35085000Y-64772535D01*
X35117370Y-64893343D01*
X35155854Y-64960000D01*
X34107769Y-64960000D01*
X34118242Y-65026126D01*
X34118242Y-65026129D01*
X34183904Y-65228217D01*
X34280379Y-65417557D01*
X34405272Y-65589459D01*
X34405276Y-65589464D01*
X34544143Y-65728331D01*
X34577628Y-65789654D01*
X34572644Y-65859346D01*
X34530772Y-65915279D01*
X34521559Y-65921551D01*
X34366342Y-66017289D01*
X34242289Y-66141342D01*
X34150187Y-66290663D01*
X34150186Y-66290666D01*
X34095001Y-66457203D01*
X34095001Y-66457204D01*
X34095000Y-66457204D01*
X34084500Y-66559983D01*
X34084500Y-67860001D01*
X34084501Y-67860018D01*
X34095000Y-67962796D01*
X34095001Y-67962799D01*
X34150185Y-68129331D01*
X34150186Y-68129334D01*
X34242288Y-68278656D01*
X34366344Y-68402712D01*
X34515666Y-68494814D01*
X34682203Y-68549999D01*
X34784991Y-68560500D01*
X36335008Y-68560499D01*
X36437797Y-68549999D01*
X36604334Y-68494814D01*
X36753656Y-68402712D01*
X36877712Y-68278656D01*
X36969814Y-68129334D01*
X37024999Y-67962797D01*
X37035500Y-67860009D01*
X37035499Y-66559992D01*
X37024999Y-66457203D01*
X36969814Y-66290666D01*
X36877712Y-66141344D01*
X36753656Y-66017288D01*
X36604334Y-65925186D01*
X36604332Y-65925185D01*
X36598440Y-65921551D01*
X36551716Y-65869603D01*
X36540493Y-65800641D01*
X36568337Y-65736558D01*
X36575856Y-65728330D01*
X36714728Y-65589458D01*
X36839620Y-65417557D01*
X36936095Y-65228217D01*
X37001757Y-65026129D01*
X37001757Y-65026126D01*
X37012231Y-64960000D01*
X35964146Y-64960000D01*
X36002630Y-64893343D01*
X36035000Y-64772535D01*
X36035000Y-64647465D01*
X36002630Y-64526657D01*
X35964146Y-64460000D01*
X37012231Y-64460000D01*
X37001757Y-64393873D01*
X37001757Y-64393870D01*
X36936095Y-64191782D01*
X36839620Y-64002442D01*
X36714727Y-63830540D01*
X36714723Y-63830535D01*
X36564464Y-63680276D01*
X36564459Y-63680272D01*
X36399781Y-63560627D01*
X36357115Y-63505297D01*
X36351136Y-63435684D01*
X36383741Y-63373889D01*
X36399776Y-63359994D01*
X36564792Y-63240104D01*
X36715104Y-63089792D01*
X36715106Y-63089788D01*
X36715109Y-63089786D01*
X36840049Y-62917819D01*
X36847497Y-62903203D01*
X36895473Y-62852408D01*
X36957981Y-62835500D01*
X39265108Y-62835500D01*
X39332147Y-62855185D01*
X39377902Y-62907989D01*
X39387846Y-62977147D01*
X39377490Y-63011905D01*
X39366098Y-63036335D01*
X39366094Y-63036344D01*
X39304938Y-63264586D01*
X39304936Y-63264596D01*
X39284341Y-63499999D01*
X39284341Y-63500000D01*
X39304936Y-63735403D01*
X39304938Y-63735413D01*
X39366094Y-63963655D01*
X39366096Y-63963659D01*
X39366097Y-63963663D01*
X39384180Y-64002442D01*
X39465965Y-64177830D01*
X39465967Y-64177834D01*
X39601501Y-64371395D01*
X39601506Y-64371402D01*
X39768597Y-64538493D01*
X39768603Y-64538498D01*
X39954158Y-64668425D01*
X39997783Y-64723002D01*
X40004977Y-64792500D01*
X39973454Y-64854855D01*
X39954158Y-64871575D01*
X39768597Y-65001505D01*
X39601505Y-65168597D01*
X39465965Y-65362169D01*
X39465964Y-65362171D01*
X39366098Y-65576335D01*
X39366094Y-65576344D01*
X39304938Y-65804586D01*
X39304936Y-65804596D01*
X39284341Y-66039999D01*
X39284341Y-66040000D01*
X39304936Y-66275403D01*
X39304938Y-66275413D01*
X39366094Y-66503655D01*
X39366096Y-66503659D01*
X39366097Y-66503663D01*
X39392364Y-66559992D01*
X39465965Y-66717830D01*
X39465967Y-66717834D01*
X39601501Y-66911395D01*
X39601506Y-66911402D01*
X39768597Y-67078493D01*
X39768603Y-67078498D01*
X39954158Y-67208425D01*
X39997783Y-67263002D01*
X40004977Y-67332500D01*
X39973454Y-67394855D01*
X39954158Y-67411575D01*
X39768597Y-67541505D01*
X39601505Y-67708597D01*
X39465965Y-67902169D01*
X39465964Y-67902171D01*
X39366098Y-68116335D01*
X39366094Y-68116344D01*
X39304938Y-68344586D01*
X39304936Y-68344596D01*
X39284341Y-68579999D01*
X39284341Y-68580000D01*
X39304936Y-68815403D01*
X39304938Y-68815413D01*
X39366094Y-69043655D01*
X39366096Y-69043659D01*
X39366097Y-69043663D01*
X39370000Y-69052032D01*
X39465965Y-69257830D01*
X39465967Y-69257834D01*
X39574281Y-69412521D01*
X39601501Y-69451396D01*
X39601506Y-69451402D01*
X39768597Y-69618493D01*
X39768603Y-69618498D01*
X39954158Y-69748425D01*
X39997783Y-69803002D01*
X40004977Y-69872500D01*
X39973454Y-69934855D01*
X39954158Y-69951575D01*
X39768597Y-70081505D01*
X39601505Y-70248597D01*
X39465965Y-70442169D01*
X39465964Y-70442171D01*
X39366098Y-70656335D01*
X39366094Y-70656344D01*
X39304938Y-70884586D01*
X39304936Y-70884596D01*
X39284341Y-71119999D01*
X39284341Y-71120000D01*
X39304936Y-71355403D01*
X39304938Y-71355413D01*
X39366094Y-71583655D01*
X39366096Y-71583659D01*
X39366097Y-71583663D01*
X39370000Y-71592032D01*
X39465965Y-71797830D01*
X39465967Y-71797834D01*
X39574281Y-71952521D01*
X39601501Y-71991396D01*
X39601506Y-71991402D01*
X39768597Y-72158493D01*
X39768603Y-72158498D01*
X39954158Y-72288425D01*
X39997783Y-72343002D01*
X40004977Y-72412500D01*
X39973454Y-72474855D01*
X39954158Y-72491575D01*
X39768597Y-72621505D01*
X39601505Y-72788597D01*
X39465965Y-72982169D01*
X39465964Y-72982171D01*
X39366098Y-73196335D01*
X39366094Y-73196344D01*
X39304938Y-73424586D01*
X39304936Y-73424596D01*
X39284341Y-73659999D01*
X39284341Y-73660000D01*
X39304936Y-73895403D01*
X39304938Y-73895413D01*
X39366094Y-74123655D01*
X39366096Y-74123659D01*
X39366097Y-74123663D01*
X39370000Y-74132032D01*
X39465965Y-74337830D01*
X39465967Y-74337834D01*
X39574281Y-74492521D01*
X39601501Y-74531396D01*
X39601506Y-74531402D01*
X39768597Y-74698493D01*
X39768603Y-74698498D01*
X39954158Y-74828425D01*
X39997783Y-74883002D01*
X40004977Y-74952500D01*
X39973454Y-75014855D01*
X39954158Y-75031575D01*
X39768597Y-75161505D01*
X39601505Y-75328597D01*
X39465965Y-75522169D01*
X39465964Y-75522171D01*
X39366098Y-75736335D01*
X39366094Y-75736344D01*
X39304938Y-75964586D01*
X39304936Y-75964596D01*
X39284341Y-76199999D01*
X39284341Y-76200000D01*
X39304936Y-76435403D01*
X39304938Y-76435413D01*
X39366094Y-76663655D01*
X39366096Y-76663659D01*
X39366097Y-76663663D01*
X39370000Y-76672032D01*
X39465965Y-76877830D01*
X39465967Y-76877834D01*
X39574281Y-77032521D01*
X39601501Y-77071396D01*
X39601506Y-77071402D01*
X39768597Y-77238493D01*
X39768603Y-77238498D01*
X39954158Y-77368425D01*
X39997783Y-77423002D01*
X40004977Y-77492500D01*
X39973454Y-77554855D01*
X39954158Y-77571575D01*
X39768597Y-77701505D01*
X39601505Y-77868597D01*
X39465965Y-78062169D01*
X39465964Y-78062171D01*
X39366098Y-78276335D01*
X39366094Y-78276344D01*
X39304938Y-78504586D01*
X39304936Y-78504596D01*
X39284341Y-78739999D01*
X39284341Y-78740000D01*
X39304936Y-78975403D01*
X39304938Y-78975413D01*
X39366094Y-79203655D01*
X39366096Y-79203659D01*
X39366097Y-79203663D01*
X39370000Y-79212032D01*
X39465965Y-79417830D01*
X39465967Y-79417834D01*
X39574281Y-79572521D01*
X39601505Y-79611401D01*
X39768599Y-79778495D01*
X39865384Y-79846265D01*
X39962165Y-79914032D01*
X39962167Y-79914033D01*
X39962170Y-79914035D01*
X40176337Y-80013903D01*
X40404592Y-80075063D01*
X40592918Y-80091539D01*
X40639999Y-80095659D01*
X40640000Y-80095659D01*
X40640001Y-80095659D01*
X40679234Y-80092226D01*
X40875408Y-80075063D01*
X41103663Y-80013903D01*
X41317830Y-79914035D01*
X41511401Y-79778495D01*
X41678495Y-79611401D01*
X41808425Y-79425842D01*
X41863002Y-79382217D01*
X41932500Y-79375023D01*
X41994855Y-79406546D01*
X42011575Y-79425842D01*
X42141500Y-79611395D01*
X42141505Y-79611401D01*
X42308599Y-79778495D01*
X42405384Y-79846265D01*
X42502165Y-79914032D01*
X42502167Y-79914033D01*
X42502170Y-79914035D01*
X42716337Y-80013903D01*
X42944592Y-80075063D01*
X43132918Y-80091539D01*
X43179999Y-80095659D01*
X43180000Y-80095659D01*
X43180001Y-80095659D01*
X43219234Y-80092226D01*
X43415408Y-80075063D01*
X43643663Y-80013903D01*
X43857830Y-79914035D01*
X44051401Y-79778495D01*
X44218495Y-79611401D01*
X44354035Y-79417830D01*
X44453903Y-79203663D01*
X44515063Y-78975408D01*
X44535659Y-78740000D01*
X44515063Y-78504592D01*
X44453903Y-78276337D01*
X44354035Y-78062171D01*
X44348425Y-78054158D01*
X44218494Y-77868597D01*
X44051402Y-77701506D01*
X44051396Y-77701501D01*
X43865842Y-77571575D01*
X43822217Y-77516998D01*
X43815023Y-77447500D01*
X43846546Y-77385145D01*
X43865842Y-77368425D01*
X43888026Y-77352891D01*
X44051401Y-77238495D01*
X44218495Y-77071401D01*
X44354035Y-76877830D01*
X44453903Y-76663663D01*
X44515063Y-76435408D01*
X44535659Y-76200000D01*
X44515063Y-75964592D01*
X44453903Y-75736337D01*
X44354035Y-75522171D01*
X44348425Y-75514158D01*
X44218494Y-75328597D01*
X44051402Y-75161506D01*
X44051396Y-75161501D01*
X43865842Y-75031575D01*
X43822217Y-74976998D01*
X43815023Y-74907500D01*
X43846546Y-74845145D01*
X43865842Y-74828425D01*
X43888026Y-74812891D01*
X44051401Y-74698495D01*
X44218495Y-74531401D01*
X44354035Y-74337830D01*
X44453903Y-74123663D01*
X44515063Y-73895408D01*
X44535659Y-73660000D01*
X44515063Y-73424592D01*
X44453903Y-73196337D01*
X44354035Y-72982171D01*
X44348425Y-72974158D01*
X44218494Y-72788597D01*
X44051402Y-72621506D01*
X44051396Y-72621501D01*
X43865842Y-72491575D01*
X43822217Y-72436998D01*
X43815023Y-72367500D01*
X43846546Y-72305145D01*
X43865842Y-72288425D01*
X43888026Y-72272891D01*
X44051401Y-72158495D01*
X44218495Y-71991401D01*
X44354035Y-71797830D01*
X44453903Y-71583663D01*
X44515063Y-71355408D01*
X44535659Y-71120000D01*
X44515063Y-70884592D01*
X44453903Y-70656337D01*
X44354035Y-70442171D01*
X44348425Y-70434158D01*
X44218494Y-70248597D01*
X44051402Y-70081506D01*
X44051396Y-70081501D01*
X43865842Y-69951575D01*
X43822217Y-69896998D01*
X43815023Y-69827500D01*
X43846546Y-69765145D01*
X43865842Y-69748425D01*
X43888026Y-69732891D01*
X44051401Y-69618495D01*
X44218495Y-69451401D01*
X44354035Y-69257830D01*
X44453903Y-69043663D01*
X44515063Y-68815408D01*
X44535659Y-68580000D01*
X44515063Y-68344592D01*
X44457386Y-68129336D01*
X44453905Y-68116344D01*
X44453904Y-68116343D01*
X44453903Y-68116337D01*
X44354035Y-67902171D01*
X44324520Y-67860018D01*
X44218494Y-67708597D01*
X44051402Y-67541506D01*
X44051396Y-67541501D01*
X43865842Y-67411575D01*
X43822217Y-67356998D01*
X43815023Y-67287500D01*
X43846546Y-67225145D01*
X43865842Y-67208425D01*
X43919500Y-67170853D01*
X44051401Y-67078495D01*
X44218495Y-66911401D01*
X44354035Y-66717830D01*
X44453903Y-66503663D01*
X44515063Y-66275408D01*
X44535659Y-66040000D01*
X44515063Y-65804592D01*
X44453903Y-65576337D01*
X44354035Y-65362171D01*
X44218495Y-65168599D01*
X44218494Y-65168597D01*
X44051402Y-65001506D01*
X44051396Y-65001501D01*
X43865842Y-64871575D01*
X43822217Y-64816998D01*
X43815023Y-64747500D01*
X43846546Y-64685145D01*
X43865842Y-64668425D01*
X43919500Y-64630853D01*
X44051401Y-64538495D01*
X44218495Y-64371401D01*
X44354035Y-64177830D01*
X44453903Y-63963663D01*
X44515063Y-63735408D01*
X44535659Y-63500000D01*
X44515063Y-63264592D01*
X44453903Y-63036337D01*
X44354035Y-62822171D01*
X44218495Y-62628599D01*
X44218494Y-62628597D01*
X44051402Y-62461506D01*
X44051396Y-62461501D01*
X43865842Y-62331575D01*
X43822217Y-62276998D01*
X43815023Y-62207500D01*
X43846546Y-62145145D01*
X43865842Y-62128425D01*
X44050421Y-61999181D01*
X44051401Y-61998495D01*
X44218495Y-61831401D01*
X44354035Y-61637830D01*
X44453903Y-61423663D01*
X44515063Y-61195408D01*
X44535659Y-60960000D01*
X44515063Y-60724592D01*
X44453903Y-60496337D01*
X44354035Y-60282171D01*
X44348425Y-60274158D01*
X44218494Y-60088597D01*
X44051402Y-59921506D01*
X44051396Y-59921501D01*
X43865842Y-59791575D01*
X43822217Y-59736998D01*
X43815023Y-59667500D01*
X43846546Y-59605145D01*
X43865842Y-59588425D01*
X43888026Y-59572891D01*
X44051401Y-59458495D01*
X44218495Y-59291401D01*
X44354035Y-59097830D01*
X44453903Y-58883663D01*
X44515063Y-58655408D01*
X44535659Y-58420000D01*
X44515063Y-58184592D01*
X44453903Y-57956337D01*
X44354035Y-57742171D01*
X44348425Y-57734158D01*
X44218494Y-57548597D01*
X44051402Y-57381506D01*
X44051396Y-57381501D01*
X43865842Y-57251575D01*
X43822217Y-57196998D01*
X43815023Y-57127500D01*
X43846546Y-57065145D01*
X43865842Y-57048425D01*
X43888026Y-57032891D01*
X44051401Y-56918495D01*
X44218495Y-56751401D01*
X44354035Y-56557830D01*
X44453903Y-56343663D01*
X44515063Y-56115408D01*
X44535659Y-55880000D01*
X44515063Y-55644592D01*
X44453903Y-55416337D01*
X44354035Y-55202171D01*
X44348425Y-55194158D01*
X44218494Y-55008597D01*
X44051402Y-54841506D01*
X44051401Y-54841505D01*
X43865405Y-54711269D01*
X43821781Y-54656692D01*
X43814588Y-54587193D01*
X43846110Y-54524839D01*
X43865405Y-54508119D01*
X44051082Y-54378105D01*
X44218105Y-54211082D01*
X44353600Y-54017578D01*
X44453429Y-53803492D01*
X44453432Y-53803486D01*
X44510636Y-53590000D01*
X43613012Y-53590000D01*
X43645925Y-53532993D01*
X43680000Y-53405826D01*
X43680000Y-53274174D01*
X43645925Y-53147007D01*
X43613012Y-53090000D01*
X44510636Y-53090000D01*
X44510635Y-53089999D01*
X44453432Y-52876513D01*
X44453429Y-52876507D01*
X44353600Y-52662422D01*
X44353599Y-52662420D01*
X44218113Y-52468926D01*
X44218108Y-52468920D01*
X44051078Y-52301890D01*
X43865405Y-52171879D01*
X43821780Y-52117302D01*
X43814588Y-52047804D01*
X43846110Y-51985449D01*
X43865406Y-51968730D01*
X43865842Y-51968425D01*
X44051401Y-51838495D01*
X44218495Y-51671401D01*
X44354035Y-51477830D01*
X44453903Y-51263663D01*
X44515063Y-51035408D01*
X44535659Y-50800000D01*
X44515063Y-50564592D01*
X44453903Y-50336337D01*
X44354035Y-50122171D01*
X44218495Y-49928599D01*
X44218494Y-49928597D01*
X44051402Y-49761506D01*
X44051396Y-49761501D01*
X43865842Y-49631575D01*
X43822217Y-49576998D01*
X43815023Y-49507500D01*
X43846546Y-49445145D01*
X43865842Y-49428425D01*
X43919500Y-49390853D01*
X44051401Y-49298495D01*
X44218495Y-49131401D01*
X44354035Y-48937830D01*
X44453903Y-48723663D01*
X44515063Y-48495408D01*
X44535659Y-48260000D01*
X44515063Y-48024592D01*
X44453903Y-47796337D01*
X44354035Y-47582171D01*
X44346113Y-47570856D01*
X44218494Y-47388597D01*
X44051402Y-47221506D01*
X44051396Y-47221501D01*
X43865842Y-47091575D01*
X43822217Y-47036998D01*
X43815023Y-46967500D01*
X43846546Y-46905145D01*
X43865842Y-46888425D01*
X43888026Y-46872891D01*
X44051401Y-46758495D01*
X44218495Y-46591401D01*
X44354035Y-46397830D01*
X44453903Y-46183663D01*
X44515063Y-45955408D01*
X44535659Y-45720000D01*
X44515063Y-45484592D01*
X44453903Y-45256337D01*
X44354035Y-45042171D01*
X44353652Y-45041623D01*
X44218494Y-44848597D01*
X44051402Y-44681506D01*
X44051396Y-44681501D01*
X43865842Y-44551575D01*
X43822217Y-44496998D01*
X43815023Y-44427500D01*
X43846546Y-44365145D01*
X43865842Y-44348425D01*
X43919500Y-44310853D01*
X44051401Y-44218495D01*
X44218495Y-44051401D01*
X44354035Y-43857830D01*
X44453903Y-43643663D01*
X44515063Y-43415408D01*
X44535659Y-43180000D01*
X44515063Y-42944592D01*
X44453903Y-42716337D01*
X44354035Y-42502171D01*
X44218495Y-42308599D01*
X44218494Y-42308597D01*
X44051402Y-42141506D01*
X44051396Y-42141501D01*
X43865842Y-42011575D01*
X43822217Y-41956998D01*
X43815023Y-41887500D01*
X43846546Y-41825145D01*
X43865842Y-41808425D01*
X43943277Y-41754204D01*
X44051401Y-41678495D01*
X44218495Y-41511401D01*
X44354035Y-41317830D01*
X44453903Y-41103663D01*
X44515063Y-40875408D01*
X44535659Y-40640000D01*
X44515063Y-40404592D01*
X44458258Y-40192590D01*
X44453905Y-40176344D01*
X44453904Y-40176343D01*
X44453903Y-40176337D01*
X44354035Y-39962171D01*
X44304508Y-39891438D01*
X44218494Y-39768597D01*
X44051402Y-39601506D01*
X44051396Y-39601501D01*
X43865842Y-39471575D01*
X43822217Y-39416998D01*
X43815023Y-39347500D01*
X43846546Y-39285145D01*
X43865842Y-39268425D01*
X43919500Y-39230853D01*
X44051401Y-39138495D01*
X44218495Y-38971401D01*
X44354035Y-38777830D01*
X44453903Y-38563663D01*
X44515063Y-38335408D01*
X44535659Y-38100000D01*
X44515063Y-37864592D01*
X44453903Y-37636337D01*
X44354035Y-37422171D01*
X44313907Y-37364861D01*
X44218494Y-37228597D01*
X44051402Y-37061506D01*
X44051396Y-37061501D01*
X43865842Y-36931575D01*
X43822217Y-36876998D01*
X43815023Y-36807500D01*
X43846546Y-36745145D01*
X43865842Y-36728425D01*
X43963293Y-36660189D01*
X44051401Y-36598495D01*
X44218495Y-36431401D01*
X44354035Y-36237830D01*
X44453903Y-36023663D01*
X44515063Y-35795408D01*
X44535659Y-35560000D01*
X44515063Y-35324592D01*
X44453903Y-35096337D01*
X44354035Y-34882171D01*
X44305400Y-34812712D01*
X44218494Y-34688597D01*
X44051402Y-34521506D01*
X44051396Y-34521501D01*
X43865842Y-34391575D01*
X43822217Y-34336998D01*
X43815023Y-34267500D01*
X43846546Y-34205145D01*
X43865842Y-34188425D01*
X43919500Y-34150853D01*
X44051401Y-34058495D01*
X44218495Y-33891401D01*
X44354035Y-33697830D01*
X44453903Y-33483663D01*
X44515063Y-33255408D01*
X44535659Y-33020000D01*
X44515063Y-32784592D01*
X44453903Y-32556337D01*
X44354035Y-32342171D01*
X44330665Y-32308794D01*
X44218494Y-32148597D01*
X44051402Y-31981506D01*
X44051396Y-31981501D01*
X43865842Y-31851575D01*
X43822217Y-31796998D01*
X43815023Y-31727500D01*
X43846546Y-31665145D01*
X43865842Y-31648425D01*
X43888026Y-31632891D01*
X44051401Y-31518495D01*
X44218495Y-31351401D01*
X44354035Y-31157830D01*
X44453903Y-30943663D01*
X44515063Y-30715408D01*
X44535659Y-30480000D01*
X44515063Y-30244592D01*
X44453903Y-30016337D01*
X44354035Y-29802171D01*
X44218495Y-29608599D01*
X44218494Y-29608597D01*
X44051402Y-29441506D01*
X44051395Y-29441501D01*
X43857834Y-29305967D01*
X43857830Y-29305965D01*
X43723646Y-29243394D01*
X43643663Y-29206097D01*
X43643659Y-29206096D01*
X43643655Y-29206094D01*
X43415413Y-29144938D01*
X43415403Y-29144936D01*
X43180001Y-29124341D01*
X43179999Y-29124341D01*
X42944596Y-29144936D01*
X42944586Y-29144938D01*
X42844126Y-29171856D01*
X42774276Y-29170193D01*
X42724352Y-29139762D01*
X42495198Y-28910608D01*
X42495178Y-28910586D01*
X42403733Y-28819141D01*
X42352509Y-28784915D01*
X42301286Y-28750688D01*
X42301283Y-28750686D01*
X42301280Y-28750685D01*
X42220792Y-28717347D01*
X42187453Y-28703537D01*
X42177427Y-28701543D01*
X42127029Y-28691518D01*
X42066610Y-28679500D01*
X42066607Y-28679500D01*
X42066606Y-28679500D01*
X39336606Y-28679500D01*
X39213394Y-28679500D01*
X39213389Y-28679500D01*
X39092555Y-28703535D01*
X39092545Y-28703538D01*
X38978716Y-28750687D01*
X38978707Y-28750692D01*
X38876267Y-28819141D01*
X38876263Y-28819144D01*
X38789144Y-28906263D01*
X38789141Y-28906267D01*
X38720692Y-29008707D01*
X38720687Y-29008716D01*
X38673538Y-29122545D01*
X38673535Y-29122555D01*
X38649500Y-29243389D01*
X38649500Y-30946000D01*
X38629815Y-31013039D01*
X38577011Y-31058794D01*
X38525500Y-31070000D01*
X38350000Y-31070000D01*
X38350000Y-31946000D01*
X38330315Y-32013039D01*
X38277511Y-32058794D01*
X38226000Y-32070000D01*
X38100000Y-32070000D01*
X38100000Y-32196000D01*
X38080315Y-32263039D01*
X38027511Y-32308794D01*
X37976000Y-32320000D01*
X36875001Y-32320000D01*
X36875001Y-32369986D01*
X36885494Y-32472697D01*
X36940641Y-32639119D01*
X36940643Y-32639124D01*
X37032684Y-32788345D01*
X37156655Y-32912316D01*
X37156659Y-32912319D01*
X37159656Y-32914168D01*
X37161279Y-32915972D01*
X37162323Y-32916798D01*
X37162181Y-32916976D01*
X37206381Y-32966116D01*
X37217602Y-33035079D01*
X37189759Y-33099161D01*
X37159661Y-33125241D01*
X37156349Y-33127283D01*
X37156343Y-33127288D01*
X37032289Y-33251342D01*
X36940187Y-33400663D01*
X36940186Y-33400666D01*
X36885001Y-33567203D01*
X36885001Y-33567204D01*
X36885000Y-33567204D01*
X36874500Y-33669983D01*
X36874500Y-34270001D01*
X36874501Y-34270019D01*
X36885000Y-34372796D01*
X36885001Y-34372799D01*
X36940185Y-34539331D01*
X36940187Y-34539336D01*
X36961626Y-34574094D01*
X37032288Y-34688656D01*
X37156344Y-34812712D01*
X37305666Y-34904814D01*
X37472203Y-34959999D01*
X37574991Y-34970500D01*
X38625008Y-34970499D01*
X38625016Y-34970498D01*
X38625019Y-34970498D01*
X38681302Y-34964748D01*
X38727797Y-34959999D01*
X38894334Y-34904814D01*
X39043656Y-34812712D01*
X39167712Y-34688656D01*
X39259814Y-34539334D01*
X39314999Y-34372797D01*
X39325500Y-34270009D01*
X39325499Y-33890500D01*
X39345183Y-33823463D01*
X39397987Y-33777708D01*
X39467146Y-33767764D01*
X39530701Y-33796789D01*
X39551073Y-33819377D01*
X39601505Y-33891401D01*
X39601506Y-33891402D01*
X39768597Y-34058493D01*
X39768603Y-34058498D01*
X39954158Y-34188425D01*
X39997783Y-34243002D01*
X40004977Y-34312500D01*
X39973454Y-34374855D01*
X39954158Y-34391575D01*
X39768597Y-34521505D01*
X39601505Y-34688597D01*
X39465965Y-34882169D01*
X39465964Y-34882171D01*
X39366098Y-35096335D01*
X39366094Y-35096344D01*
X39304938Y-35324586D01*
X39304936Y-35324596D01*
X39284341Y-35559999D01*
X39284341Y-35560000D01*
X39304936Y-35795403D01*
X39304938Y-35795413D01*
X39366094Y-36023655D01*
X39366096Y-36023659D01*
X39366097Y-36023663D01*
X39398063Y-36092214D01*
X39465965Y-36237830D01*
X39465967Y-36237834D01*
X39540412Y-36344151D01*
X39594013Y-36420702D01*
X39601501Y-36431395D01*
X39601506Y-36431402D01*
X39768597Y-36598493D01*
X39768603Y-36598498D01*
X39954158Y-36728425D01*
X39997783Y-36783002D01*
X40004977Y-36852500D01*
X39973454Y-36914855D01*
X39954158Y-36931575D01*
X39768597Y-37061505D01*
X39601505Y-37228597D01*
X39465965Y-37422169D01*
X39465964Y-37422171D01*
X39366098Y-37636335D01*
X39366094Y-37636344D01*
X39304938Y-37864586D01*
X39304936Y-37864596D01*
X39284341Y-38099999D01*
X39284341Y-38100000D01*
X39304936Y-38335403D01*
X39304938Y-38335413D01*
X39366094Y-38563655D01*
X39366096Y-38563659D01*
X39366097Y-38563663D01*
X39429673Y-38700001D01*
X39465965Y-38777830D01*
X39465967Y-38777834D01*
X39601501Y-38971395D01*
X39601506Y-38971402D01*
X39768597Y-39138493D01*
X39768603Y-39138498D01*
X39954158Y-39268425D01*
X39997783Y-39323002D01*
X40004977Y-39392500D01*
X39973454Y-39454855D01*
X39954158Y-39471575D01*
X39768597Y-39601505D01*
X39601504Y-39768598D01*
X39551073Y-39840621D01*
X39496496Y-39884246D01*
X39426998Y-39891438D01*
X39364643Y-39859915D01*
X39329230Y-39799685D01*
X39325499Y-39769502D01*
X39325499Y-39389992D01*
X39321158Y-39347500D01*
X39314999Y-39287203D01*
X39314998Y-39287200D01*
X39314317Y-39285145D01*
X39259814Y-39120666D01*
X39167712Y-38971344D01*
X39043656Y-38847288D01*
X38950888Y-38790069D01*
X38894336Y-38755187D01*
X38894329Y-38755184D01*
X38863198Y-38744868D01*
X38805754Y-38705094D01*
X38778933Y-38640578D01*
X38791249Y-38571802D01*
X38795466Y-38564053D01*
X38850347Y-38471256D01*
X38889815Y-38335408D01*
X38895495Y-38315858D01*
X38895496Y-38315852D01*
X38898352Y-38279558D01*
X38898353Y-38279551D01*
X38898353Y-37870171D01*
X38895496Y-37833868D01*
X38877117Y-37770609D01*
X38850348Y-37678470D01*
X38850347Y-37678466D01*
X38850346Y-37678465D01*
X38837942Y-37657491D01*
X38820759Y-37589770D01*
X38837944Y-37531245D01*
X38849885Y-37511055D01*
X38892357Y-37364861D01*
X38586205Y-37364861D01*
X38523086Y-37347593D01*
X38514248Y-37342367D01*
X38514246Y-37342366D01*
X38514242Y-37342364D01*
X38358850Y-37297218D01*
X38358844Y-37297217D01*
X38322550Y-37294361D01*
X38322543Y-37294361D01*
X37853163Y-37294361D01*
X37853155Y-37294361D01*
X37816861Y-37297217D01*
X37816855Y-37297218D01*
X37661463Y-37342364D01*
X37661458Y-37342367D01*
X37652619Y-37347593D01*
X37589501Y-37364861D01*
X37283349Y-37364861D01*
X37325821Y-37511055D01*
X37337764Y-37531250D01*
X37354945Y-37598974D01*
X37337764Y-37657489D01*
X37325359Y-37678465D01*
X37325357Y-37678470D01*
X37280210Y-37833863D01*
X37280209Y-37833869D01*
X37277353Y-37870163D01*
X37277353Y-38272334D01*
X37257668Y-38339373D01*
X37204864Y-38385128D01*
X37135706Y-38395072D01*
X37115045Y-38390268D01*
X37114327Y-38390035D01*
X37072110Y-38381061D01*
X36929165Y-38350678D01*
X36739873Y-38350678D01*
X36707416Y-38357576D01*
X36554716Y-38390033D01*
X36554711Y-38390035D01*
X36381789Y-38467026D01*
X36381784Y-38467029D01*
X36228648Y-38578289D01*
X36101985Y-38718963D01*
X36007340Y-38882893D01*
X36007337Y-38882900D01*
X35948846Y-39062917D01*
X35948844Y-39062927D01*
X35945581Y-39093966D01*
X35918995Y-39158579D01*
X35861696Y-39198562D01*
X35822261Y-39205000D01*
X35187129Y-39205000D01*
X35187123Y-39205001D01*
X35127517Y-39211408D01*
X35082831Y-39228075D01*
X35013140Y-39233058D01*
X34951817Y-39199572D01*
X34918333Y-39138248D01*
X34915500Y-39111892D01*
X34915500Y-37837648D01*
X34935185Y-37770609D01*
X34987989Y-37724854D01*
X35057147Y-37714910D01*
X35120703Y-37743935D01*
X35127181Y-37749967D01*
X35158238Y-37781024D01*
X35307459Y-37873065D01*
X35307464Y-37873067D01*
X35473886Y-37928214D01*
X35473893Y-37928215D01*
X35576603Y-37938708D01*
X35689083Y-37938708D01*
X36189084Y-37938708D01*
X36301556Y-37938708D01*
X36301570Y-37938707D01*
X36404281Y-37928214D01*
X36570703Y-37873067D01*
X36570708Y-37873065D01*
X36719929Y-37781024D01*
X36843899Y-37657054D01*
X36935940Y-37507833D01*
X36935942Y-37507828D01*
X36991089Y-37341406D01*
X36991090Y-37341399D01*
X37001583Y-37238695D01*
X37001584Y-37238682D01*
X37001584Y-36864861D01*
X37283349Y-36864861D01*
X37837853Y-36864861D01*
X38337853Y-36864861D01*
X38892357Y-36864861D01*
X38849884Y-36718665D01*
X38767574Y-36579486D01*
X38767567Y-36579477D01*
X38653236Y-36465146D01*
X38653227Y-36465139D01*
X38514048Y-36382829D01*
X38514043Y-36382827D01*
X38358771Y-36337716D01*
X38358765Y-36337715D01*
X38337853Y-36336070D01*
X38337853Y-36864861D01*
X37837853Y-36864861D01*
X37837853Y-36336071D01*
X37837852Y-36336070D01*
X37816940Y-36337715D01*
X37816934Y-36337716D01*
X37661662Y-36382827D01*
X37661657Y-36382829D01*
X37522478Y-36465139D01*
X37522469Y-36465146D01*
X37408138Y-36579477D01*
X37408131Y-36579486D01*
X37325821Y-36718665D01*
X37283349Y-36864861D01*
X37001584Y-36864861D01*
X37001584Y-36813709D01*
X36189084Y-36813709D01*
X36189084Y-37938708D01*
X35689083Y-37938708D01*
X35689084Y-37938707D01*
X35689084Y-36313709D01*
X36189084Y-36313709D01*
X37001583Y-36313709D01*
X37001583Y-35888737D01*
X37001582Y-35888722D01*
X36991089Y-35786011D01*
X36935942Y-35619589D01*
X36935940Y-35619584D01*
X36843899Y-35470363D01*
X36719929Y-35346393D01*
X36570708Y-35254352D01*
X36570703Y-35254350D01*
X36404281Y-35199203D01*
X36404274Y-35199202D01*
X36301570Y-35188709D01*
X36189084Y-35188709D01*
X36189084Y-36313709D01*
X35689084Y-36313709D01*
X35689084Y-35188709D01*
X35576611Y-35188709D01*
X35576596Y-35188710D01*
X35473886Y-35199203D01*
X35307464Y-35254350D01*
X35307459Y-35254352D01*
X35158238Y-35346393D01*
X35127181Y-35377451D01*
X35065858Y-35410936D01*
X34996166Y-35405952D01*
X34940233Y-35364080D01*
X34915816Y-35298616D01*
X34915500Y-35289770D01*
X34915500Y-34228394D01*
X34914812Y-34224937D01*
X34891463Y-34107549D01*
X34883758Y-34088947D01*
X34844314Y-33993720D01*
X34844308Y-33993709D01*
X34836520Y-33982054D01*
X34836518Y-33982051D01*
X34775858Y-33891266D01*
X34685637Y-33801045D01*
X34685606Y-33801016D01*
X33510198Y-32625608D01*
X33510178Y-32625586D01*
X33418735Y-32534143D01*
X33400901Y-32522227D01*
X33365711Y-32498714D01*
X33365712Y-32498714D01*
X33365710Y-32498712D01*
X33316290Y-32465690D01*
X33316286Y-32465688D01*
X33235792Y-32432347D01*
X33202453Y-32418537D01*
X33192427Y-32416543D01*
X33142029Y-32406518D01*
X33081610Y-32394500D01*
X33081607Y-32394500D01*
X33081606Y-32394500D01*
X31183748Y-32394500D01*
X31116709Y-32374815D01*
X31091600Y-32353474D01*
X31085873Y-32347114D01*
X31085869Y-32347110D01*
X30932734Y-32235851D01*
X30932729Y-32235848D01*
X30759807Y-32158857D01*
X30759802Y-32158855D01*
X30614001Y-32127865D01*
X30574646Y-32119500D01*
X30385354Y-32119500D01*
X30352897Y-32126398D01*
X30200197Y-32158855D01*
X30200192Y-32158857D01*
X30027270Y-32235848D01*
X30027265Y-32235851D01*
X29874129Y-32347111D01*
X29747466Y-32487785D01*
X29652821Y-32651715D01*
X29652818Y-32651722D01*
X29609645Y-32784596D01*
X29594326Y-32831744D01*
X29574540Y-33020000D01*
X27940000Y-33020000D01*
X27940000Y-31770013D01*
X36875000Y-31770013D01*
X36875000Y-31820000D01*
X37850000Y-31820000D01*
X37850000Y-31070000D01*
X37575029Y-31070000D01*
X37575012Y-31070001D01*
X37472302Y-31080494D01*
X37305880Y-31135641D01*
X37305875Y-31135643D01*
X37156654Y-31227684D01*
X37032684Y-31351654D01*
X36940643Y-31500875D01*
X36940641Y-31500880D01*
X36885494Y-31667302D01*
X36885493Y-31667309D01*
X36875000Y-31770013D01*
X27940000Y-31770013D01*
X27940000Y-25524000D01*
X27959685Y-25456961D01*
X28012489Y-25411206D01*
X28064000Y-25400000D01*
X45596000Y-25400000D01*
X45663039Y-25419685D01*
G37*
%TD.AperFunction*%
%TD*%
M02*
