%TF.GenerationSoftware,KiCad,Pcbnew,7.0.10*%
%TF.CreationDate,2024-01-20T20:35:46-05:00*%
%TF.ProjectId,zuul,7a75756c-2e6b-4696-9361-645f70636258,rev?*%
%TF.SameCoordinates,Original*%
%TF.FileFunction,Legend,Top*%
%TF.FilePolarity,Positive*%
%FSLAX46Y46*%
G04 Gerber Fmt 4.6, Leading zero omitted, Abs format (unit mm)*
G04 Created by KiCad (PCBNEW 7.0.10) date 2024-01-20 20:35:46*
%MOMM*%
%LPD*%
G01*
G04 APERTURE LIST*
%ADD10C,0.150000*%
%ADD11C,0.254000*%
%ADD12C,0.120000*%
%ADD13C,0.200000*%
G04 APERTURE END LIST*
D10*
X36356203Y-56230947D02*
X36308584Y-56278567D01*
X36308584Y-56278567D02*
X36165727Y-56326186D01*
X36165727Y-56326186D02*
X36070489Y-56326186D01*
X36070489Y-56326186D02*
X35927632Y-56278567D01*
X35927632Y-56278567D02*
X35832394Y-56183328D01*
X35832394Y-56183328D02*
X35784775Y-56088090D01*
X35784775Y-56088090D02*
X35737156Y-55897614D01*
X35737156Y-55897614D02*
X35737156Y-55754757D01*
X35737156Y-55754757D02*
X35784775Y-55564281D01*
X35784775Y-55564281D02*
X35832394Y-55469043D01*
X35832394Y-55469043D02*
X35927632Y-55373805D01*
X35927632Y-55373805D02*
X36070489Y-55326186D01*
X36070489Y-55326186D02*
X36165727Y-55326186D01*
X36165727Y-55326186D02*
X36308584Y-55373805D01*
X36308584Y-55373805D02*
X36356203Y-55421424D01*
X36737156Y-55421424D02*
X36784775Y-55373805D01*
X36784775Y-55373805D02*
X36880013Y-55326186D01*
X36880013Y-55326186D02*
X37118108Y-55326186D01*
X37118108Y-55326186D02*
X37213346Y-55373805D01*
X37213346Y-55373805D02*
X37260965Y-55421424D01*
X37260965Y-55421424D02*
X37308584Y-55516662D01*
X37308584Y-55516662D02*
X37308584Y-55611900D01*
X37308584Y-55611900D02*
X37260965Y-55754757D01*
X37260965Y-55754757D02*
X36689537Y-56326186D01*
X36689537Y-56326186D02*
X37308584Y-56326186D01*
D11*
X31054318Y-44419762D02*
X29784318Y-44419762D01*
X30933365Y-43089285D02*
X30993842Y-43149761D01*
X30993842Y-43149761D02*
X31054318Y-43331190D01*
X31054318Y-43331190D02*
X31054318Y-43452142D01*
X31054318Y-43452142D02*
X30993842Y-43633571D01*
X30993842Y-43633571D02*
X30872889Y-43754523D01*
X30872889Y-43754523D02*
X30751937Y-43815000D01*
X30751937Y-43815000D02*
X30510032Y-43875476D01*
X30510032Y-43875476D02*
X30328603Y-43875476D01*
X30328603Y-43875476D02*
X30086699Y-43815000D01*
X30086699Y-43815000D02*
X29965746Y-43754523D01*
X29965746Y-43754523D02*
X29844794Y-43633571D01*
X29844794Y-43633571D02*
X29784318Y-43452142D01*
X29784318Y-43452142D02*
X29784318Y-43331190D01*
X29784318Y-43331190D02*
X29844794Y-43149761D01*
X29844794Y-43149761D02*
X29905270Y-43089285D01*
X31054318Y-41879761D02*
X31054318Y-42605476D01*
X31054318Y-42242619D02*
X29784318Y-42242619D01*
X29784318Y-42242619D02*
X29965746Y-42363571D01*
X29965746Y-42363571D02*
X30086699Y-42484523D01*
X30086699Y-42484523D02*
X30147175Y-42605476D01*
D10*
X34309917Y-35198528D02*
X33976584Y-34722337D01*
X33738489Y-35198528D02*
X33738489Y-34198528D01*
X33738489Y-34198528D02*
X34119441Y-34198528D01*
X34119441Y-34198528D02*
X34214679Y-34246147D01*
X34214679Y-34246147D02*
X34262298Y-34293766D01*
X34262298Y-34293766D02*
X34309917Y-34389004D01*
X34309917Y-34389004D02*
X34309917Y-34531861D01*
X34309917Y-34531861D02*
X34262298Y-34627099D01*
X34262298Y-34627099D02*
X34214679Y-34674718D01*
X34214679Y-34674718D02*
X34119441Y-34722337D01*
X34119441Y-34722337D02*
X33738489Y-34722337D01*
X35262298Y-35198528D02*
X34690870Y-35198528D01*
X34976584Y-35198528D02*
X34976584Y-34198528D01*
X34976584Y-34198528D02*
X34881346Y-34341385D01*
X34881346Y-34341385D02*
X34786108Y-34436623D01*
X34786108Y-34436623D02*
X34690870Y-34484242D01*
X36734058Y-47008114D02*
X36686439Y-47055734D01*
X36686439Y-47055734D02*
X36543582Y-47103353D01*
X36543582Y-47103353D02*
X36448344Y-47103353D01*
X36448344Y-47103353D02*
X36305487Y-47055734D01*
X36305487Y-47055734D02*
X36210249Y-46960495D01*
X36210249Y-46960495D02*
X36162630Y-46865257D01*
X36162630Y-46865257D02*
X36115011Y-46674781D01*
X36115011Y-46674781D02*
X36115011Y-46531924D01*
X36115011Y-46531924D02*
X36162630Y-46341448D01*
X36162630Y-46341448D02*
X36210249Y-46246210D01*
X36210249Y-46246210D02*
X36305487Y-46150972D01*
X36305487Y-46150972D02*
X36448344Y-46103353D01*
X36448344Y-46103353D02*
X36543582Y-46103353D01*
X36543582Y-46103353D02*
X36686439Y-46150972D01*
X36686439Y-46150972D02*
X36734058Y-46198591D01*
X37067392Y-46103353D02*
X37686439Y-46103353D01*
X37686439Y-46103353D02*
X37353106Y-46484305D01*
X37353106Y-46484305D02*
X37495963Y-46484305D01*
X37495963Y-46484305D02*
X37591201Y-46531924D01*
X37591201Y-46531924D02*
X37638820Y-46579543D01*
X37638820Y-46579543D02*
X37686439Y-46674781D01*
X37686439Y-46674781D02*
X37686439Y-46912876D01*
X37686439Y-46912876D02*
X37638820Y-47008114D01*
X37638820Y-47008114D02*
X37591201Y-47055734D01*
X37591201Y-47055734D02*
X37495963Y-47103353D01*
X37495963Y-47103353D02*
X37210249Y-47103353D01*
X37210249Y-47103353D02*
X37115011Y-47055734D01*
X37115011Y-47055734D02*
X37067392Y-47008114D01*
X33325618Y-54859580D02*
X33277999Y-54907200D01*
X33277999Y-54907200D02*
X33135142Y-54954819D01*
X33135142Y-54954819D02*
X33039904Y-54954819D01*
X33039904Y-54954819D02*
X32897047Y-54907200D01*
X32897047Y-54907200D02*
X32801809Y-54811961D01*
X32801809Y-54811961D02*
X32754190Y-54716723D01*
X32754190Y-54716723D02*
X32706571Y-54526247D01*
X32706571Y-54526247D02*
X32706571Y-54383390D01*
X32706571Y-54383390D02*
X32754190Y-54192914D01*
X32754190Y-54192914D02*
X32801809Y-54097676D01*
X32801809Y-54097676D02*
X32897047Y-54002438D01*
X32897047Y-54002438D02*
X33039904Y-53954819D01*
X33039904Y-53954819D02*
X33135142Y-53954819D01*
X33135142Y-53954819D02*
X33277999Y-54002438D01*
X33277999Y-54002438D02*
X33325618Y-54050057D01*
X34277999Y-54954819D02*
X33706571Y-54954819D01*
X33992285Y-54954819D02*
X33992285Y-53954819D01*
X33992285Y-53954819D02*
X33897047Y-54097676D01*
X33897047Y-54097676D02*
X33801809Y-54192914D01*
X33801809Y-54192914D02*
X33706571Y-54240533D01*
D12*
%TO.C,C2*%
X33761252Y-56615000D02*
X33238748Y-56615000D01*
X33761252Y-55145000D02*
X33238748Y-55145000D01*
D13*
%TO.C,IC1*%
X31075000Y-46655000D02*
X31075000Y-45130000D01*
D12*
%TO.C,R1*%
X33749520Y-35653709D02*
X35203648Y-35653709D01*
X33749520Y-37473709D02*
X35203648Y-37473709D01*
%TO.C,C3*%
X36639473Y-47593534D02*
X37161977Y-47593534D01*
X36639473Y-49063534D02*
X37161977Y-49063534D01*
%TO.C,C1*%
X33600121Y-53700000D02*
X33384449Y-53700000D01*
X33600121Y-52980000D02*
X33384449Y-52980000D01*
%TD*%
M02*
