%TF.GenerationSoftware,KiCad,Pcbnew,7.0.10*%
%TF.CreationDate,2024-01-20T20:35:46-05:00*%
%TF.ProjectId,zuul,7a75756c-2e6b-4696-9361-645f70636258,rev?*%
%TF.SameCoordinates,Original*%
%TF.FileFunction,Legend,Bot*%
%TF.FilePolarity,Positive*%
%FSLAX46Y46*%
G04 Gerber Fmt 4.6, Leading zero omitted, Abs format (unit mm)*
G04 Created by KiCad (PCBNEW 7.0.10) date 2024-01-20 20:35:46*
%MOMM*%
%LPD*%
G01*
G04 APERTURE LIST*
%ADD10C,0.150000*%
%ADD11C,0.120000*%
G04 APERTURE END LIST*
D10*
X33353333Y-55604819D02*
X33353333Y-56319104D01*
X33353333Y-56319104D02*
X33400952Y-56461961D01*
X33400952Y-56461961D02*
X33496190Y-56557200D01*
X33496190Y-56557200D02*
X33639047Y-56604819D01*
X33639047Y-56604819D02*
X33734285Y-56604819D01*
X32972380Y-55604819D02*
X32353333Y-55604819D01*
X32353333Y-55604819D02*
X32686666Y-55985771D01*
X32686666Y-55985771D02*
X32543809Y-55985771D01*
X32543809Y-55985771D02*
X32448571Y-56033390D01*
X32448571Y-56033390D02*
X32400952Y-56081009D01*
X32400952Y-56081009D02*
X32353333Y-56176247D01*
X32353333Y-56176247D02*
X32353333Y-56414342D01*
X32353333Y-56414342D02*
X32400952Y-56509580D01*
X32400952Y-56509580D02*
X32448571Y-56557200D01*
X32448571Y-56557200D02*
X32543809Y-56604819D01*
X32543809Y-56604819D02*
X32829523Y-56604819D01*
X32829523Y-56604819D02*
X32924761Y-56557200D01*
X32924761Y-56557200D02*
X32972380Y-56509580D01*
X36019819Y-30146666D02*
X36734104Y-30146666D01*
X36734104Y-30146666D02*
X36876961Y-30099047D01*
X36876961Y-30099047D02*
X36972200Y-30003809D01*
X36972200Y-30003809D02*
X37019819Y-29860952D01*
X37019819Y-29860952D02*
X37019819Y-29765714D01*
X36115057Y-30575238D02*
X36067438Y-30622857D01*
X36067438Y-30622857D02*
X36019819Y-30718095D01*
X36019819Y-30718095D02*
X36019819Y-30956190D01*
X36019819Y-30956190D02*
X36067438Y-31051428D01*
X36067438Y-31051428D02*
X36115057Y-31099047D01*
X36115057Y-31099047D02*
X36210295Y-31146666D01*
X36210295Y-31146666D02*
X36305533Y-31146666D01*
X36305533Y-31146666D02*
X36448390Y-31099047D01*
X36448390Y-31099047D02*
X37019819Y-30527619D01*
X37019819Y-30527619D02*
X37019819Y-31146666D01*
X33353333Y-67029819D02*
X33353333Y-67744104D01*
X33353333Y-67744104D02*
X33400952Y-67886961D01*
X33400952Y-67886961D02*
X33496190Y-67982200D01*
X33496190Y-67982200D02*
X33639047Y-68029819D01*
X33639047Y-68029819D02*
X33734285Y-68029819D01*
X32448571Y-67363152D02*
X32448571Y-68029819D01*
X32686666Y-66982200D02*
X32924761Y-67696485D01*
X32924761Y-67696485D02*
X32305714Y-67696485D01*
X42243333Y-27164819D02*
X42243333Y-27879104D01*
X42243333Y-27879104D02*
X42290952Y-28021961D01*
X42290952Y-28021961D02*
X42386190Y-28117200D01*
X42386190Y-28117200D02*
X42529047Y-28164819D01*
X42529047Y-28164819D02*
X42624285Y-28164819D01*
X41243333Y-28164819D02*
X41814761Y-28164819D01*
X41529047Y-28164819D02*
X41529047Y-27164819D01*
X41529047Y-27164819D02*
X41624285Y-27307676D01*
X41624285Y-27307676D02*
X41719523Y-27402914D01*
X41719523Y-27402914D02*
X41814761Y-27450533D01*
D11*
%TO.C,J3*%
X33585000Y-58420000D02*
X33585000Y-57150000D01*
X33585000Y-57150000D02*
X32315000Y-57150000D01*
X31272071Y-66420000D02*
X30875000Y-66420000D01*
X31272071Y-65660000D02*
X30875000Y-65660000D01*
X31272071Y-63880000D02*
X30875000Y-63880000D01*
X31272071Y-63120000D02*
X30875000Y-63120000D01*
X31272071Y-61340000D02*
X30875000Y-61340000D01*
X31272071Y-60580000D02*
X30875000Y-60580000D01*
X31205000Y-58800000D02*
X30875000Y-58800000D01*
X31205000Y-58040000D02*
X30875000Y-58040000D01*
X30875000Y-67370000D02*
X28215000Y-67370000D01*
X30875000Y-64770000D02*
X28215000Y-64770000D01*
X30875000Y-62230000D02*
X28215000Y-62230000D01*
X30875000Y-59690000D02*
X28215000Y-59690000D01*
X30875000Y-57090000D02*
X30875000Y-67370000D01*
X28215000Y-67370000D02*
X28215000Y-57090000D01*
X28215000Y-57090000D02*
X30875000Y-57090000D01*
%TO.C,J2*%
X34295000Y-31045000D02*
X35565000Y-31045000D01*
X35565000Y-31045000D02*
X35565000Y-29775000D01*
%TO.C,J4*%
X33585000Y-69845000D02*
X33585000Y-68575000D01*
X33585000Y-68575000D02*
X32315000Y-68575000D01*
%TO.C,J1*%
X44510000Y-80070000D02*
X39310000Y-80070000D01*
X44510000Y-29150000D02*
X44510000Y-80070000D01*
X44510000Y-29150000D02*
X41910000Y-29150000D01*
X41910000Y-31750000D02*
X39310000Y-31750000D01*
X41910000Y-29150000D02*
X41910000Y-31750000D01*
X40640000Y-29150000D02*
X39310000Y-29150000D01*
X39310000Y-31750000D02*
X39310000Y-80070000D01*
X39310000Y-29150000D02*
X39310000Y-30480000D01*
%TD*%
M02*
