%TF.GenerationSoftware,KiCad,Pcbnew,8.0.8*%
%TF.CreationDate,2025-02-04T18:57:15-05:00*%
%TF.ProjectId,zuul,7a75756c-2e6b-4696-9361-645f70636258,rev?*%
%TF.SameCoordinates,Original*%
%TF.FileFunction,Copper,L2,Bot*%
%TF.FilePolarity,Positive*%
%FSLAX46Y46*%
G04 Gerber Fmt 4.6, Leading zero omitted, Abs format (unit mm)*
G04 Created by KiCad (PCBNEW 8.0.8) date 2025-02-04 18:57:15*
%MOMM*%
%LPD*%
G01*
G04 APERTURE LIST*
G04 Aperture macros list*
%AMRoundRect*
0 Rectangle with rounded corners*
0 $1 Rounding radius*
0 $2 $3 $4 $5 $6 $7 $8 $9 X,Y pos of 4 corners*
0 Add a 4 corners polygon primitive as box body*
4,1,4,$2,$3,$4,$5,$6,$7,$8,$9,$2,$3,0*
0 Add four circle primitives for the rounded corners*
1,1,$1+$1,$2,$3*
1,1,$1+$1,$4,$5*
1,1,$1+$1,$6,$7*
1,1,$1+$1,$8,$9*
0 Add four rect primitives between the rounded corners*
20,1,$1+$1,$2,$3,$4,$5,0*
20,1,$1+$1,$4,$5,$6,$7,0*
20,1,$1+$1,$6,$7,$8,$9,0*
20,1,$1+$1,$8,$9,$2,$3,0*%
G04 Aperture macros list end*
%TA.AperFunction,ComponentPad*%
%ADD10R,1.700000X1.700000*%
%TD*%
%TA.AperFunction,ComponentPad*%
%ADD11O,1.700000X1.700000*%
%TD*%
%TA.AperFunction,ComponentPad*%
%ADD12RoundRect,0.250000X0.725000X-0.600000X0.725000X0.600000X-0.725000X0.600000X-0.725000X-0.600000X0*%
%TD*%
%TA.AperFunction,ComponentPad*%
%ADD13O,1.950000X1.700000*%
%TD*%
%TA.AperFunction,ViaPad*%
%ADD14C,0.800000*%
%TD*%
%TA.AperFunction,Conductor*%
%ADD15C,0.250000*%
%TD*%
G04 APERTURE END LIST*
D10*
%TO.P,J2,1,Pin_1*%
%TO.N,/MOTOR_F_OUT*%
X33020000Y-73660000D03*
D11*
%TO.P,J2,2,Pin_2*%
%TO.N,/MOTOR_R_OUT*%
X35560000Y-73660000D03*
%TD*%
D12*
%TO.P,J5,1,Pin_1*%
%TO.N,VCC*%
X35560000Y-67210000D03*
D13*
%TO.P,J5,2,Pin_2*%
%TO.N,GND*%
X35560000Y-64710000D03*
%TO.P,J5,3,Pin_3*%
%TO.N,/LED_GPIO*%
X35560000Y-62210000D03*
%TO.P,J5,4,Pin_4*%
%TO.N,/BEEPER*%
X35560000Y-59710000D03*
%TO.P,J5,5,Pin_5*%
%TO.N,/RXD*%
X35560000Y-57210000D03*
%TO.P,J5,6,Pin_6*%
%TO.N,/TXD*%
X35560000Y-54710000D03*
%TD*%
D10*
%TO.P,J1,1,3V3*%
%TO.N,+3V3*%
X40640000Y-30480000D03*
D11*
%TO.P,J1,2,5V*%
%TO.N,VCC*%
X43180000Y-30480000D03*
%TO.P,J1,3,SDA/GPIO2*%
%TO.N,unconnected-(J1-SDA{slash}GPIO2-Pad3)*%
X40640000Y-33020000D03*
%TO.P,J1,4,5V*%
%TO.N,VCC*%
X43180000Y-33020000D03*
%TO.P,J1,5,SCL/GPIO3*%
%TO.N,unconnected-(J1-SCL{slash}GPIO3-Pad5)*%
X40640000Y-35560000D03*
%TO.P,J1,6,GND*%
%TO.N,unconnected-(J1-GND-Pad6)*%
X43180000Y-35560000D03*
%TO.P,J1,7,GCLK0/GPIO4*%
%TO.N,unconnected-(J1-GCLK0{slash}GPIO4-Pad7)*%
X40640000Y-38100000D03*
%TO.P,J1,8,GPIO14/TXD*%
%TO.N,/TXD*%
X43180000Y-38100000D03*
%TO.P,J1,9,GND*%
%TO.N,unconnected-(J1-GND-Pad9)*%
X40640000Y-40640000D03*
%TO.P,J1,10,GPIO15/RXD*%
%TO.N,/RXD*%
X43180000Y-40640000D03*
%TO.P,J1,11,GPIO17*%
%TO.N,unconnected-(J1-GPIO17-Pad11)*%
X40640000Y-43180000D03*
%TO.P,J1,12,GPIO18/PWM0*%
%TO.N,/BEEPER*%
X43180000Y-43180000D03*
%TO.P,J1,13,GPIO27*%
%TO.N,/MOTOR_BACKWARD*%
X40640000Y-45720000D03*
%TO.P,J1,14,GND*%
%TO.N,unconnected-(J1-GND-Pad14)*%
X43180000Y-45720000D03*
%TO.P,J1,15,GPIO22*%
%TO.N,/MOTOR_FORWARD*%
X40640000Y-48260000D03*
%TO.P,J1,16,GPIO23*%
%TO.N,unconnected-(J1-GPIO23-Pad16)*%
X43180000Y-48260000D03*
%TO.P,J1,17,3V3*%
%TO.N,+3V3*%
X40640000Y-50800000D03*
%TO.P,J1,18,GPIO24*%
%TO.N,unconnected-(J1-GPIO24-Pad18)*%
X43180000Y-50800000D03*
%TO.P,J1,19,MOSI0/GPIO10*%
%TO.N,unconnected-(J1-MOSI0{slash}GPIO10-Pad19)*%
X40640000Y-53340000D03*
%TO.P,J1,20,GND*%
%TO.N,GND*%
X43180000Y-53340000D03*
%TO.P,J1,21,MISO0/GPIO9*%
%TO.N,unconnected-(J1-MISO0{slash}GPIO9-Pad21)*%
X40640000Y-55880000D03*
%TO.P,J1,22,GPIO25*%
%TO.N,unconnected-(J1-GPIO25-Pad22)*%
X43180000Y-55880000D03*
%TO.P,J1,23,SCLK0/GPIO11*%
%TO.N,unconnected-(J1-SCLK0{slash}GPIO11-Pad23)*%
X40640000Y-58420000D03*
%TO.P,J1,24,~{CE0}/GPIO8*%
%TO.N,unconnected-(J1-~{CE0}{slash}GPIO8-Pad24)*%
X43180000Y-58420000D03*
%TO.P,J1,25,GND*%
%TO.N,unconnected-(J1-GND-Pad25)*%
X40640000Y-60960000D03*
%TO.P,J1,26,~{CE1}/GPIO7*%
%TO.N,unconnected-(J1-~{CE1}{slash}GPIO7-Pad26)*%
X43180000Y-60960000D03*
%TO.P,J1,27,ID_SD/GPIO0*%
%TO.N,unconnected-(J1-ID_SD{slash}GPIO0-Pad27)*%
X40640000Y-63500000D03*
%TO.P,J1,28,ID_SC/GPIO1*%
%TO.N,unconnected-(J1-ID_SC{slash}GPIO1-Pad28)*%
X43180000Y-63500000D03*
%TO.P,J1,29,GCLK1/GPIO5*%
%TO.N,unconnected-(J1-GCLK1{slash}GPIO5-Pad29)*%
X40640000Y-66040000D03*
%TO.P,J1,30,GND*%
%TO.N,unconnected-(J1-GND-Pad30)*%
X43180000Y-66040000D03*
%TO.P,J1,31,GCLK2/GPIO6*%
%TO.N,/LED_GPIO*%
X40640000Y-68580000D03*
%TO.P,J1,32,PWM0/GPIO12*%
%TO.N,unconnected-(J1-PWM0{slash}GPIO12-Pad32)*%
X43180000Y-68580000D03*
%TO.P,J1,33,PWM1/GPIO13*%
%TO.N,unconnected-(J1-PWM1{slash}GPIO13-Pad33)*%
X40640000Y-71120000D03*
%TO.P,J1,34,GND*%
%TO.N,unconnected-(J1-GND-Pad34)*%
X43180000Y-71120000D03*
%TO.P,J1,35,GPIO19/MISO1*%
%TO.N,unconnected-(J1-GPIO19{slash}MISO1-Pad35)*%
X40640000Y-73660000D03*
%TO.P,J1,36,GPIO16*%
%TO.N,unconnected-(J1-GPIO16-Pad36)*%
X43180000Y-73660000D03*
%TO.P,J1,37,GPIO26*%
%TO.N,unconnected-(J1-GPIO26-Pad37)*%
X40640000Y-76200000D03*
%TO.P,J1,38,GPIO20/MOSI1*%
%TO.N,unconnected-(J1-GPIO20{slash}MOSI1-Pad38)*%
X43180000Y-76200000D03*
%TO.P,J1,39,GND*%
%TO.N,unconnected-(J1-GND-Pad39)*%
X40640000Y-78740000D03*
%TO.P,J1,40,GPIO21/SCLK1*%
%TO.N,unconnected-(J1-GPIO21{slash}SCLK1-Pad40)*%
X43180000Y-78740000D03*
%TD*%
D14*
%TO.N,/MOTOR_BACKWARD*%
X38100000Y-45720000D03*
X34322476Y-48295587D03*
%TO.N,VCC*%
X36834519Y-39251178D03*
%TO.N,/MOTOR_F_OUT*%
X30480000Y-33020000D03*
%TO.N,/MOTOR_R_OUT*%
X30480000Y-35560000D03*
%TD*%
D15*
%TO.N,/MOTOR_BACKWARD*%
X38100000Y-45720000D02*
X35524413Y-48295587D01*
X35524413Y-48295587D02*
X34322476Y-48295587D01*
%TO.N,VCC*%
X39086724Y-39268453D02*
X36851794Y-39268453D01*
X39086724Y-39268453D02*
X39283271Y-39465000D01*
X33930000Y-67210000D02*
X35560000Y-67210000D01*
X32630000Y-43455697D02*
X32630000Y-65910000D01*
X42005000Y-34195000D02*
X42005000Y-38396701D01*
X39283271Y-39465000D02*
X40936701Y-39465000D01*
X32630000Y-65910000D02*
X33930000Y-67210000D01*
X42005000Y-38396701D02*
X40936701Y-39465000D01*
X43180000Y-33020000D02*
X42005000Y-34195000D01*
X36834519Y-39251178D02*
X32630000Y-43455697D01*
X43180000Y-30480000D02*
X43180000Y-33020000D01*
X36851794Y-39268453D02*
X36834519Y-39251178D01*
%TO.N,/MOTOR_F_OUT*%
X29755000Y-33745000D02*
X29755000Y-70395000D01*
X30480000Y-33020000D02*
X29755000Y-33745000D01*
X29755000Y-70395000D02*
X33020000Y-73660000D01*
%TO.N,/MOTOR_R_OUT*%
X30480000Y-35560000D02*
X30480000Y-68580000D01*
X30480000Y-68580000D02*
X35560000Y-73660000D01*
%TO.N,/BEEPER*%
X42693299Y-57245000D02*
X42005000Y-57933299D01*
X43180000Y-43180000D02*
X44355000Y-44355000D01*
X44355000Y-57245000D02*
X42693299Y-57245000D01*
X42005000Y-57933299D02*
X42005000Y-58716701D01*
X42005000Y-58716701D02*
X41011701Y-59710000D01*
X44355000Y-44355000D02*
X44355000Y-57245000D01*
X35560000Y-59710000D02*
X41011701Y-59710000D01*
%TO.N,/TXD*%
X39460001Y-54710000D02*
X35560000Y-54710000D01*
X39465000Y-54705001D02*
X39460001Y-54710000D01*
X43180000Y-38100000D02*
X42005000Y-39275000D01*
X40153299Y-42005000D02*
X39465000Y-42693299D01*
X39465000Y-42693299D02*
X39465000Y-54705001D01*
X42005000Y-39275000D02*
X42005000Y-41126701D01*
X42005000Y-41126701D02*
X41126701Y-42005000D01*
X41126701Y-42005000D02*
X40153299Y-42005000D01*
%TO.N,/RXD*%
X42005000Y-41815000D02*
X43180000Y-40640000D01*
X42005000Y-57055000D02*
X42005000Y-41815000D01*
X41850000Y-57210000D02*
X42005000Y-57055000D01*
X35560000Y-57210000D02*
X41850000Y-57210000D01*
%TD*%
M02*
