%TF.GenerationSoftware,KiCad,Pcbnew,8.0.8*%
%TF.CreationDate,2025-02-04T18:57:15-05:00*%
%TF.ProjectId,zuul,7a75756c-2e6b-4696-9361-645f70636258,rev?*%
%TF.SameCoordinates,Original*%
%TF.FileFunction,Legend,Bot*%
%TF.FilePolarity,Positive*%
%FSLAX46Y46*%
G04 Gerber Fmt 4.6, Leading zero omitted, Abs format (unit mm)*
G04 Created by KiCad (PCBNEW 8.0.8) date 2025-02-04 18:57:15*
%MOMM*%
%LPD*%
G01*
G04 APERTURE LIST*
%ADD10C,0.150000*%
%ADD11C,0.120000*%
G04 APERTURE END LIST*
D10*
X30204819Y-72621666D02*
X30919104Y-72621666D01*
X30919104Y-72621666D02*
X31061961Y-72574047D01*
X31061961Y-72574047D02*
X31157200Y-72478809D01*
X31157200Y-72478809D02*
X31204819Y-72335952D01*
X31204819Y-72335952D02*
X31204819Y-72240714D01*
X30300057Y-73050238D02*
X30252438Y-73097857D01*
X30252438Y-73097857D02*
X30204819Y-73193095D01*
X30204819Y-73193095D02*
X30204819Y-73431190D01*
X30204819Y-73431190D02*
X30252438Y-73526428D01*
X30252438Y-73526428D02*
X30300057Y-73574047D01*
X30300057Y-73574047D02*
X30395295Y-73621666D01*
X30395295Y-73621666D02*
X30490533Y-73621666D01*
X30490533Y-73621666D02*
X30633390Y-73574047D01*
X30633390Y-73574047D02*
X31204819Y-73002619D01*
X31204819Y-73002619D02*
X31204819Y-73621666D01*
X37808819Y-60626666D02*
X38523104Y-60626666D01*
X38523104Y-60626666D02*
X38665961Y-60579047D01*
X38665961Y-60579047D02*
X38761200Y-60483809D01*
X38761200Y-60483809D02*
X38808819Y-60340952D01*
X38808819Y-60340952D02*
X38808819Y-60245714D01*
X37808819Y-61579047D02*
X37808819Y-61102857D01*
X37808819Y-61102857D02*
X38285009Y-61055238D01*
X38285009Y-61055238D02*
X38237390Y-61102857D01*
X38237390Y-61102857D02*
X38189771Y-61198095D01*
X38189771Y-61198095D02*
X38189771Y-61436190D01*
X38189771Y-61436190D02*
X38237390Y-61531428D01*
X38237390Y-61531428D02*
X38285009Y-61579047D01*
X38285009Y-61579047D02*
X38380247Y-61626666D01*
X38380247Y-61626666D02*
X38618342Y-61626666D01*
X38618342Y-61626666D02*
X38713580Y-61579047D01*
X38713580Y-61579047D02*
X38761200Y-61531428D01*
X38761200Y-61531428D02*
X38808819Y-61436190D01*
X38808819Y-61436190D02*
X38808819Y-61198095D01*
X38808819Y-61198095D02*
X38761200Y-61102857D01*
X38761200Y-61102857D02*
X38713580Y-61055238D01*
X42243333Y-27164819D02*
X42243333Y-27879104D01*
X42243333Y-27879104D02*
X42290952Y-28021961D01*
X42290952Y-28021961D02*
X42386190Y-28117200D01*
X42386190Y-28117200D02*
X42529047Y-28164819D01*
X42529047Y-28164819D02*
X42624285Y-28164819D01*
X41243333Y-28164819D02*
X41814761Y-28164819D01*
X41529047Y-28164819D02*
X41529047Y-27164819D01*
X41529047Y-27164819D02*
X41624285Y-27307676D01*
X41624285Y-27307676D02*
X41719523Y-27402914D01*
X41719523Y-27402914D02*
X41814761Y-27450533D01*
D11*
%TO.C,J2*%
X33020000Y-72390000D02*
X31750000Y-72390000D01*
X31750000Y-72390000D02*
X31750000Y-73660000D01*
%TO.C,J5*%
X26250000Y-69770000D02*
X37970000Y-69770000D01*
X37970000Y-69770000D02*
X37970000Y-68350000D01*
X33470000Y-68350000D02*
X33470000Y-60960000D01*
X37970000Y-68350000D02*
X33470000Y-68350000D01*
X37660000Y-67510000D02*
X37660000Y-66910000D01*
X26860000Y-67460000D02*
X26860000Y-66960000D01*
X32360000Y-67460000D02*
X26860000Y-67460000D01*
X37060000Y-67210000D02*
X37660000Y-67510000D01*
X26860000Y-66960000D02*
X32360000Y-66960000D01*
X32360000Y-66960000D02*
X32360000Y-67460000D01*
X37660000Y-66910000D02*
X37060000Y-67210000D01*
X26860000Y-64960000D02*
X26860000Y-64460000D01*
X32360000Y-64960000D02*
X26860000Y-64960000D01*
X26860000Y-64460000D02*
X32360000Y-64460000D01*
X32360000Y-64460000D02*
X32360000Y-64960000D01*
X26860000Y-62460000D02*
X26860000Y-61960000D01*
X32360000Y-62460000D02*
X26860000Y-62460000D01*
X26860000Y-61960000D02*
X32360000Y-61960000D01*
X32360000Y-61960000D02*
X32360000Y-62460000D01*
X26250000Y-60960000D02*
X26250000Y-69770000D01*
X26250000Y-60960000D02*
X26250000Y-52150000D01*
X26860000Y-59960000D02*
X26860000Y-59460000D01*
X32360000Y-59960000D02*
X26860000Y-59960000D01*
X26860000Y-59460000D02*
X32360000Y-59460000D01*
X32360000Y-59460000D02*
X32360000Y-59960000D01*
X26860000Y-57460000D02*
X26860000Y-56960000D01*
X32360000Y-57460000D02*
X26860000Y-57460000D01*
X26860000Y-56960000D02*
X32360000Y-56960000D01*
X32360000Y-56960000D02*
X32360000Y-57460000D01*
X26860000Y-54960000D02*
X26860000Y-54460000D01*
X32360000Y-54960000D02*
X26860000Y-54960000D01*
X26860000Y-54460000D02*
X32360000Y-54460000D01*
X32360000Y-54460000D02*
X32360000Y-54960000D01*
X33470000Y-53570000D02*
X33470000Y-60960000D01*
X37970000Y-53570000D02*
X33470000Y-53570000D01*
X26250000Y-52150000D02*
X37970000Y-52150000D01*
X37970000Y-52150000D02*
X37970000Y-53570000D01*
%TO.C,J1*%
X44510000Y-80070000D02*
X39310000Y-80070000D01*
X44510000Y-29150000D02*
X44510000Y-80070000D01*
X44510000Y-29150000D02*
X41910000Y-29150000D01*
X41910000Y-31750000D02*
X39310000Y-31750000D01*
X41910000Y-29150000D02*
X41910000Y-31750000D01*
X40640000Y-29150000D02*
X39310000Y-29150000D01*
X39310000Y-31750000D02*
X39310000Y-80070000D01*
X39310000Y-29150000D02*
X39310000Y-30480000D01*
%TD*%
M02*
