%TF.GenerationSoftware,KiCad,Pcbnew,7.0.10*%
%TF.CreationDate,2024-01-20T20:35:47-05:00*%
%TF.ProjectId,zuul,7a75756c-2e6b-4696-9361-645f70636258,rev?*%
%TF.SameCoordinates,Original*%
%TF.FileFunction,Soldermask,Bot*%
%TF.FilePolarity,Negative*%
%FSLAX46Y46*%
G04 Gerber Fmt 4.6, Leading zero omitted, Abs format (unit mm)*
G04 Created by KiCad (PCBNEW 7.0.10) date 2024-01-20 20:35:47*
%MOMM*%
%LPD*%
G01*
G04 APERTURE LIST*
%ADD10R,1.700000X1.700000*%
%ADD11O,1.700000X1.700000*%
G04 APERTURE END LIST*
D10*
%TO.C,J3*%
X32315000Y-58420000D03*
D11*
X32315000Y-60960000D03*
X32315000Y-63500000D03*
X32315000Y-66040000D03*
%TD*%
D10*
%TO.C,J2*%
X34295000Y-29775000D03*
D11*
X31755000Y-29775000D03*
%TD*%
D10*
%TO.C,J4*%
X32315000Y-69845000D03*
D11*
X32315000Y-72385000D03*
%TD*%
D10*
%TO.C,J1*%
X40640000Y-30480000D03*
D11*
X43180000Y-30480000D03*
X40640000Y-33020000D03*
X43180000Y-33020000D03*
X40640000Y-35560000D03*
X43180000Y-35560000D03*
X40640000Y-38100000D03*
X43180000Y-38100000D03*
X40640000Y-40640000D03*
X43180000Y-40640000D03*
X40640000Y-43180000D03*
X43180000Y-43180000D03*
X40640000Y-45720000D03*
X43180000Y-45720000D03*
X40640000Y-48260000D03*
X43180000Y-48260000D03*
X40640000Y-50800000D03*
X43180000Y-50800000D03*
X40640000Y-53340000D03*
X43180000Y-53340000D03*
X40640000Y-55880000D03*
X43180000Y-55880000D03*
X40640000Y-58420000D03*
X43180000Y-58420000D03*
X40640000Y-60960000D03*
X43180000Y-60960000D03*
X40640000Y-63500000D03*
X43180000Y-63500000D03*
X40640000Y-66040000D03*
X43180000Y-66040000D03*
X40640000Y-68580000D03*
X43180000Y-68580000D03*
X40640000Y-71120000D03*
X43180000Y-71120000D03*
X40640000Y-73660000D03*
X43180000Y-73660000D03*
X40640000Y-76200000D03*
X43180000Y-76200000D03*
X40640000Y-78740000D03*
X43180000Y-78740000D03*
%TD*%
M02*
