%TF.GenerationSoftware,KiCad,Pcbnew,8.0.8*%
%TF.CreationDate,2025-02-04T18:57:20-05:00*%
%TF.ProjectId,zuul,7a75756c-2e6b-4696-9361-645f70636258,rev?*%
%TF.SameCoordinates,Original*%
%TF.FileFunction,Drillmap*%
%TF.FilePolarity,Positive*%
%FSLAX45Y45*%
G04 Gerber Fmt 4.5, Leading zero omitted, Abs format (unit mm)*
G04 Created by KiCad (PCBNEW 8.0.8) date 2025-02-04 18:57:20*
%MOMM*%
%LPD*%
G01*
G04 APERTURE LIST*
%ADD10C,0.100000*%
%ADD11C,0.200000*%
G04 APERTURE END LIST*
D10*
X2794000Y-2540000D02*
X4572000Y-2540000D01*
X4572000Y-8128000D01*
X2794000Y-8128000D01*
X2794000Y-2540000D01*
D11*
D10*
X3028000Y-3282000D02*
X3068000Y-3322000D01*
X3068000Y-3282000D02*
X3028000Y-3322000D01*
X3028000Y-3536000D02*
X3068000Y-3576000D01*
X3068000Y-3536000D02*
X3028000Y-3576000D01*
X3412248Y-4809559D02*
X3452248Y-4849559D01*
X3452248Y-4809559D02*
X3412248Y-4849559D01*
X3663452Y-3905118D02*
X3703452Y-3945118D01*
X3703452Y-3905118D02*
X3663452Y-3945118D01*
X3790000Y-4552000D02*
X3830000Y-4592000D01*
X3830000Y-4552000D02*
X3790000Y-4592000D01*
X3603500Y-5471000D02*
G75*
G02*
X3508500Y-5471000I-47500J0D01*
G01*
X3508500Y-5471000D02*
G75*
G02*
X3603500Y-5471000I47500J0D01*
G01*
X3603500Y-5721000D02*
G75*
G02*
X3508500Y-5721000I-47500J0D01*
G01*
X3508500Y-5721000D02*
G75*
G02*
X3603500Y-5721000I47500J0D01*
G01*
X3603500Y-5971000D02*
G75*
G02*
X3508500Y-5971000I-47500J0D01*
G01*
X3508500Y-5971000D02*
G75*
G02*
X3603500Y-5971000I47500J0D01*
G01*
X3603500Y-6221000D02*
G75*
G02*
X3508500Y-6221000I-47500J0D01*
G01*
X3508500Y-6221000D02*
G75*
G02*
X3603500Y-6221000I47500J0D01*
G01*
X3603500Y-6471000D02*
G75*
G02*
X3508500Y-6471000I-47500J0D01*
G01*
X3508500Y-6471000D02*
G75*
G02*
X3603500Y-6471000I47500J0D01*
G01*
X3603500Y-6721000D02*
G75*
G02*
X3508500Y-6721000I-47500J0D01*
G01*
X3508500Y-6721000D02*
G75*
G02*
X3603500Y-6721000I47500J0D01*
G01*
X3302000Y-7316000D02*
X3302000Y-7416000D01*
X3252000Y-7366000D02*
X3352000Y-7366000D01*
X3556000Y-7316000D02*
X3556000Y-7416000D01*
X3506000Y-7366000D02*
X3606000Y-7366000D01*
X4064000Y-2998000D02*
X4064000Y-3098000D01*
X4014000Y-3048000D02*
X4114000Y-3048000D01*
X4064000Y-3252000D02*
X4064000Y-3352000D01*
X4014000Y-3302000D02*
X4114000Y-3302000D01*
X4064000Y-3506000D02*
X4064000Y-3606000D01*
X4014000Y-3556000D02*
X4114000Y-3556000D01*
X4064000Y-3760000D02*
X4064000Y-3860000D01*
X4014000Y-3810000D02*
X4114000Y-3810000D01*
X4064000Y-4014000D02*
X4064000Y-4114000D01*
X4014000Y-4064000D02*
X4114000Y-4064000D01*
X4064000Y-4268000D02*
X4064000Y-4368000D01*
X4014000Y-4318000D02*
X4114000Y-4318000D01*
X4064000Y-4522000D02*
X4064000Y-4622000D01*
X4014000Y-4572000D02*
X4114000Y-4572000D01*
X4064000Y-4776000D02*
X4064000Y-4876000D01*
X4014000Y-4826000D02*
X4114000Y-4826000D01*
X4064000Y-5030000D02*
X4064000Y-5130000D01*
X4014000Y-5080000D02*
X4114000Y-5080000D01*
X4064000Y-5284000D02*
X4064000Y-5384000D01*
X4014000Y-5334000D02*
X4114000Y-5334000D01*
X4064000Y-5538000D02*
X4064000Y-5638000D01*
X4014000Y-5588000D02*
X4114000Y-5588000D01*
X4064000Y-5792000D02*
X4064000Y-5892000D01*
X4014000Y-5842000D02*
X4114000Y-5842000D01*
X4064000Y-6046000D02*
X4064000Y-6146000D01*
X4014000Y-6096000D02*
X4114000Y-6096000D01*
X4064000Y-6300000D02*
X4064000Y-6400000D01*
X4014000Y-6350000D02*
X4114000Y-6350000D01*
X4064000Y-6554000D02*
X4064000Y-6654000D01*
X4014000Y-6604000D02*
X4114000Y-6604000D01*
X4064000Y-6808000D02*
X4064000Y-6908000D01*
X4014000Y-6858000D02*
X4114000Y-6858000D01*
X4064000Y-7062000D02*
X4064000Y-7162000D01*
X4014000Y-7112000D02*
X4114000Y-7112000D01*
X4064000Y-7316000D02*
X4064000Y-7416000D01*
X4014000Y-7366000D02*
X4114000Y-7366000D01*
X4064000Y-7570000D02*
X4064000Y-7670000D01*
X4014000Y-7620000D02*
X4114000Y-7620000D01*
X4064000Y-7824000D02*
X4064000Y-7924000D01*
X4014000Y-7874000D02*
X4114000Y-7874000D01*
X4318000Y-2998000D02*
X4318000Y-3098000D01*
X4268000Y-3048000D02*
X4368000Y-3048000D01*
X4318000Y-3252000D02*
X4318000Y-3352000D01*
X4268000Y-3302000D02*
X4368000Y-3302000D01*
X4318000Y-3506000D02*
X4318000Y-3606000D01*
X4268000Y-3556000D02*
X4368000Y-3556000D01*
X4318000Y-3760000D02*
X4318000Y-3860000D01*
X4268000Y-3810000D02*
X4368000Y-3810000D01*
X4318000Y-4014000D02*
X4318000Y-4114000D01*
X4268000Y-4064000D02*
X4368000Y-4064000D01*
X4318000Y-4268000D02*
X4318000Y-4368000D01*
X4268000Y-4318000D02*
X4368000Y-4318000D01*
X4318000Y-4522000D02*
X4318000Y-4622000D01*
X4268000Y-4572000D02*
X4368000Y-4572000D01*
X4318000Y-4776000D02*
X4318000Y-4876000D01*
X4268000Y-4826000D02*
X4368000Y-4826000D01*
X4318000Y-5030000D02*
X4318000Y-5130000D01*
X4268000Y-5080000D02*
X4368000Y-5080000D01*
X4318000Y-5284000D02*
X4318000Y-5384000D01*
X4268000Y-5334000D02*
X4368000Y-5334000D01*
X4318000Y-5538000D02*
X4318000Y-5638000D01*
X4268000Y-5588000D02*
X4368000Y-5588000D01*
X4318000Y-5792000D02*
X4318000Y-5892000D01*
X4268000Y-5842000D02*
X4368000Y-5842000D01*
X4318000Y-6046000D02*
X4318000Y-6146000D01*
X4268000Y-6096000D02*
X4368000Y-6096000D01*
X4318000Y-6300000D02*
X4318000Y-6400000D01*
X4268000Y-6350000D02*
X4368000Y-6350000D01*
X4318000Y-6554000D02*
X4318000Y-6654000D01*
X4268000Y-6604000D02*
X4368000Y-6604000D01*
X4318000Y-6808000D02*
X4318000Y-6908000D01*
X4268000Y-6858000D02*
X4368000Y-6858000D01*
X4318000Y-7062000D02*
X4318000Y-7162000D01*
X4268000Y-7112000D02*
X4368000Y-7112000D01*
X4318000Y-7316000D02*
X4318000Y-7416000D01*
X4268000Y-7366000D02*
X4368000Y-7366000D01*
X4318000Y-7570000D02*
X4318000Y-7670000D01*
X4268000Y-7620000D02*
X4368000Y-7620000D01*
X4318000Y-7824000D02*
X4318000Y-7924000D01*
X4268000Y-7874000D02*
X4368000Y-7874000D01*
D11*
X3049777Y-8444484D02*
X3049777Y-8244484D01*
X3049777Y-8244484D02*
X3097396Y-8244484D01*
X3097396Y-8244484D02*
X3125967Y-8254008D01*
X3125967Y-8254008D02*
X3145015Y-8273055D01*
X3145015Y-8273055D02*
X3154539Y-8292103D01*
X3154539Y-8292103D02*
X3164062Y-8330198D01*
X3164062Y-8330198D02*
X3164062Y-8358769D01*
X3164062Y-8358769D02*
X3154539Y-8396865D01*
X3154539Y-8396865D02*
X3145015Y-8415912D01*
X3145015Y-8415912D02*
X3125967Y-8434960D01*
X3125967Y-8434960D02*
X3097396Y-8444484D01*
X3097396Y-8444484D02*
X3049777Y-8444484D01*
X3249777Y-8444484D02*
X3249777Y-8311150D01*
X3249777Y-8349246D02*
X3259301Y-8330198D01*
X3259301Y-8330198D02*
X3268824Y-8320674D01*
X3268824Y-8320674D02*
X3287872Y-8311150D01*
X3287872Y-8311150D02*
X3306920Y-8311150D01*
X3373586Y-8444484D02*
X3373586Y-8311150D01*
X3373586Y-8244484D02*
X3364062Y-8254008D01*
X3364062Y-8254008D02*
X3373586Y-8263531D01*
X3373586Y-8263531D02*
X3383110Y-8254008D01*
X3383110Y-8254008D02*
X3373586Y-8244484D01*
X3373586Y-8244484D02*
X3373586Y-8263531D01*
X3497396Y-8444484D02*
X3478348Y-8434960D01*
X3478348Y-8434960D02*
X3468824Y-8415912D01*
X3468824Y-8415912D02*
X3468824Y-8244484D01*
X3602158Y-8444484D02*
X3583110Y-8434960D01*
X3583110Y-8434960D02*
X3573586Y-8415912D01*
X3573586Y-8415912D02*
X3573586Y-8244484D01*
X3830729Y-8444484D02*
X3830729Y-8244484D01*
X3830729Y-8244484D02*
X3897396Y-8387341D01*
X3897396Y-8387341D02*
X3964062Y-8244484D01*
X3964062Y-8244484D02*
X3964062Y-8444484D01*
X4145015Y-8444484D02*
X4145015Y-8339722D01*
X4145015Y-8339722D02*
X4135491Y-8320674D01*
X4135491Y-8320674D02*
X4116443Y-8311150D01*
X4116443Y-8311150D02*
X4078348Y-8311150D01*
X4078348Y-8311150D02*
X4059301Y-8320674D01*
X4145015Y-8434960D02*
X4125967Y-8444484D01*
X4125967Y-8444484D02*
X4078348Y-8444484D01*
X4078348Y-8444484D02*
X4059301Y-8434960D01*
X4059301Y-8434960D02*
X4049777Y-8415912D01*
X4049777Y-8415912D02*
X4049777Y-8396865D01*
X4049777Y-8396865D02*
X4059301Y-8377817D01*
X4059301Y-8377817D02*
X4078348Y-8368293D01*
X4078348Y-8368293D02*
X4125967Y-8368293D01*
X4125967Y-8368293D02*
X4145015Y-8358769D01*
X4240253Y-8311150D02*
X4240253Y-8511150D01*
X4240253Y-8320674D02*
X4259301Y-8311150D01*
X4259301Y-8311150D02*
X4297396Y-8311150D01*
X4297396Y-8311150D02*
X4316444Y-8320674D01*
X4316444Y-8320674D02*
X4325967Y-8330198D01*
X4325967Y-8330198D02*
X4335491Y-8349246D01*
X4335491Y-8349246D02*
X4335491Y-8406389D01*
X4335491Y-8406389D02*
X4325967Y-8425436D01*
X4325967Y-8425436D02*
X4316444Y-8434960D01*
X4316444Y-8434960D02*
X4297396Y-8444484D01*
X4297396Y-8444484D02*
X4259301Y-8444484D01*
X4259301Y-8444484D02*
X4240253Y-8434960D01*
X4421205Y-8425436D02*
X4430729Y-8434960D01*
X4430729Y-8434960D02*
X4421205Y-8444484D01*
X4421205Y-8444484D02*
X4411682Y-8434960D01*
X4411682Y-8434960D02*
X4421205Y-8425436D01*
X4421205Y-8425436D02*
X4421205Y-8444484D01*
X4421205Y-8320674D02*
X4430729Y-8330198D01*
X4430729Y-8330198D02*
X4421205Y-8339722D01*
X4421205Y-8339722D02*
X4411682Y-8330198D01*
X4411682Y-8330198D02*
X4421205Y-8320674D01*
X4421205Y-8320674D02*
X4421205Y-8339722D01*
D10*
X2749000Y-8753000D02*
X2789000Y-8793000D01*
X2789000Y-8753000D02*
X2749000Y-8793000D01*
D11*
X3087872Y-8664484D02*
X3106920Y-8664484D01*
X3106920Y-8664484D02*
X3125967Y-8674008D01*
X3125967Y-8674008D02*
X3135491Y-8683531D01*
X3135491Y-8683531D02*
X3145015Y-8702579D01*
X3145015Y-8702579D02*
X3154539Y-8740674D01*
X3154539Y-8740674D02*
X3154539Y-8788293D01*
X3154539Y-8788293D02*
X3145015Y-8826389D01*
X3145015Y-8826389D02*
X3135491Y-8845436D01*
X3135491Y-8845436D02*
X3125967Y-8854960D01*
X3125967Y-8854960D02*
X3106920Y-8864484D01*
X3106920Y-8864484D02*
X3087872Y-8864484D01*
X3087872Y-8864484D02*
X3068824Y-8854960D01*
X3068824Y-8854960D02*
X3059301Y-8845436D01*
X3059301Y-8845436D02*
X3049777Y-8826389D01*
X3049777Y-8826389D02*
X3040253Y-8788293D01*
X3040253Y-8788293D02*
X3040253Y-8740674D01*
X3040253Y-8740674D02*
X3049777Y-8702579D01*
X3049777Y-8702579D02*
X3059301Y-8683531D01*
X3059301Y-8683531D02*
X3068824Y-8674008D01*
X3068824Y-8674008D02*
X3087872Y-8664484D01*
X3240253Y-8845436D02*
X3249777Y-8854960D01*
X3249777Y-8854960D02*
X3240253Y-8864484D01*
X3240253Y-8864484D02*
X3230729Y-8854960D01*
X3230729Y-8854960D02*
X3240253Y-8845436D01*
X3240253Y-8845436D02*
X3240253Y-8864484D01*
X3421205Y-8731150D02*
X3421205Y-8864484D01*
X3373586Y-8654960D02*
X3325967Y-8797817D01*
X3325967Y-8797817D02*
X3449777Y-8797817D01*
X3564062Y-8664484D02*
X3583110Y-8664484D01*
X3583110Y-8664484D02*
X3602158Y-8674008D01*
X3602158Y-8674008D02*
X3611682Y-8683531D01*
X3611682Y-8683531D02*
X3621205Y-8702579D01*
X3621205Y-8702579D02*
X3630729Y-8740674D01*
X3630729Y-8740674D02*
X3630729Y-8788293D01*
X3630729Y-8788293D02*
X3621205Y-8826389D01*
X3621205Y-8826389D02*
X3611682Y-8845436D01*
X3611682Y-8845436D02*
X3602158Y-8854960D01*
X3602158Y-8854960D02*
X3583110Y-8864484D01*
X3583110Y-8864484D02*
X3564062Y-8864484D01*
X3564062Y-8864484D02*
X3545015Y-8854960D01*
X3545015Y-8854960D02*
X3535491Y-8845436D01*
X3535491Y-8845436D02*
X3525967Y-8826389D01*
X3525967Y-8826389D02*
X3516443Y-8788293D01*
X3516443Y-8788293D02*
X3516443Y-8740674D01*
X3516443Y-8740674D02*
X3525967Y-8702579D01*
X3525967Y-8702579D02*
X3535491Y-8683531D01*
X3535491Y-8683531D02*
X3545015Y-8674008D01*
X3545015Y-8674008D02*
X3564062Y-8664484D01*
X3754539Y-8664484D02*
X3773586Y-8664484D01*
X3773586Y-8664484D02*
X3792634Y-8674008D01*
X3792634Y-8674008D02*
X3802158Y-8683531D01*
X3802158Y-8683531D02*
X3811682Y-8702579D01*
X3811682Y-8702579D02*
X3821205Y-8740674D01*
X3821205Y-8740674D02*
X3821205Y-8788293D01*
X3821205Y-8788293D02*
X3811682Y-8826389D01*
X3811682Y-8826389D02*
X3802158Y-8845436D01*
X3802158Y-8845436D02*
X3792634Y-8854960D01*
X3792634Y-8854960D02*
X3773586Y-8864484D01*
X3773586Y-8864484D02*
X3754539Y-8864484D01*
X3754539Y-8864484D02*
X3735491Y-8854960D01*
X3735491Y-8854960D02*
X3725967Y-8845436D01*
X3725967Y-8845436D02*
X3716443Y-8826389D01*
X3716443Y-8826389D02*
X3706920Y-8788293D01*
X3706920Y-8788293D02*
X3706920Y-8740674D01*
X3706920Y-8740674D02*
X3716443Y-8702579D01*
X3716443Y-8702579D02*
X3725967Y-8683531D01*
X3725967Y-8683531D02*
X3735491Y-8674008D01*
X3735491Y-8674008D02*
X3754539Y-8664484D01*
X3906920Y-8864484D02*
X3906920Y-8731150D01*
X3906920Y-8750198D02*
X3916443Y-8740674D01*
X3916443Y-8740674D02*
X3935491Y-8731150D01*
X3935491Y-8731150D02*
X3964063Y-8731150D01*
X3964063Y-8731150D02*
X3983110Y-8740674D01*
X3983110Y-8740674D02*
X3992634Y-8759722D01*
X3992634Y-8759722D02*
X3992634Y-8864484D01*
X3992634Y-8759722D02*
X4002158Y-8740674D01*
X4002158Y-8740674D02*
X4021205Y-8731150D01*
X4021205Y-8731150D02*
X4049777Y-8731150D01*
X4049777Y-8731150D02*
X4068824Y-8740674D01*
X4068824Y-8740674D02*
X4078348Y-8759722D01*
X4078348Y-8759722D02*
X4078348Y-8864484D01*
X4173586Y-8864484D02*
X4173586Y-8731150D01*
X4173586Y-8750198D02*
X4183110Y-8740674D01*
X4183110Y-8740674D02*
X4202158Y-8731150D01*
X4202158Y-8731150D02*
X4230729Y-8731150D01*
X4230729Y-8731150D02*
X4249777Y-8740674D01*
X4249777Y-8740674D02*
X4259301Y-8759722D01*
X4259301Y-8759722D02*
X4259301Y-8864484D01*
X4259301Y-8759722D02*
X4268825Y-8740674D01*
X4268825Y-8740674D02*
X4287872Y-8731150D01*
X4287872Y-8731150D02*
X4316444Y-8731150D01*
X4316444Y-8731150D02*
X4335491Y-8740674D01*
X4335491Y-8740674D02*
X4345015Y-8759722D01*
X4345015Y-8759722D02*
X4345015Y-8864484D01*
X4735491Y-8654960D02*
X4564063Y-8912103D01*
X4992634Y-8664484D02*
X5011682Y-8664484D01*
X5011682Y-8664484D02*
X5030729Y-8674008D01*
X5030729Y-8674008D02*
X5040253Y-8683531D01*
X5040253Y-8683531D02*
X5049777Y-8702579D01*
X5049777Y-8702579D02*
X5059301Y-8740674D01*
X5059301Y-8740674D02*
X5059301Y-8788293D01*
X5059301Y-8788293D02*
X5049777Y-8826389D01*
X5049777Y-8826389D02*
X5040253Y-8845436D01*
X5040253Y-8845436D02*
X5030729Y-8854960D01*
X5030729Y-8854960D02*
X5011682Y-8864484D01*
X5011682Y-8864484D02*
X4992634Y-8864484D01*
X4992634Y-8864484D02*
X4973587Y-8854960D01*
X4973587Y-8854960D02*
X4964063Y-8845436D01*
X4964063Y-8845436D02*
X4954539Y-8826389D01*
X4954539Y-8826389D02*
X4945015Y-8788293D01*
X4945015Y-8788293D02*
X4945015Y-8740674D01*
X4945015Y-8740674D02*
X4954539Y-8702579D01*
X4954539Y-8702579D02*
X4964063Y-8683531D01*
X4964063Y-8683531D02*
X4973587Y-8674008D01*
X4973587Y-8674008D02*
X4992634Y-8664484D01*
X5145015Y-8845436D02*
X5154539Y-8854960D01*
X5154539Y-8854960D02*
X5145015Y-8864484D01*
X5145015Y-8864484D02*
X5135491Y-8854960D01*
X5135491Y-8854960D02*
X5145015Y-8845436D01*
X5145015Y-8845436D02*
X5145015Y-8864484D01*
X5278348Y-8664484D02*
X5297396Y-8664484D01*
X5297396Y-8664484D02*
X5316444Y-8674008D01*
X5316444Y-8674008D02*
X5325968Y-8683531D01*
X5325968Y-8683531D02*
X5335491Y-8702579D01*
X5335491Y-8702579D02*
X5345015Y-8740674D01*
X5345015Y-8740674D02*
X5345015Y-8788293D01*
X5345015Y-8788293D02*
X5335491Y-8826389D01*
X5335491Y-8826389D02*
X5325968Y-8845436D01*
X5325968Y-8845436D02*
X5316444Y-8854960D01*
X5316444Y-8854960D02*
X5297396Y-8864484D01*
X5297396Y-8864484D02*
X5278348Y-8864484D01*
X5278348Y-8864484D02*
X5259301Y-8854960D01*
X5259301Y-8854960D02*
X5249777Y-8845436D01*
X5249777Y-8845436D02*
X5240253Y-8826389D01*
X5240253Y-8826389D02*
X5230729Y-8788293D01*
X5230729Y-8788293D02*
X5230729Y-8740674D01*
X5230729Y-8740674D02*
X5240253Y-8702579D01*
X5240253Y-8702579D02*
X5249777Y-8683531D01*
X5249777Y-8683531D02*
X5259301Y-8674008D01*
X5259301Y-8674008D02*
X5278348Y-8664484D01*
X5535491Y-8864484D02*
X5421206Y-8864484D01*
X5478348Y-8864484D02*
X5478348Y-8664484D01*
X5478348Y-8664484D02*
X5459301Y-8693055D01*
X5459301Y-8693055D02*
X5440253Y-8712103D01*
X5440253Y-8712103D02*
X5421206Y-8721627D01*
X5716444Y-8664484D02*
X5621206Y-8664484D01*
X5621206Y-8664484D02*
X5611682Y-8759722D01*
X5611682Y-8759722D02*
X5621206Y-8750198D01*
X5621206Y-8750198D02*
X5640253Y-8740674D01*
X5640253Y-8740674D02*
X5687872Y-8740674D01*
X5687872Y-8740674D02*
X5706920Y-8750198D01*
X5706920Y-8750198D02*
X5716444Y-8759722D01*
X5716444Y-8759722D02*
X5725967Y-8778770D01*
X5725967Y-8778770D02*
X5725967Y-8826389D01*
X5725967Y-8826389D02*
X5716444Y-8845436D01*
X5716444Y-8845436D02*
X5706920Y-8854960D01*
X5706920Y-8854960D02*
X5687872Y-8864484D01*
X5687872Y-8864484D02*
X5640253Y-8864484D01*
X5640253Y-8864484D02*
X5621206Y-8854960D01*
X5621206Y-8854960D02*
X5611682Y-8845436D01*
X5792634Y-8664484D02*
X5925967Y-8664484D01*
X5925967Y-8664484D02*
X5840253Y-8864484D01*
X5992634Y-8664484D02*
X5992634Y-8702579D01*
X6068825Y-8664484D02*
X6068825Y-8702579D01*
X6364063Y-8940674D02*
X6354539Y-8931150D01*
X6354539Y-8931150D02*
X6335491Y-8902579D01*
X6335491Y-8902579D02*
X6325968Y-8883531D01*
X6325968Y-8883531D02*
X6316444Y-8854960D01*
X6316444Y-8854960D02*
X6306920Y-8807341D01*
X6306920Y-8807341D02*
X6306920Y-8769246D01*
X6306920Y-8769246D02*
X6316444Y-8721627D01*
X6316444Y-8721627D02*
X6325968Y-8693055D01*
X6325968Y-8693055D02*
X6335491Y-8674008D01*
X6335491Y-8674008D02*
X6354539Y-8645436D01*
X6354539Y-8645436D02*
X6364063Y-8635912D01*
X6535491Y-8664484D02*
X6440253Y-8664484D01*
X6440253Y-8664484D02*
X6430729Y-8759722D01*
X6430729Y-8759722D02*
X6440253Y-8750198D01*
X6440253Y-8750198D02*
X6459301Y-8740674D01*
X6459301Y-8740674D02*
X6506920Y-8740674D01*
X6506920Y-8740674D02*
X6525968Y-8750198D01*
X6525968Y-8750198D02*
X6535491Y-8759722D01*
X6535491Y-8759722D02*
X6545015Y-8778770D01*
X6545015Y-8778770D02*
X6545015Y-8826389D01*
X6545015Y-8826389D02*
X6535491Y-8845436D01*
X6535491Y-8845436D02*
X6525968Y-8854960D01*
X6525968Y-8854960D02*
X6506920Y-8864484D01*
X6506920Y-8864484D02*
X6459301Y-8864484D01*
X6459301Y-8864484D02*
X6440253Y-8854960D01*
X6440253Y-8854960D02*
X6430729Y-8845436D01*
X6783110Y-8864484D02*
X6783110Y-8664484D01*
X6868825Y-8864484D02*
X6868825Y-8759722D01*
X6868825Y-8759722D02*
X6859301Y-8740674D01*
X6859301Y-8740674D02*
X6840253Y-8731150D01*
X6840253Y-8731150D02*
X6811682Y-8731150D01*
X6811682Y-8731150D02*
X6792634Y-8740674D01*
X6792634Y-8740674D02*
X6783110Y-8750198D01*
X6992634Y-8864484D02*
X6973587Y-8854960D01*
X6973587Y-8854960D02*
X6964063Y-8845436D01*
X6964063Y-8845436D02*
X6954539Y-8826389D01*
X6954539Y-8826389D02*
X6954539Y-8769246D01*
X6954539Y-8769246D02*
X6964063Y-8750198D01*
X6964063Y-8750198D02*
X6973587Y-8740674D01*
X6973587Y-8740674D02*
X6992634Y-8731150D01*
X6992634Y-8731150D02*
X7021206Y-8731150D01*
X7021206Y-8731150D02*
X7040253Y-8740674D01*
X7040253Y-8740674D02*
X7049777Y-8750198D01*
X7049777Y-8750198D02*
X7059301Y-8769246D01*
X7059301Y-8769246D02*
X7059301Y-8826389D01*
X7059301Y-8826389D02*
X7049777Y-8845436D01*
X7049777Y-8845436D02*
X7040253Y-8854960D01*
X7040253Y-8854960D02*
X7021206Y-8864484D01*
X7021206Y-8864484D02*
X6992634Y-8864484D01*
X7173587Y-8864484D02*
X7154539Y-8854960D01*
X7154539Y-8854960D02*
X7145015Y-8835912D01*
X7145015Y-8835912D02*
X7145015Y-8664484D01*
X7325968Y-8854960D02*
X7306920Y-8864484D01*
X7306920Y-8864484D02*
X7268825Y-8864484D01*
X7268825Y-8864484D02*
X7249777Y-8854960D01*
X7249777Y-8854960D02*
X7240253Y-8835912D01*
X7240253Y-8835912D02*
X7240253Y-8759722D01*
X7240253Y-8759722D02*
X7249777Y-8740674D01*
X7249777Y-8740674D02*
X7268825Y-8731150D01*
X7268825Y-8731150D02*
X7306920Y-8731150D01*
X7306920Y-8731150D02*
X7325968Y-8740674D01*
X7325968Y-8740674D02*
X7335491Y-8759722D01*
X7335491Y-8759722D02*
X7335491Y-8778770D01*
X7335491Y-8778770D02*
X7240253Y-8797817D01*
X7411682Y-8854960D02*
X7430730Y-8864484D01*
X7430730Y-8864484D02*
X7468825Y-8864484D01*
X7468825Y-8864484D02*
X7487872Y-8854960D01*
X7487872Y-8854960D02*
X7497396Y-8835912D01*
X7497396Y-8835912D02*
X7497396Y-8826389D01*
X7497396Y-8826389D02*
X7487872Y-8807341D01*
X7487872Y-8807341D02*
X7468825Y-8797817D01*
X7468825Y-8797817D02*
X7440253Y-8797817D01*
X7440253Y-8797817D02*
X7421206Y-8788293D01*
X7421206Y-8788293D02*
X7411682Y-8769246D01*
X7411682Y-8769246D02*
X7411682Y-8759722D01*
X7411682Y-8759722D02*
X7421206Y-8740674D01*
X7421206Y-8740674D02*
X7440253Y-8731150D01*
X7440253Y-8731150D02*
X7468825Y-8731150D01*
X7468825Y-8731150D02*
X7487872Y-8740674D01*
X7564063Y-8940674D02*
X7573587Y-8931150D01*
X7573587Y-8931150D02*
X7592634Y-8902579D01*
X7592634Y-8902579D02*
X7602158Y-8883531D01*
X7602158Y-8883531D02*
X7611682Y-8854960D01*
X7611682Y-8854960D02*
X7621206Y-8807341D01*
X7621206Y-8807341D02*
X7621206Y-8769246D01*
X7621206Y-8769246D02*
X7611682Y-8721627D01*
X7611682Y-8721627D02*
X7602158Y-8693055D01*
X7602158Y-8693055D02*
X7592634Y-8674008D01*
X7592634Y-8674008D02*
X7573587Y-8645436D01*
X7573587Y-8645436D02*
X7564063Y-8635912D01*
D10*
X2789000Y-9037000D02*
G75*
G02*
X2694000Y-9037000I-47500J0D01*
G01*
X2694000Y-9037000D02*
G75*
G02*
X2789000Y-9037000I47500J0D01*
G01*
D11*
X3087872Y-8928484D02*
X3106920Y-8928484D01*
X3106920Y-8928484D02*
X3125967Y-8938008D01*
X3125967Y-8938008D02*
X3135491Y-8947531D01*
X3135491Y-8947531D02*
X3145015Y-8966579D01*
X3145015Y-8966579D02*
X3154539Y-9004674D01*
X3154539Y-9004674D02*
X3154539Y-9052293D01*
X3154539Y-9052293D02*
X3145015Y-9090389D01*
X3145015Y-9090389D02*
X3135491Y-9109436D01*
X3135491Y-9109436D02*
X3125967Y-9118960D01*
X3125967Y-9118960D02*
X3106920Y-9128484D01*
X3106920Y-9128484D02*
X3087872Y-9128484D01*
X3087872Y-9128484D02*
X3068824Y-9118960D01*
X3068824Y-9118960D02*
X3059301Y-9109436D01*
X3059301Y-9109436D02*
X3049777Y-9090389D01*
X3049777Y-9090389D02*
X3040253Y-9052293D01*
X3040253Y-9052293D02*
X3040253Y-9004674D01*
X3040253Y-9004674D02*
X3049777Y-8966579D01*
X3049777Y-8966579D02*
X3059301Y-8947531D01*
X3059301Y-8947531D02*
X3068824Y-8938008D01*
X3068824Y-8938008D02*
X3087872Y-8928484D01*
X3240253Y-9109436D02*
X3249777Y-9118960D01*
X3249777Y-9118960D02*
X3240253Y-9128484D01*
X3240253Y-9128484D02*
X3230729Y-9118960D01*
X3230729Y-9118960D02*
X3240253Y-9109436D01*
X3240253Y-9109436D02*
X3240253Y-9128484D01*
X3345015Y-9128484D02*
X3383110Y-9128484D01*
X3383110Y-9128484D02*
X3402158Y-9118960D01*
X3402158Y-9118960D02*
X3411682Y-9109436D01*
X3411682Y-9109436D02*
X3430729Y-9080865D01*
X3430729Y-9080865D02*
X3440253Y-9042770D01*
X3440253Y-9042770D02*
X3440253Y-8966579D01*
X3440253Y-8966579D02*
X3430729Y-8947531D01*
X3430729Y-8947531D02*
X3421205Y-8938008D01*
X3421205Y-8938008D02*
X3402158Y-8928484D01*
X3402158Y-8928484D02*
X3364062Y-8928484D01*
X3364062Y-8928484D02*
X3345015Y-8938008D01*
X3345015Y-8938008D02*
X3335491Y-8947531D01*
X3335491Y-8947531D02*
X3325967Y-8966579D01*
X3325967Y-8966579D02*
X3325967Y-9014198D01*
X3325967Y-9014198D02*
X3335491Y-9033246D01*
X3335491Y-9033246D02*
X3345015Y-9042770D01*
X3345015Y-9042770D02*
X3364062Y-9052293D01*
X3364062Y-9052293D02*
X3402158Y-9052293D01*
X3402158Y-9052293D02*
X3421205Y-9042770D01*
X3421205Y-9042770D02*
X3430729Y-9033246D01*
X3430729Y-9033246D02*
X3440253Y-9014198D01*
X3621205Y-8928484D02*
X3525967Y-8928484D01*
X3525967Y-8928484D02*
X3516443Y-9023722D01*
X3516443Y-9023722D02*
X3525967Y-9014198D01*
X3525967Y-9014198D02*
X3545015Y-9004674D01*
X3545015Y-9004674D02*
X3592634Y-9004674D01*
X3592634Y-9004674D02*
X3611682Y-9014198D01*
X3611682Y-9014198D02*
X3621205Y-9023722D01*
X3621205Y-9023722D02*
X3630729Y-9042770D01*
X3630729Y-9042770D02*
X3630729Y-9090389D01*
X3630729Y-9090389D02*
X3621205Y-9109436D01*
X3621205Y-9109436D02*
X3611682Y-9118960D01*
X3611682Y-9118960D02*
X3592634Y-9128484D01*
X3592634Y-9128484D02*
X3545015Y-9128484D01*
X3545015Y-9128484D02*
X3525967Y-9118960D01*
X3525967Y-9118960D02*
X3516443Y-9109436D01*
X3754539Y-8928484D02*
X3773586Y-8928484D01*
X3773586Y-8928484D02*
X3792634Y-8938008D01*
X3792634Y-8938008D02*
X3802158Y-8947531D01*
X3802158Y-8947531D02*
X3811682Y-8966579D01*
X3811682Y-8966579D02*
X3821205Y-9004674D01*
X3821205Y-9004674D02*
X3821205Y-9052293D01*
X3821205Y-9052293D02*
X3811682Y-9090389D01*
X3811682Y-9090389D02*
X3802158Y-9109436D01*
X3802158Y-9109436D02*
X3792634Y-9118960D01*
X3792634Y-9118960D02*
X3773586Y-9128484D01*
X3773586Y-9128484D02*
X3754539Y-9128484D01*
X3754539Y-9128484D02*
X3735491Y-9118960D01*
X3735491Y-9118960D02*
X3725967Y-9109436D01*
X3725967Y-9109436D02*
X3716443Y-9090389D01*
X3716443Y-9090389D02*
X3706920Y-9052293D01*
X3706920Y-9052293D02*
X3706920Y-9004674D01*
X3706920Y-9004674D02*
X3716443Y-8966579D01*
X3716443Y-8966579D02*
X3725967Y-8947531D01*
X3725967Y-8947531D02*
X3735491Y-8938008D01*
X3735491Y-8938008D02*
X3754539Y-8928484D01*
X3906920Y-9128484D02*
X3906920Y-8995150D01*
X3906920Y-9014198D02*
X3916443Y-9004674D01*
X3916443Y-9004674D02*
X3935491Y-8995150D01*
X3935491Y-8995150D02*
X3964063Y-8995150D01*
X3964063Y-8995150D02*
X3983110Y-9004674D01*
X3983110Y-9004674D02*
X3992634Y-9023722D01*
X3992634Y-9023722D02*
X3992634Y-9128484D01*
X3992634Y-9023722D02*
X4002158Y-9004674D01*
X4002158Y-9004674D02*
X4021205Y-8995150D01*
X4021205Y-8995150D02*
X4049777Y-8995150D01*
X4049777Y-8995150D02*
X4068824Y-9004674D01*
X4068824Y-9004674D02*
X4078348Y-9023722D01*
X4078348Y-9023722D02*
X4078348Y-9128484D01*
X4173586Y-9128484D02*
X4173586Y-8995150D01*
X4173586Y-9014198D02*
X4183110Y-9004674D01*
X4183110Y-9004674D02*
X4202158Y-8995150D01*
X4202158Y-8995150D02*
X4230729Y-8995150D01*
X4230729Y-8995150D02*
X4249777Y-9004674D01*
X4249777Y-9004674D02*
X4259301Y-9023722D01*
X4259301Y-9023722D02*
X4259301Y-9128484D01*
X4259301Y-9023722D02*
X4268825Y-9004674D01*
X4268825Y-9004674D02*
X4287872Y-8995150D01*
X4287872Y-8995150D02*
X4316444Y-8995150D01*
X4316444Y-8995150D02*
X4335491Y-9004674D01*
X4335491Y-9004674D02*
X4345015Y-9023722D01*
X4345015Y-9023722D02*
X4345015Y-9128484D01*
X4735491Y-8918960D02*
X4564063Y-9176103D01*
X4992634Y-8928484D02*
X5011682Y-8928484D01*
X5011682Y-8928484D02*
X5030729Y-8938008D01*
X5030729Y-8938008D02*
X5040253Y-8947531D01*
X5040253Y-8947531D02*
X5049777Y-8966579D01*
X5049777Y-8966579D02*
X5059301Y-9004674D01*
X5059301Y-9004674D02*
X5059301Y-9052293D01*
X5059301Y-9052293D02*
X5049777Y-9090389D01*
X5049777Y-9090389D02*
X5040253Y-9109436D01*
X5040253Y-9109436D02*
X5030729Y-9118960D01*
X5030729Y-9118960D02*
X5011682Y-9128484D01*
X5011682Y-9128484D02*
X4992634Y-9128484D01*
X4992634Y-9128484D02*
X4973587Y-9118960D01*
X4973587Y-9118960D02*
X4964063Y-9109436D01*
X4964063Y-9109436D02*
X4954539Y-9090389D01*
X4954539Y-9090389D02*
X4945015Y-9052293D01*
X4945015Y-9052293D02*
X4945015Y-9004674D01*
X4945015Y-9004674D02*
X4954539Y-8966579D01*
X4954539Y-8966579D02*
X4964063Y-8947531D01*
X4964063Y-8947531D02*
X4973587Y-8938008D01*
X4973587Y-8938008D02*
X4992634Y-8928484D01*
X5145015Y-9109436D02*
X5154539Y-9118960D01*
X5154539Y-9118960D02*
X5145015Y-9128484D01*
X5145015Y-9128484D02*
X5135491Y-9118960D01*
X5135491Y-9118960D02*
X5145015Y-9109436D01*
X5145015Y-9109436D02*
X5145015Y-9128484D01*
X5278348Y-8928484D02*
X5297396Y-8928484D01*
X5297396Y-8928484D02*
X5316444Y-8938008D01*
X5316444Y-8938008D02*
X5325968Y-8947531D01*
X5325968Y-8947531D02*
X5335491Y-8966579D01*
X5335491Y-8966579D02*
X5345015Y-9004674D01*
X5345015Y-9004674D02*
X5345015Y-9052293D01*
X5345015Y-9052293D02*
X5335491Y-9090389D01*
X5335491Y-9090389D02*
X5325968Y-9109436D01*
X5325968Y-9109436D02*
X5316444Y-9118960D01*
X5316444Y-9118960D02*
X5297396Y-9128484D01*
X5297396Y-9128484D02*
X5278348Y-9128484D01*
X5278348Y-9128484D02*
X5259301Y-9118960D01*
X5259301Y-9118960D02*
X5249777Y-9109436D01*
X5249777Y-9109436D02*
X5240253Y-9090389D01*
X5240253Y-9090389D02*
X5230729Y-9052293D01*
X5230729Y-9052293D02*
X5230729Y-9004674D01*
X5230729Y-9004674D02*
X5240253Y-8966579D01*
X5240253Y-8966579D02*
X5249777Y-8947531D01*
X5249777Y-8947531D02*
X5259301Y-8938008D01*
X5259301Y-8938008D02*
X5278348Y-8928484D01*
X5411682Y-8928484D02*
X5535491Y-8928484D01*
X5535491Y-8928484D02*
X5468825Y-9004674D01*
X5468825Y-9004674D02*
X5497396Y-9004674D01*
X5497396Y-9004674D02*
X5516444Y-9014198D01*
X5516444Y-9014198D02*
X5525968Y-9023722D01*
X5525968Y-9023722D02*
X5535491Y-9042770D01*
X5535491Y-9042770D02*
X5535491Y-9090389D01*
X5535491Y-9090389D02*
X5525968Y-9109436D01*
X5525968Y-9109436D02*
X5516444Y-9118960D01*
X5516444Y-9118960D02*
X5497396Y-9128484D01*
X5497396Y-9128484D02*
X5440253Y-9128484D01*
X5440253Y-9128484D02*
X5421206Y-9118960D01*
X5421206Y-9118960D02*
X5411682Y-9109436D01*
X5602158Y-8928484D02*
X5735491Y-8928484D01*
X5735491Y-8928484D02*
X5649777Y-9128484D01*
X5897396Y-8995150D02*
X5897396Y-9128484D01*
X5849777Y-8918960D02*
X5802158Y-9061817D01*
X5802158Y-9061817D02*
X5925967Y-9061817D01*
X5992634Y-8928484D02*
X5992634Y-8966579D01*
X6068825Y-8928484D02*
X6068825Y-8966579D01*
X6364063Y-9204674D02*
X6354539Y-9195150D01*
X6354539Y-9195150D02*
X6335491Y-9166579D01*
X6335491Y-9166579D02*
X6325968Y-9147531D01*
X6325968Y-9147531D02*
X6316444Y-9118960D01*
X6316444Y-9118960D02*
X6306920Y-9071341D01*
X6306920Y-9071341D02*
X6306920Y-9033246D01*
X6306920Y-9033246D02*
X6316444Y-8985627D01*
X6316444Y-8985627D02*
X6325968Y-8957055D01*
X6325968Y-8957055D02*
X6335491Y-8938008D01*
X6335491Y-8938008D02*
X6354539Y-8909436D01*
X6354539Y-8909436D02*
X6364063Y-8899912D01*
X6525968Y-8928484D02*
X6487872Y-8928484D01*
X6487872Y-8928484D02*
X6468825Y-8938008D01*
X6468825Y-8938008D02*
X6459301Y-8947531D01*
X6459301Y-8947531D02*
X6440253Y-8976103D01*
X6440253Y-8976103D02*
X6430729Y-9014198D01*
X6430729Y-9014198D02*
X6430729Y-9090389D01*
X6430729Y-9090389D02*
X6440253Y-9109436D01*
X6440253Y-9109436D02*
X6449777Y-9118960D01*
X6449777Y-9118960D02*
X6468825Y-9128484D01*
X6468825Y-9128484D02*
X6506920Y-9128484D01*
X6506920Y-9128484D02*
X6525968Y-9118960D01*
X6525968Y-9118960D02*
X6535491Y-9109436D01*
X6535491Y-9109436D02*
X6545015Y-9090389D01*
X6545015Y-9090389D02*
X6545015Y-9042770D01*
X6545015Y-9042770D02*
X6535491Y-9023722D01*
X6535491Y-9023722D02*
X6525968Y-9014198D01*
X6525968Y-9014198D02*
X6506920Y-9004674D01*
X6506920Y-9004674D02*
X6468825Y-9004674D01*
X6468825Y-9004674D02*
X6449777Y-9014198D01*
X6449777Y-9014198D02*
X6440253Y-9023722D01*
X6440253Y-9023722D02*
X6430729Y-9042770D01*
X6783110Y-9128484D02*
X6783110Y-8928484D01*
X6868825Y-9128484D02*
X6868825Y-9023722D01*
X6868825Y-9023722D02*
X6859301Y-9004674D01*
X6859301Y-9004674D02*
X6840253Y-8995150D01*
X6840253Y-8995150D02*
X6811682Y-8995150D01*
X6811682Y-8995150D02*
X6792634Y-9004674D01*
X6792634Y-9004674D02*
X6783110Y-9014198D01*
X6992634Y-9128484D02*
X6973587Y-9118960D01*
X6973587Y-9118960D02*
X6964063Y-9109436D01*
X6964063Y-9109436D02*
X6954539Y-9090389D01*
X6954539Y-9090389D02*
X6954539Y-9033246D01*
X6954539Y-9033246D02*
X6964063Y-9014198D01*
X6964063Y-9014198D02*
X6973587Y-9004674D01*
X6973587Y-9004674D02*
X6992634Y-8995150D01*
X6992634Y-8995150D02*
X7021206Y-8995150D01*
X7021206Y-8995150D02*
X7040253Y-9004674D01*
X7040253Y-9004674D02*
X7049777Y-9014198D01*
X7049777Y-9014198D02*
X7059301Y-9033246D01*
X7059301Y-9033246D02*
X7059301Y-9090389D01*
X7059301Y-9090389D02*
X7049777Y-9109436D01*
X7049777Y-9109436D02*
X7040253Y-9118960D01*
X7040253Y-9118960D02*
X7021206Y-9128484D01*
X7021206Y-9128484D02*
X6992634Y-9128484D01*
X7173587Y-9128484D02*
X7154539Y-9118960D01*
X7154539Y-9118960D02*
X7145015Y-9099912D01*
X7145015Y-9099912D02*
X7145015Y-8928484D01*
X7325968Y-9118960D02*
X7306920Y-9128484D01*
X7306920Y-9128484D02*
X7268825Y-9128484D01*
X7268825Y-9128484D02*
X7249777Y-9118960D01*
X7249777Y-9118960D02*
X7240253Y-9099912D01*
X7240253Y-9099912D02*
X7240253Y-9023722D01*
X7240253Y-9023722D02*
X7249777Y-9004674D01*
X7249777Y-9004674D02*
X7268825Y-8995150D01*
X7268825Y-8995150D02*
X7306920Y-8995150D01*
X7306920Y-8995150D02*
X7325968Y-9004674D01*
X7325968Y-9004674D02*
X7335491Y-9023722D01*
X7335491Y-9023722D02*
X7335491Y-9042770D01*
X7335491Y-9042770D02*
X7240253Y-9061817D01*
X7411682Y-9118960D02*
X7430730Y-9128484D01*
X7430730Y-9128484D02*
X7468825Y-9128484D01*
X7468825Y-9128484D02*
X7487872Y-9118960D01*
X7487872Y-9118960D02*
X7497396Y-9099912D01*
X7497396Y-9099912D02*
X7497396Y-9090389D01*
X7497396Y-9090389D02*
X7487872Y-9071341D01*
X7487872Y-9071341D02*
X7468825Y-9061817D01*
X7468825Y-9061817D02*
X7440253Y-9061817D01*
X7440253Y-9061817D02*
X7421206Y-9052293D01*
X7421206Y-9052293D02*
X7411682Y-9033246D01*
X7411682Y-9033246D02*
X7411682Y-9023722D01*
X7411682Y-9023722D02*
X7421206Y-9004674D01*
X7421206Y-9004674D02*
X7440253Y-8995150D01*
X7440253Y-8995150D02*
X7468825Y-8995150D01*
X7468825Y-8995150D02*
X7487872Y-9004674D01*
X7564063Y-9204674D02*
X7573587Y-9195150D01*
X7573587Y-9195150D02*
X7592634Y-9166579D01*
X7592634Y-9166579D02*
X7602158Y-9147531D01*
X7602158Y-9147531D02*
X7611682Y-9118960D01*
X7611682Y-9118960D02*
X7621206Y-9071341D01*
X7621206Y-9071341D02*
X7621206Y-9033246D01*
X7621206Y-9033246D02*
X7611682Y-8985627D01*
X7611682Y-8985627D02*
X7602158Y-8957055D01*
X7602158Y-8957055D02*
X7592634Y-8938008D01*
X7592634Y-8938008D02*
X7573587Y-8909436D01*
X7573587Y-8909436D02*
X7564063Y-8899912D01*
D10*
X2739000Y-9251000D02*
X2739000Y-9351000D01*
X2689000Y-9301000D02*
X2789000Y-9301000D01*
D11*
X3154539Y-9392484D02*
X3040253Y-9392484D01*
X3097396Y-9392484D02*
X3097396Y-9192484D01*
X3097396Y-9192484D02*
X3078348Y-9221055D01*
X3078348Y-9221055D02*
X3059301Y-9240103D01*
X3059301Y-9240103D02*
X3040253Y-9249627D01*
X3240253Y-9373436D02*
X3249777Y-9382960D01*
X3249777Y-9382960D02*
X3240253Y-9392484D01*
X3240253Y-9392484D02*
X3230729Y-9382960D01*
X3230729Y-9382960D02*
X3240253Y-9373436D01*
X3240253Y-9373436D02*
X3240253Y-9392484D01*
X3373586Y-9192484D02*
X3392634Y-9192484D01*
X3392634Y-9192484D02*
X3411682Y-9202008D01*
X3411682Y-9202008D02*
X3421205Y-9211531D01*
X3421205Y-9211531D02*
X3430729Y-9230579D01*
X3430729Y-9230579D02*
X3440253Y-9268674D01*
X3440253Y-9268674D02*
X3440253Y-9316293D01*
X3440253Y-9316293D02*
X3430729Y-9354389D01*
X3430729Y-9354389D02*
X3421205Y-9373436D01*
X3421205Y-9373436D02*
X3411682Y-9382960D01*
X3411682Y-9382960D02*
X3392634Y-9392484D01*
X3392634Y-9392484D02*
X3373586Y-9392484D01*
X3373586Y-9392484D02*
X3354539Y-9382960D01*
X3354539Y-9382960D02*
X3345015Y-9373436D01*
X3345015Y-9373436D02*
X3335491Y-9354389D01*
X3335491Y-9354389D02*
X3325967Y-9316293D01*
X3325967Y-9316293D02*
X3325967Y-9268674D01*
X3325967Y-9268674D02*
X3335491Y-9230579D01*
X3335491Y-9230579D02*
X3345015Y-9211531D01*
X3345015Y-9211531D02*
X3354539Y-9202008D01*
X3354539Y-9202008D02*
X3373586Y-9192484D01*
X3564062Y-9192484D02*
X3583110Y-9192484D01*
X3583110Y-9192484D02*
X3602158Y-9202008D01*
X3602158Y-9202008D02*
X3611682Y-9211531D01*
X3611682Y-9211531D02*
X3621205Y-9230579D01*
X3621205Y-9230579D02*
X3630729Y-9268674D01*
X3630729Y-9268674D02*
X3630729Y-9316293D01*
X3630729Y-9316293D02*
X3621205Y-9354389D01*
X3621205Y-9354389D02*
X3611682Y-9373436D01*
X3611682Y-9373436D02*
X3602158Y-9382960D01*
X3602158Y-9382960D02*
X3583110Y-9392484D01*
X3583110Y-9392484D02*
X3564062Y-9392484D01*
X3564062Y-9392484D02*
X3545015Y-9382960D01*
X3545015Y-9382960D02*
X3535491Y-9373436D01*
X3535491Y-9373436D02*
X3525967Y-9354389D01*
X3525967Y-9354389D02*
X3516443Y-9316293D01*
X3516443Y-9316293D02*
X3516443Y-9268674D01*
X3516443Y-9268674D02*
X3525967Y-9230579D01*
X3525967Y-9230579D02*
X3535491Y-9211531D01*
X3535491Y-9211531D02*
X3545015Y-9202008D01*
X3545015Y-9202008D02*
X3564062Y-9192484D01*
X3754539Y-9192484D02*
X3773586Y-9192484D01*
X3773586Y-9192484D02*
X3792634Y-9202008D01*
X3792634Y-9202008D02*
X3802158Y-9211531D01*
X3802158Y-9211531D02*
X3811682Y-9230579D01*
X3811682Y-9230579D02*
X3821205Y-9268674D01*
X3821205Y-9268674D02*
X3821205Y-9316293D01*
X3821205Y-9316293D02*
X3811682Y-9354389D01*
X3811682Y-9354389D02*
X3802158Y-9373436D01*
X3802158Y-9373436D02*
X3792634Y-9382960D01*
X3792634Y-9382960D02*
X3773586Y-9392484D01*
X3773586Y-9392484D02*
X3754539Y-9392484D01*
X3754539Y-9392484D02*
X3735491Y-9382960D01*
X3735491Y-9382960D02*
X3725967Y-9373436D01*
X3725967Y-9373436D02*
X3716443Y-9354389D01*
X3716443Y-9354389D02*
X3706920Y-9316293D01*
X3706920Y-9316293D02*
X3706920Y-9268674D01*
X3706920Y-9268674D02*
X3716443Y-9230579D01*
X3716443Y-9230579D02*
X3725967Y-9211531D01*
X3725967Y-9211531D02*
X3735491Y-9202008D01*
X3735491Y-9202008D02*
X3754539Y-9192484D01*
X3906920Y-9392484D02*
X3906920Y-9259150D01*
X3906920Y-9278198D02*
X3916443Y-9268674D01*
X3916443Y-9268674D02*
X3935491Y-9259150D01*
X3935491Y-9259150D02*
X3964063Y-9259150D01*
X3964063Y-9259150D02*
X3983110Y-9268674D01*
X3983110Y-9268674D02*
X3992634Y-9287722D01*
X3992634Y-9287722D02*
X3992634Y-9392484D01*
X3992634Y-9287722D02*
X4002158Y-9268674D01*
X4002158Y-9268674D02*
X4021205Y-9259150D01*
X4021205Y-9259150D02*
X4049777Y-9259150D01*
X4049777Y-9259150D02*
X4068824Y-9268674D01*
X4068824Y-9268674D02*
X4078348Y-9287722D01*
X4078348Y-9287722D02*
X4078348Y-9392484D01*
X4173586Y-9392484D02*
X4173586Y-9259150D01*
X4173586Y-9278198D02*
X4183110Y-9268674D01*
X4183110Y-9268674D02*
X4202158Y-9259150D01*
X4202158Y-9259150D02*
X4230729Y-9259150D01*
X4230729Y-9259150D02*
X4249777Y-9268674D01*
X4249777Y-9268674D02*
X4259301Y-9287722D01*
X4259301Y-9287722D02*
X4259301Y-9392484D01*
X4259301Y-9287722D02*
X4268825Y-9268674D01*
X4268825Y-9268674D02*
X4287872Y-9259150D01*
X4287872Y-9259150D02*
X4316444Y-9259150D01*
X4316444Y-9259150D02*
X4335491Y-9268674D01*
X4335491Y-9268674D02*
X4345015Y-9287722D01*
X4345015Y-9287722D02*
X4345015Y-9392484D01*
X4735491Y-9182960D02*
X4564063Y-9440103D01*
X4992634Y-9192484D02*
X5011682Y-9192484D01*
X5011682Y-9192484D02*
X5030729Y-9202008D01*
X5030729Y-9202008D02*
X5040253Y-9211531D01*
X5040253Y-9211531D02*
X5049777Y-9230579D01*
X5049777Y-9230579D02*
X5059301Y-9268674D01*
X5059301Y-9268674D02*
X5059301Y-9316293D01*
X5059301Y-9316293D02*
X5049777Y-9354389D01*
X5049777Y-9354389D02*
X5040253Y-9373436D01*
X5040253Y-9373436D02*
X5030729Y-9382960D01*
X5030729Y-9382960D02*
X5011682Y-9392484D01*
X5011682Y-9392484D02*
X4992634Y-9392484D01*
X4992634Y-9392484D02*
X4973587Y-9382960D01*
X4973587Y-9382960D02*
X4964063Y-9373436D01*
X4964063Y-9373436D02*
X4954539Y-9354389D01*
X4954539Y-9354389D02*
X4945015Y-9316293D01*
X4945015Y-9316293D02*
X4945015Y-9268674D01*
X4945015Y-9268674D02*
X4954539Y-9230579D01*
X4954539Y-9230579D02*
X4964063Y-9211531D01*
X4964063Y-9211531D02*
X4973587Y-9202008D01*
X4973587Y-9202008D02*
X4992634Y-9192484D01*
X5145015Y-9373436D02*
X5154539Y-9382960D01*
X5154539Y-9382960D02*
X5145015Y-9392484D01*
X5145015Y-9392484D02*
X5135491Y-9382960D01*
X5135491Y-9382960D02*
X5145015Y-9373436D01*
X5145015Y-9373436D02*
X5145015Y-9392484D01*
X5278348Y-9192484D02*
X5297396Y-9192484D01*
X5297396Y-9192484D02*
X5316444Y-9202008D01*
X5316444Y-9202008D02*
X5325968Y-9211531D01*
X5325968Y-9211531D02*
X5335491Y-9230579D01*
X5335491Y-9230579D02*
X5345015Y-9268674D01*
X5345015Y-9268674D02*
X5345015Y-9316293D01*
X5345015Y-9316293D02*
X5335491Y-9354389D01*
X5335491Y-9354389D02*
X5325968Y-9373436D01*
X5325968Y-9373436D02*
X5316444Y-9382960D01*
X5316444Y-9382960D02*
X5297396Y-9392484D01*
X5297396Y-9392484D02*
X5278348Y-9392484D01*
X5278348Y-9392484D02*
X5259301Y-9382960D01*
X5259301Y-9382960D02*
X5249777Y-9373436D01*
X5249777Y-9373436D02*
X5240253Y-9354389D01*
X5240253Y-9354389D02*
X5230729Y-9316293D01*
X5230729Y-9316293D02*
X5230729Y-9268674D01*
X5230729Y-9268674D02*
X5240253Y-9230579D01*
X5240253Y-9230579D02*
X5249777Y-9211531D01*
X5249777Y-9211531D02*
X5259301Y-9202008D01*
X5259301Y-9202008D02*
X5278348Y-9192484D01*
X5411682Y-9192484D02*
X5535491Y-9192484D01*
X5535491Y-9192484D02*
X5468825Y-9268674D01*
X5468825Y-9268674D02*
X5497396Y-9268674D01*
X5497396Y-9268674D02*
X5516444Y-9278198D01*
X5516444Y-9278198D02*
X5525968Y-9287722D01*
X5525968Y-9287722D02*
X5535491Y-9306770D01*
X5535491Y-9306770D02*
X5535491Y-9354389D01*
X5535491Y-9354389D02*
X5525968Y-9373436D01*
X5525968Y-9373436D02*
X5516444Y-9382960D01*
X5516444Y-9382960D02*
X5497396Y-9392484D01*
X5497396Y-9392484D02*
X5440253Y-9392484D01*
X5440253Y-9392484D02*
X5421206Y-9382960D01*
X5421206Y-9382960D02*
X5411682Y-9373436D01*
X5630729Y-9392484D02*
X5668825Y-9392484D01*
X5668825Y-9392484D02*
X5687872Y-9382960D01*
X5687872Y-9382960D02*
X5697396Y-9373436D01*
X5697396Y-9373436D02*
X5716444Y-9344865D01*
X5716444Y-9344865D02*
X5725967Y-9306770D01*
X5725967Y-9306770D02*
X5725967Y-9230579D01*
X5725967Y-9230579D02*
X5716444Y-9211531D01*
X5716444Y-9211531D02*
X5706920Y-9202008D01*
X5706920Y-9202008D02*
X5687872Y-9192484D01*
X5687872Y-9192484D02*
X5649777Y-9192484D01*
X5649777Y-9192484D02*
X5630729Y-9202008D01*
X5630729Y-9202008D02*
X5621206Y-9211531D01*
X5621206Y-9211531D02*
X5611682Y-9230579D01*
X5611682Y-9230579D02*
X5611682Y-9278198D01*
X5611682Y-9278198D02*
X5621206Y-9297246D01*
X5621206Y-9297246D02*
X5630729Y-9306770D01*
X5630729Y-9306770D02*
X5649777Y-9316293D01*
X5649777Y-9316293D02*
X5687872Y-9316293D01*
X5687872Y-9316293D02*
X5706920Y-9306770D01*
X5706920Y-9306770D02*
X5716444Y-9297246D01*
X5716444Y-9297246D02*
X5725967Y-9278198D01*
X5897396Y-9259150D02*
X5897396Y-9392484D01*
X5849777Y-9182960D02*
X5802158Y-9325817D01*
X5802158Y-9325817D02*
X5925967Y-9325817D01*
X5992634Y-9192484D02*
X5992634Y-9230579D01*
X6068825Y-9192484D02*
X6068825Y-9230579D01*
X6364063Y-9468674D02*
X6354539Y-9459150D01*
X6354539Y-9459150D02*
X6335491Y-9430579D01*
X6335491Y-9430579D02*
X6325968Y-9411531D01*
X6325968Y-9411531D02*
X6316444Y-9382960D01*
X6316444Y-9382960D02*
X6306920Y-9335341D01*
X6306920Y-9335341D02*
X6306920Y-9297246D01*
X6306920Y-9297246D02*
X6316444Y-9249627D01*
X6316444Y-9249627D02*
X6325968Y-9221055D01*
X6325968Y-9221055D02*
X6335491Y-9202008D01*
X6335491Y-9202008D02*
X6354539Y-9173436D01*
X6354539Y-9173436D02*
X6364063Y-9163912D01*
X6525968Y-9259150D02*
X6525968Y-9392484D01*
X6478348Y-9182960D02*
X6430729Y-9325817D01*
X6430729Y-9325817D02*
X6554539Y-9325817D01*
X6621206Y-9211531D02*
X6630729Y-9202008D01*
X6630729Y-9202008D02*
X6649777Y-9192484D01*
X6649777Y-9192484D02*
X6697396Y-9192484D01*
X6697396Y-9192484D02*
X6716444Y-9202008D01*
X6716444Y-9202008D02*
X6725968Y-9211531D01*
X6725968Y-9211531D02*
X6735491Y-9230579D01*
X6735491Y-9230579D02*
X6735491Y-9249627D01*
X6735491Y-9249627D02*
X6725968Y-9278198D01*
X6725968Y-9278198D02*
X6611682Y-9392484D01*
X6611682Y-9392484D02*
X6735491Y-9392484D01*
X6973587Y-9392484D02*
X6973587Y-9192484D01*
X7059301Y-9392484D02*
X7059301Y-9287722D01*
X7059301Y-9287722D02*
X7049777Y-9268674D01*
X7049777Y-9268674D02*
X7030730Y-9259150D01*
X7030730Y-9259150D02*
X7002158Y-9259150D01*
X7002158Y-9259150D02*
X6983110Y-9268674D01*
X6983110Y-9268674D02*
X6973587Y-9278198D01*
X7183110Y-9392484D02*
X7164063Y-9382960D01*
X7164063Y-9382960D02*
X7154539Y-9373436D01*
X7154539Y-9373436D02*
X7145015Y-9354389D01*
X7145015Y-9354389D02*
X7145015Y-9297246D01*
X7145015Y-9297246D02*
X7154539Y-9278198D01*
X7154539Y-9278198D02*
X7164063Y-9268674D01*
X7164063Y-9268674D02*
X7183110Y-9259150D01*
X7183110Y-9259150D02*
X7211682Y-9259150D01*
X7211682Y-9259150D02*
X7230730Y-9268674D01*
X7230730Y-9268674D02*
X7240253Y-9278198D01*
X7240253Y-9278198D02*
X7249777Y-9297246D01*
X7249777Y-9297246D02*
X7249777Y-9354389D01*
X7249777Y-9354389D02*
X7240253Y-9373436D01*
X7240253Y-9373436D02*
X7230730Y-9382960D01*
X7230730Y-9382960D02*
X7211682Y-9392484D01*
X7211682Y-9392484D02*
X7183110Y-9392484D01*
X7364063Y-9392484D02*
X7345015Y-9382960D01*
X7345015Y-9382960D02*
X7335491Y-9363912D01*
X7335491Y-9363912D02*
X7335491Y-9192484D01*
X7516444Y-9382960D02*
X7497396Y-9392484D01*
X7497396Y-9392484D02*
X7459301Y-9392484D01*
X7459301Y-9392484D02*
X7440253Y-9382960D01*
X7440253Y-9382960D02*
X7430730Y-9363912D01*
X7430730Y-9363912D02*
X7430730Y-9287722D01*
X7430730Y-9287722D02*
X7440253Y-9268674D01*
X7440253Y-9268674D02*
X7459301Y-9259150D01*
X7459301Y-9259150D02*
X7497396Y-9259150D01*
X7497396Y-9259150D02*
X7516444Y-9268674D01*
X7516444Y-9268674D02*
X7525968Y-9287722D01*
X7525968Y-9287722D02*
X7525968Y-9306770D01*
X7525968Y-9306770D02*
X7430730Y-9325817D01*
X7602158Y-9382960D02*
X7621206Y-9392484D01*
X7621206Y-9392484D02*
X7659301Y-9392484D01*
X7659301Y-9392484D02*
X7678349Y-9382960D01*
X7678349Y-9382960D02*
X7687872Y-9363912D01*
X7687872Y-9363912D02*
X7687872Y-9354389D01*
X7687872Y-9354389D02*
X7678349Y-9335341D01*
X7678349Y-9335341D02*
X7659301Y-9325817D01*
X7659301Y-9325817D02*
X7630730Y-9325817D01*
X7630730Y-9325817D02*
X7611682Y-9316293D01*
X7611682Y-9316293D02*
X7602158Y-9297246D01*
X7602158Y-9297246D02*
X7602158Y-9287722D01*
X7602158Y-9287722D02*
X7611682Y-9268674D01*
X7611682Y-9268674D02*
X7630730Y-9259150D01*
X7630730Y-9259150D02*
X7659301Y-9259150D01*
X7659301Y-9259150D02*
X7678349Y-9268674D01*
X7754539Y-9468674D02*
X7764063Y-9459150D01*
X7764063Y-9459150D02*
X7783111Y-9430579D01*
X7783111Y-9430579D02*
X7792634Y-9411531D01*
X7792634Y-9411531D02*
X7802158Y-9382960D01*
X7802158Y-9382960D02*
X7811682Y-9335341D01*
X7811682Y-9335341D02*
X7811682Y-9297246D01*
X7811682Y-9297246D02*
X7802158Y-9249627D01*
X7802158Y-9249627D02*
X7792634Y-9221055D01*
X7792634Y-9221055D02*
X7783111Y-9202008D01*
X7783111Y-9202008D02*
X7764063Y-9173436D01*
X7764063Y-9173436D02*
X7754539Y-9163912D01*
M02*
