%TF.GenerationSoftware,KiCad,Pcbnew,8.0.8*%
%TF.CreationDate,2025-02-04T18:57:15-05:00*%
%TF.ProjectId,zuul,7a75756c-2e6b-4696-9361-645f70636258,rev?*%
%TF.SameCoordinates,Original*%
%TF.FileFunction,Soldermask,Top*%
%TF.FilePolarity,Negative*%
%FSLAX46Y46*%
G04 Gerber Fmt 4.6, Leading zero omitted, Abs format (unit mm)*
G04 Created by KiCad (PCBNEW 8.0.8) date 2025-02-04 18:57:15*
%MOMM*%
%LPD*%
G01*
G04 APERTURE LIST*
G04 Aperture macros list*
%AMRoundRect*
0 Rectangle with rounded corners*
0 $1 Rounding radius*
0 $2 $3 $4 $5 $6 $7 $8 $9 X,Y pos of 4 corners*
0 Add a 4 corners polygon primitive as box body*
4,1,4,$2,$3,$4,$5,$6,$7,$8,$9,$2,$3,0*
0 Add four circle primitives for the rounded corners*
1,1,$1+$1,$2,$3*
1,1,$1+$1,$4,$5*
1,1,$1+$1,$6,$7*
1,1,$1+$1,$8,$9*
0 Add four rect primitives between the rounded corners*
20,1,$1+$1,$2,$3,$4,$5,0*
20,1,$1+$1,$4,$5,$6,$7,0*
20,1,$1+$1,$6,$7,$8,$9,0*
20,1,$1+$1,$8,$9,$2,$3,0*%
G04 Aperture macros list end*
%ADD10RoundRect,0.140000X0.170000X-0.140000X0.170000X0.140000X-0.170000X0.140000X-0.170000X-0.140000X0*%
%ADD11RoundRect,0.250000X0.475000X-0.250000X0.475000X0.250000X-0.475000X0.250000X-0.475000X-0.250000X0*%
%ADD12R,0.650000X1.525000*%
%ADD13R,3.400000X2.710000*%
%ADD14RoundRect,0.250000X-0.312500X-0.625000X0.312500X-0.625000X0.312500X0.625000X-0.312500X0.625000X0*%
%ADD15RoundRect,0.250000X-0.475000X0.250000X-0.475000X-0.250000X0.475000X-0.250000X0.475000X0.250000X0*%
%ADD16R,1.700000X1.700000*%
%ADD17O,1.700000X1.700000*%
%ADD18RoundRect,0.250000X0.725000X-0.600000X0.725000X0.600000X-0.725000X0.600000X-0.725000X-0.600000X0*%
%ADD19O,1.950000X1.700000*%
G04 APERTURE END LIST*
D10*
%TO.C,C1*%
X38087853Y-38074861D03*
X38087853Y-37114861D03*
%TD*%
D11*
%TO.C,C2*%
X38100000Y-33970000D03*
X38100000Y-32070000D03*
%TD*%
D12*
%TO.C,IC1*%
X31750000Y-45892000D03*
X33020000Y-45892000D03*
X34290000Y-45892000D03*
X35560000Y-45892000D03*
X35560000Y-40468000D03*
X34290000Y-40468000D03*
X33020000Y-40468000D03*
X31750000Y-40468000D03*
D13*
X33655000Y-43180000D03*
%TD*%
D14*
%TO.C,R1*%
X33014084Y-36563709D03*
X35939084Y-36563709D03*
%TD*%
D15*
%TO.C,C3*%
X38100000Y-39690000D03*
X38100000Y-41590000D03*
%TD*%
D16*
%TO.C,J2*%
X33020000Y-73660000D03*
D17*
X35560000Y-73660000D03*
%TD*%
D18*
%TO.C,J5*%
X35560000Y-67210000D03*
D19*
X35560000Y-64710000D03*
X35560000Y-62210000D03*
X35560000Y-59710000D03*
X35560000Y-57210000D03*
X35560000Y-54710000D03*
%TD*%
D16*
%TO.C,J1*%
X40640000Y-30480000D03*
D17*
X43180000Y-30480000D03*
X40640000Y-33020000D03*
X43180000Y-33020000D03*
X40640000Y-35560000D03*
X43180000Y-35560000D03*
X40640000Y-38100000D03*
X43180000Y-38100000D03*
X40640000Y-40640000D03*
X43180000Y-40640000D03*
X40640000Y-43180000D03*
X43180000Y-43180000D03*
X40640000Y-45720000D03*
X43180000Y-45720000D03*
X40640000Y-48260000D03*
X43180000Y-48260000D03*
X40640000Y-50800000D03*
X43180000Y-50800000D03*
X40640000Y-53340000D03*
X43180000Y-53340000D03*
X40640000Y-55880000D03*
X43180000Y-55880000D03*
X40640000Y-58420000D03*
X43180000Y-58420000D03*
X40640000Y-60960000D03*
X43180000Y-60960000D03*
X40640000Y-63500000D03*
X43180000Y-63500000D03*
X40640000Y-66040000D03*
X43180000Y-66040000D03*
X40640000Y-68580000D03*
X43180000Y-68580000D03*
X40640000Y-71120000D03*
X43180000Y-71120000D03*
X40640000Y-73660000D03*
X43180000Y-73660000D03*
X40640000Y-76200000D03*
X43180000Y-76200000D03*
X40640000Y-78740000D03*
X43180000Y-78740000D03*
%TD*%
M02*
