%TF.GenerationSoftware,KiCad,Pcbnew,8.0.8*%
%TF.CreationDate,2025-02-04T18:57:20-05:00*%
%TF.ProjectId,zuul,7a75756c-2e6b-4696-9361-645f70636258,rev?*%
%TF.SameCoordinates,Original*%
%TF.FileFunction,Drillmap*%
%TF.FilePolarity,Positive*%
%FSLAX45Y45*%
G04 Gerber Fmt 4.5, Leading zero omitted, Abs format (unit mm)*
G04 Created by KiCad (PCBNEW 8.0.8) date 2025-02-04 18:57:20*
%MOMM*%
%LPD*%
G01*
G04 APERTURE LIST*
%ADD10C,0.100000*%
%ADD11C,0.200000*%
G04 APERTURE END LIST*
D10*
X2794000Y-2540000D02*
X4572000Y-2540000D01*
X4572000Y-8128000D01*
X2794000Y-8128000D01*
X2794000Y-2540000D01*
D11*
X3049777Y-8444484D02*
X3049777Y-8244484D01*
X3049777Y-8244484D02*
X3097396Y-8244484D01*
X3097396Y-8244484D02*
X3125967Y-8254008D01*
X3125967Y-8254008D02*
X3145015Y-8273055D01*
X3145015Y-8273055D02*
X3154539Y-8292103D01*
X3154539Y-8292103D02*
X3164062Y-8330198D01*
X3164062Y-8330198D02*
X3164062Y-8358769D01*
X3164062Y-8358769D02*
X3154539Y-8396865D01*
X3154539Y-8396865D02*
X3145015Y-8415912D01*
X3145015Y-8415912D02*
X3125967Y-8434960D01*
X3125967Y-8434960D02*
X3097396Y-8444484D01*
X3097396Y-8444484D02*
X3049777Y-8444484D01*
X3249777Y-8444484D02*
X3249777Y-8311150D01*
X3249777Y-8349246D02*
X3259301Y-8330198D01*
X3259301Y-8330198D02*
X3268824Y-8320674D01*
X3268824Y-8320674D02*
X3287872Y-8311150D01*
X3287872Y-8311150D02*
X3306920Y-8311150D01*
X3373586Y-8444484D02*
X3373586Y-8311150D01*
X3373586Y-8244484D02*
X3364062Y-8254008D01*
X3364062Y-8254008D02*
X3373586Y-8263531D01*
X3373586Y-8263531D02*
X3383110Y-8254008D01*
X3383110Y-8254008D02*
X3373586Y-8244484D01*
X3373586Y-8244484D02*
X3373586Y-8263531D01*
X3497396Y-8444484D02*
X3478348Y-8434960D01*
X3478348Y-8434960D02*
X3468824Y-8415912D01*
X3468824Y-8415912D02*
X3468824Y-8244484D01*
X3602158Y-8444484D02*
X3583110Y-8434960D01*
X3583110Y-8434960D02*
X3573586Y-8415912D01*
X3573586Y-8415912D02*
X3573586Y-8244484D01*
X3830729Y-8444484D02*
X3830729Y-8244484D01*
X3830729Y-8244484D02*
X3897396Y-8387341D01*
X3897396Y-8387341D02*
X3964062Y-8244484D01*
X3964062Y-8244484D02*
X3964062Y-8444484D01*
X4145015Y-8444484D02*
X4145015Y-8339722D01*
X4145015Y-8339722D02*
X4135491Y-8320674D01*
X4135491Y-8320674D02*
X4116443Y-8311150D01*
X4116443Y-8311150D02*
X4078348Y-8311150D01*
X4078348Y-8311150D02*
X4059301Y-8320674D01*
X4145015Y-8434960D02*
X4125967Y-8444484D01*
X4125967Y-8444484D02*
X4078348Y-8444484D01*
X4078348Y-8444484D02*
X4059301Y-8434960D01*
X4059301Y-8434960D02*
X4049777Y-8415912D01*
X4049777Y-8415912D02*
X4049777Y-8396865D01*
X4049777Y-8396865D02*
X4059301Y-8377817D01*
X4059301Y-8377817D02*
X4078348Y-8368293D01*
X4078348Y-8368293D02*
X4125967Y-8368293D01*
X4125967Y-8368293D02*
X4145015Y-8358769D01*
X4240253Y-8311150D02*
X4240253Y-8511150D01*
X4240253Y-8320674D02*
X4259301Y-8311150D01*
X4259301Y-8311150D02*
X4297396Y-8311150D01*
X4297396Y-8311150D02*
X4316444Y-8320674D01*
X4316444Y-8320674D02*
X4325967Y-8330198D01*
X4325967Y-8330198D02*
X4335491Y-8349246D01*
X4335491Y-8349246D02*
X4335491Y-8406389D01*
X4335491Y-8406389D02*
X4325967Y-8425436D01*
X4325967Y-8425436D02*
X4316444Y-8434960D01*
X4316444Y-8434960D02*
X4297396Y-8444484D01*
X4297396Y-8444484D02*
X4259301Y-8444484D01*
X4259301Y-8444484D02*
X4240253Y-8434960D01*
X4421205Y-8425436D02*
X4430729Y-8434960D01*
X4430729Y-8434960D02*
X4421205Y-8444484D01*
X4421205Y-8444484D02*
X4411682Y-8434960D01*
X4411682Y-8434960D02*
X4421205Y-8425436D01*
X4421205Y-8425436D02*
X4421205Y-8444484D01*
X4421205Y-8320674D02*
X4430729Y-8330198D01*
X4430729Y-8330198D02*
X4421205Y-8339722D01*
X4421205Y-8339722D02*
X4411682Y-8330198D01*
X4411682Y-8330198D02*
X4421205Y-8320674D01*
X4421205Y-8320674D02*
X4421205Y-8339722D01*
M02*
