%TF.GenerationSoftware,KiCad,Pcbnew,8.0.8*%
%TF.CreationDate,2025-02-04T18:57:15-05:00*%
%TF.ProjectId,zuul,7a75756c-2e6b-4696-9361-645f70636258,rev?*%
%TF.SameCoordinates,Original*%
%TF.FileFunction,Legend,Top*%
%TF.FilePolarity,Positive*%
%FSLAX46Y46*%
G04 Gerber Fmt 4.6, Leading zero omitted, Abs format (unit mm)*
G04 Created by KiCad (PCBNEW 8.0.8) date 2025-02-04 18:57:15*
%MOMM*%
%LPD*%
G01*
G04 APERTURE LIST*
%ADD10C,0.150000*%
%ADD11C,0.254000*%
%ADD12C,0.120000*%
%ADD13C,0.200000*%
G04 APERTURE END LIST*
D10*
X38459580Y-35726666D02*
X38507200Y-35774285D01*
X38507200Y-35774285D02*
X38554819Y-35917142D01*
X38554819Y-35917142D02*
X38554819Y-36012380D01*
X38554819Y-36012380D02*
X38507200Y-36155237D01*
X38507200Y-36155237D02*
X38411961Y-36250475D01*
X38411961Y-36250475D02*
X38316723Y-36298094D01*
X38316723Y-36298094D02*
X38126247Y-36345713D01*
X38126247Y-36345713D02*
X37983390Y-36345713D01*
X37983390Y-36345713D02*
X37792914Y-36298094D01*
X37792914Y-36298094D02*
X37697676Y-36250475D01*
X37697676Y-36250475D02*
X37602438Y-36155237D01*
X37602438Y-36155237D02*
X37554819Y-36012380D01*
X37554819Y-36012380D02*
X37554819Y-35917142D01*
X37554819Y-35917142D02*
X37602438Y-35774285D01*
X37602438Y-35774285D02*
X37650057Y-35726666D01*
X38554819Y-34774285D02*
X38554819Y-35345713D01*
X38554819Y-35059999D02*
X37554819Y-35059999D01*
X37554819Y-35059999D02*
X37697676Y-35155237D01*
X37697676Y-35155237D02*
X37792914Y-35250475D01*
X37792914Y-35250475D02*
X37840533Y-35345713D01*
X36747635Y-33186666D02*
X36795255Y-33234285D01*
X36795255Y-33234285D02*
X36842874Y-33377142D01*
X36842874Y-33377142D02*
X36842874Y-33472380D01*
X36842874Y-33472380D02*
X36795255Y-33615237D01*
X36795255Y-33615237D02*
X36700016Y-33710475D01*
X36700016Y-33710475D02*
X36604778Y-33758094D01*
X36604778Y-33758094D02*
X36414302Y-33805713D01*
X36414302Y-33805713D02*
X36271445Y-33805713D01*
X36271445Y-33805713D02*
X36080969Y-33758094D01*
X36080969Y-33758094D02*
X35985731Y-33710475D01*
X35985731Y-33710475D02*
X35890493Y-33615237D01*
X35890493Y-33615237D02*
X35842874Y-33472380D01*
X35842874Y-33472380D02*
X35842874Y-33377142D01*
X35842874Y-33377142D02*
X35890493Y-33234285D01*
X35890493Y-33234285D02*
X35938112Y-33186666D01*
X35938112Y-32805713D02*
X35890493Y-32758094D01*
X35890493Y-32758094D02*
X35842874Y-32662856D01*
X35842874Y-32662856D02*
X35842874Y-32424761D01*
X35842874Y-32424761D02*
X35890493Y-32329523D01*
X35890493Y-32329523D02*
X35938112Y-32281904D01*
X35938112Y-32281904D02*
X36033350Y-32234285D01*
X36033350Y-32234285D02*
X36128588Y-32234285D01*
X36128588Y-32234285D02*
X36271445Y-32281904D01*
X36271445Y-32281904D02*
X36842874Y-32853332D01*
X36842874Y-32853332D02*
X36842874Y-32234285D01*
D11*
X31054318Y-44419762D02*
X29784318Y-44419762D01*
X30933365Y-43089285D02*
X30993842Y-43149761D01*
X30993842Y-43149761D02*
X31054318Y-43331190D01*
X31054318Y-43331190D02*
X31054318Y-43452142D01*
X31054318Y-43452142D02*
X30993842Y-43633571D01*
X30993842Y-43633571D02*
X30872889Y-43754523D01*
X30872889Y-43754523D02*
X30751937Y-43815000D01*
X30751937Y-43815000D02*
X30510032Y-43875476D01*
X30510032Y-43875476D02*
X30328603Y-43875476D01*
X30328603Y-43875476D02*
X30086699Y-43815000D01*
X30086699Y-43815000D02*
X29965746Y-43754523D01*
X29965746Y-43754523D02*
X29844794Y-43633571D01*
X29844794Y-43633571D02*
X29784318Y-43452142D01*
X29784318Y-43452142D02*
X29784318Y-43331190D01*
X29784318Y-43331190D02*
X29844794Y-43149761D01*
X29844794Y-43149761D02*
X29905270Y-43089285D01*
X31054318Y-41879761D02*
X31054318Y-42605476D01*
X31054318Y-42242619D02*
X29784318Y-42242619D01*
X29784318Y-42242619D02*
X29965746Y-42363571D01*
X29965746Y-42363571D02*
X30086699Y-42484523D01*
X30086699Y-42484523D02*
X30147175Y-42605476D01*
D10*
X34309917Y-35198528D02*
X33976584Y-34722337D01*
X33738489Y-35198528D02*
X33738489Y-34198528D01*
X33738489Y-34198528D02*
X34119441Y-34198528D01*
X34119441Y-34198528D02*
X34214679Y-34246147D01*
X34214679Y-34246147D02*
X34262298Y-34293766D01*
X34262298Y-34293766D02*
X34309917Y-34389004D01*
X34309917Y-34389004D02*
X34309917Y-34531861D01*
X34309917Y-34531861D02*
X34262298Y-34627099D01*
X34262298Y-34627099D02*
X34214679Y-34674718D01*
X34214679Y-34674718D02*
X34119441Y-34722337D01*
X34119441Y-34722337D02*
X33738489Y-34722337D01*
X35262298Y-35198528D02*
X34690870Y-35198528D01*
X34976584Y-35198528D02*
X34976584Y-34198528D01*
X34976584Y-34198528D02*
X34881346Y-34341385D01*
X34881346Y-34341385D02*
X34786108Y-34436623D01*
X34786108Y-34436623D02*
X34690870Y-34484242D01*
X38459580Y-43346666D02*
X38507200Y-43394285D01*
X38507200Y-43394285D02*
X38554819Y-43537142D01*
X38554819Y-43537142D02*
X38554819Y-43632380D01*
X38554819Y-43632380D02*
X38507200Y-43775237D01*
X38507200Y-43775237D02*
X38411961Y-43870475D01*
X38411961Y-43870475D02*
X38316723Y-43918094D01*
X38316723Y-43918094D02*
X38126247Y-43965713D01*
X38126247Y-43965713D02*
X37983390Y-43965713D01*
X37983390Y-43965713D02*
X37792914Y-43918094D01*
X37792914Y-43918094D02*
X37697676Y-43870475D01*
X37697676Y-43870475D02*
X37602438Y-43775237D01*
X37602438Y-43775237D02*
X37554819Y-43632380D01*
X37554819Y-43632380D02*
X37554819Y-43537142D01*
X37554819Y-43537142D02*
X37602438Y-43394285D01*
X37602438Y-43394285D02*
X37650057Y-43346666D01*
X37554819Y-43013332D02*
X37554819Y-42394285D01*
X37554819Y-42394285D02*
X37935771Y-42727618D01*
X37935771Y-42727618D02*
X37935771Y-42584761D01*
X37935771Y-42584761D02*
X37983390Y-42489523D01*
X37983390Y-42489523D02*
X38031009Y-42441904D01*
X38031009Y-42441904D02*
X38126247Y-42394285D01*
X38126247Y-42394285D02*
X38364342Y-42394285D01*
X38364342Y-42394285D02*
X38459580Y-42441904D01*
X38459580Y-42441904D02*
X38507200Y-42489523D01*
X38507200Y-42489523D02*
X38554819Y-42584761D01*
X38554819Y-42584761D02*
X38554819Y-42870475D01*
X38554819Y-42870475D02*
X38507200Y-42965713D01*
X38507200Y-42965713D02*
X38459580Y-43013332D01*
D12*
%TO.C,C1*%
X37727853Y-37702697D02*
X37727853Y-37487025D01*
X38447853Y-37702697D02*
X38447853Y-37487025D01*
%TO.C,C2*%
X37365000Y-33281252D02*
X37365000Y-32758748D01*
X38835000Y-33281252D02*
X38835000Y-32758748D01*
D13*
%TO.C,IC1*%
X31075000Y-46655000D02*
X31075000Y-45130000D01*
D12*
%TO.C,R1*%
X33749520Y-35653709D02*
X35203648Y-35653709D01*
X33749520Y-37473709D02*
X35203648Y-37473709D01*
%TO.C,C3*%
X38835000Y-40378748D02*
X38835000Y-40901252D01*
X37365000Y-40378748D02*
X37365000Y-40901252D01*
%TD*%
M02*
